<svg width="39" height="39" viewBox="0 0 39 39" fill="none" xmlns="http://www.w3.org/2000/svg">
<circle cx="19.5" cy="19.5" r="19.5" fill="#30DFCA"/>
<g clip-path="url(#clip0_91_2780)">
<path d="M22 14.5C23.5189 14.5 24.75 13.2689 24.75 11.75C24.75 10.2311 23.5189 9 22 9C20.4811 9 19.25 10.2311 19.25 11.75C19.25 13.2689 20.4811 14.5 22 14.5ZM20.6839 21.7939C21.288 22.5124 22.3596 22.6142 23.0888 22.0182L26.8701 18.9236C27.6044 18.3229 27.7118 17.2397 27.1116 16.5054C26.5113 15.7702 25.4276 15.6636 24.692 16.2639L22.2239 18.2834L20.552 16.2935C19.8885 15.5033 18.8667 15.0938 17.802 15.2051C16.7625 15.3117 15.8576 15.9042 15.3798 16.7915L13.2584 20.7459C12.253 22.6211 12.885 24.8868 14.7275 26.0633L16.653 27.5625H12.7188C11.7696 27.5625 11 28.3321 11 29.2812C11 30.2304 11.7696 31 12.7188 31H21.6562C23.1206 31 23.9667 29.1614 22.8714 28.0661L18.1509 23.3455L19.6462 20.5582L20.6839 21.7939Z" fill="black"/>
</g>
<defs>
<clipPath id="clip0_91_2780">
<rect width="16.5" height="22" fill="white" transform="translate(11 9)"/>
</clipPath>
</defs>
</svg>
