<svg width="20" height="20" viewBox="0 0 20 20" fill="none" xmlns="http://www.w3.org/2000/svg">
<path d="M9.98337 6.46968C9.04722 6.46968 8.14943 6.84156 7.48747 7.50351C6.82552 8.16546 6.45364 9.06326 6.45364 9.9994C6.45364 10.9355 6.82552 11.8333 7.48747 12.4953C8.14943 13.1572 9.04722 13.5291 9.98337 13.5291C10.9195 13.5291 11.8173 13.1572 12.4793 12.4953C13.1412 11.8333 13.5131 10.9355 13.5131 9.9994C13.5131 9.06326 13.1412 8.16546 12.4793 7.50351C11.8173 6.84156 10.9195 6.46968 9.98337 6.46968Z" fill="#333333"/>
<path fill-rule="evenodd" clip-rule="evenodd" d="M4.30323 0.313846C8.07843 -0.104615 11.8883 -0.104615 15.6635 0.313846C17.726 0.544093 19.3887 2.16777 19.6309 4.23781C20.0786 8.06583 20.0786 11.933 19.6309 15.761C19.3887 17.8311 17.726 19.4547 15.6646 19.6861C11.889 20.1046 8.07879 20.1046 4.30323 19.6861C2.24078 19.4547 0.578011 17.8311 0.335817 15.7621C-0.111939 11.9337 -0.111939 8.06619 0.335817 4.23781C0.578011 2.16777 2.24078 0.544093 4.30323 0.313846ZM15.4137 3.483C15.1257 3.483 14.8494 3.59742 14.6457 3.8011C14.4421 4.00478 14.3276 4.28102 14.3276 4.56907C14.3276 4.85711 14.4421 5.13336 14.6457 5.33703C14.8494 5.54071 15.1257 5.65514 15.4137 5.65514C15.7018 5.65514 15.978 5.54071 16.1817 5.33703C16.3854 5.13336 16.4998 4.85711 16.4998 4.56907C16.4998 4.28102 16.3854 4.00478 16.1817 3.8011C15.978 3.59742 15.7018 3.483 15.4137 3.483ZM4.82454 9.99941C4.82454 8.63121 5.36806 7.31904 6.33553 6.35157C7.303 5.3841 8.61516 4.84058 9.98337 4.84058C11.3516 4.84058 12.6637 5.3841 13.6312 6.35157C14.5987 7.31904 15.1422 8.63121 15.1422 9.99941C15.1422 11.3676 14.5987 12.6798 13.6312 13.6473C12.6637 14.6147 11.3516 15.1582 9.98337 15.1582C8.61516 15.1582 7.303 14.6147 6.33553 13.6473C5.36806 12.6798 4.82454 11.3676 4.82454 9.99941Z" fill="#333333"/>
</svg>
