<svg width="39" height="39" viewBox="0 0 39 39" fill="none" xmlns="http://www.w3.org/2000/svg">
<circle cx="19.5" cy="19.5" r="19.5" fill="#30DFCA"/>
<path d="M12.4311 11.5814C12.4481 11.3745 12.5442 11.1822 12.6994 11.0443C12.8547 10.9065 13.057 10.8338 13.2644 10.8414C13.4719 10.8489 13.6684 10.9362 13.8132 11.0849C13.9579 11.2337 14.0398 11.4325 14.0417 11.64V15.7595C14.0417 15.9115 14.1021 16.0572 14.2095 16.1647C14.317 16.2721 14.4627 16.3325 14.6146 16.3325C14.7666 16.3325 14.9123 16.2721 15.0197 16.1647C15.1272 16.0572 15.1875 15.9115 15.1875 15.7595V11.5209C15.1875 11.3385 15.26 11.1637 15.3889 11.0347C15.5178 10.9058 15.6927 10.8334 15.875 10.8334C16.0574 10.8334 16.2322 10.9058 16.3612 11.0347C16.4901 11.1637 16.5625 11.3385 16.5625 11.5209V15.7595C16.5625 15.9115 16.6229 16.0572 16.7303 16.1647C16.8378 16.2721 16.9835 16.3325 17.1355 16.3325C17.2874 16.3325 17.4331 16.2721 17.5406 16.1647C17.648 16.0572 17.7084 15.9115 17.7084 15.7595V11.64C17.7103 11.4325 17.7921 11.2337 17.9369 11.0849C18.0817 10.9362 18.2782 10.8489 18.4856 10.8414C18.6931 10.8338 18.8954 10.9065 19.0506 11.0443C19.2058 11.1822 19.3019 11.3745 19.319 11.5814C19.3584 12.1424 19.5417 14.8392 19.5417 16.3334C19.5417 17.5709 18.9275 18.6654 17.9907 19.3281C17.7927 19.4684 17.745 19.6169 17.7496 19.692C17.8624 21.4135 18.1667 26.1252 18.1667 26.8723C18.1667 27.4801 17.9253 28.063 17.4955 28.4927C17.0657 28.9225 16.4828 29.164 15.875 29.164C15.2673 29.164 14.6844 28.9225 14.2546 28.4927C13.8248 28.063 13.5834 27.4801 13.5834 26.8723C13.5834 26.1243 13.8877 21.4135 14.0005 19.692C14.005 19.6169 13.9574 19.4684 13.7594 19.3281C13.2801 18.9895 12.889 18.5408 12.6191 18.0197C12.3492 17.4985 12.2084 16.9202 12.2084 16.3334C12.2084 14.8392 12.3917 12.1424 12.4311 11.5814ZM20.9167 16.1042C20.9167 14.7063 21.472 13.3656 22.4605 12.3772C23.449 11.3887 24.7896 10.8334 26.1875 10.8334C26.3699 10.8334 26.5447 10.9058 26.6737 11.0347C26.8026 11.1637 26.875 11.3385 26.875 11.5209V19.3125C26.875 19.604 26.9722 21.0496 27.0813 22.651L27.0859 22.7271C27.205 24.4761 27.3334 26.3782 27.3334 26.8723C27.3334 27.4801 27.0919 28.063 26.6622 28.4927C26.2324 28.9225 25.6495 29.164 25.0417 29.164C24.4339 29.164 23.851 28.9225 23.4213 28.4927C22.9915 28.063 22.75 27.4801 22.75 26.8723C22.75 26.4011 22.8674 24.4789 22.981 22.7161C23.0379 21.826 23.0956 20.9635 23.1387 20.3236L23.1598 20H22.5209C22.3102 20 22.1016 19.9585 21.907 19.8779C21.7124 19.7973 21.5355 19.6792 21.3866 19.5302C21.2376 19.3812 21.1194 19.2044 21.0388 19.0098C20.9582 18.8151 20.9167 18.6065 20.9167 18.3959V16.1042Z" fill="black"/>
</svg>
