<svg width="17" height="13" viewBox="0 0 17 13" fill="none" xmlns="http://www.w3.org/2000/svg">
<path d="M13.7487 0.100006H2.54868C1.91216 0.100006 1.30171 0.352863 0.851625 0.80295C0.401538 1.25304 0.148682 1.86349 0.148682 2.50001V10.5C0.148682 11.1365 0.401538 11.747 0.851625 12.1971C1.30171 12.6472 1.91216 12.9 2.54868 12.9H13.7487C14.3852 12.9 14.9957 12.6472 15.4457 12.1971C15.8958 11.747 16.1487 11.1365 16.1487 10.5V2.50001C16.1487 1.86349 15.8958 1.25304 15.4457 0.80295C14.9957 0.352863 14.3852 0.100006 13.7487 0.100006ZM13.7487 1.70001L8.54868 5.27601C8.42707 5.34622 8.28911 5.38319 8.14868 5.38319C8.00825 5.38319 7.8703 5.34622 7.74868 5.27601L2.54868 1.70001H13.7487Z" fill="#D9022D"/>
</svg>
