<svg width="14" height="15" viewBox="0 0 14 15" fill="none" xmlns="http://www.w3.org/2000/svg">
<path d="M1.50069 0.500006C1.40917 0.499637 1.31847 0.517311 1.23378 0.552017C1.14909 0.586724 1.07207 0.637781 1.00712 0.702272C0.942178 0.766762 0.89058 0.84342 0.855279 0.927864C0.819978 1.01231 0.801667 1.10288 0.801392 1.19441V13.8056C0.802858 13.9894 0.876584 14.1653 1.00664 14.2952C1.1367 14.4252 1.31266 14.4987 1.49649 14.5H12.7063C12.7983 14.4994 12.8892 14.4806 12.974 14.4448C13.0587 14.409 13.1355 14.3568 13.2001 14.2913C13.2646 14.2257 13.3156 14.1481 13.3502 14.0629C13.3847 13.9776 13.4021 13.8864 13.4014 13.7944V4L9.90139 0.500006H1.50069ZM6.05139 4.35H7.45139C7.45139 6.093 8.95219 7.962 10.8226 8.5857L10.5027 9.943C8.30749 9.6294 6.03879 10.566 3.98989 11.9324L3.16389 10.8033C3.92409 10.195 4.65349 9.1632 5.19389 7.9571C5.73289 6.7559 6.05139 5.4539 6.05139 4.35ZM6.47139 8.5304C6.65829 8.1125 6.82419 7.6792 6.96419 7.2403C7.29862 7.75061 7.7003 8.21351 8.15839 8.6165C7.47099 8.7397 6.79829 8.942 6.14589 9.1996C6.26116 8.9798 6.36966 8.75674 6.47139 8.5304Z" fill="#D9022D"/>
</svg>
