<svg width="25" height="16" viewBox="0 0 25 16" fill="none" xmlns="http://www.w3.org/2000/svg">
<path d="M0.5 0H24.5V16H0.5V0ZM12.5 4C13.5609 4 14.5783 4.42143 15.3284 5.17157C16.0786 5.92172 16.5 6.93913 16.5 8C16.5 9.06087 16.0786 10.0783 15.3284 10.8284C14.5783 11.5786 13.5609 12 12.5 12C11.4391 12 10.4217 11.5786 9.67157 10.8284C8.92143 10.0783 8.5 9.06087 8.5 8C8.5 6.93913 8.92143 5.92172 9.67157 5.17157C10.4217 4.42143 11.4391 4 12.5 4ZM5.83333 2.66667C5.83333 3.37391 5.55238 4.05219 5.05229 4.55228C4.55219 5.05238 3.87391 5.33333 3.16667 5.33333V10.6667C3.87391 10.6667 4.55219 10.9476 5.05229 11.4477C5.55238 11.9478 5.83333 12.6261 5.83333 13.3333H19.1667C19.1667 12.6261 19.4476 11.9478 19.9477 11.4477C20.4478 10.9476 21.1261 10.6667 21.8333 10.6667V5.33333C21.1261 5.33333 20.4478 5.05238 19.9477 4.55228C19.4476 4.05219 19.1667 3.37391 19.1667 2.66667H5.83333Z" fill="white"/>
</svg>
