<svg width="39" height="39" viewBox="0 0 39 39" fill="none" xmlns="http://www.w3.org/2000/svg">
<circle cx="19.5" cy="19.5" r="19.5" fill="#30DFCA"/>
<g clip-path="url(#clip0_91_2778)">
<path fill-rule="evenodd" clip-rule="evenodd" d="M11.606 11.447L11.836 11.909L9.68597 14.919C9.54852 15.1116 9.48384 15.3468 9.50343 15.5826C9.52303 15.8184 9.62562 16.0397 9.79297 16.207L11.293 17.707C11.4414 17.8553 11.6327 17.9531 11.8398 17.9867C12.0469 18.0202 12.2593 17.9878 12.447 17.894L13.701 17.268L14.393 18.19L12.323 24.816L12.153 24.686C12.0026 24.5689 11.859 24.4434 11.723 24.31C11.5391 24.1234 11.2893 24.0164 11.0273 24.012C10.7653 24.0077 10.5121 24.1064 10.3221 24.2868C10.1321 24.4672 10.0205 24.715 10.0113 24.9768C10.0021 25.2387 10.0961 25.4937 10.273 25.687L10.909 26.252C11.306 26.567 11.889 26.977 12.657 27.384C14.2 28.2 16.483 29 19.5 29C22.517 29 24.801 28.2 26.343 27.384C26.959 27.0608 27.5441 26.6819 28.091 26.252C28.245 26.129 28.746 25.67 28.727 25.687C28.8961 25.509 28.9939 25.2751 29.0017 25.0297C29.0095 24.7843 28.9267 24.5446 28.7692 24.3563C28.6116 24.168 28.3903 24.0443 28.1474 24.0086C27.9045 23.9729 27.657 24.0279 27.452 24.163L26.422 19.012C26.945 19.501 27.51 20.257 28.106 21.447C28.1621 21.5686 28.2421 21.6776 28.3413 21.7677C28.4404 21.8578 28.5566 21.927 28.6829 21.9713C28.8093 22.0156 28.9433 22.0341 29.077 22.0256C29.2106 22.0172 29.3412 21.9819 29.461 21.922C29.5808 21.8622 29.6873 21.7788 29.7743 21.677C29.8612 21.5751 29.9269 21.4568 29.9672 21.3291C30.0076 21.2015 30.022 21.067 30.0094 20.9336C29.9968 20.8003 29.9575 20.6709 29.894 20.553C28.838 18.44 27.708 17.236 26.447 16.606C25.39 16.077 24.34 16.01 23.45 16H19.758C19.658 15.6972 19.5449 15.3989 19.419 15.106C19.01 14.152 18.322 12.908 17.207 11.793C16.048 10.634 14.854 10.17 13.914 10.013C13.5371 9.95045 13.1542 9.93132 12.773 9.95598C12.66 9.96398 12.323 10.013 12.257 10.03C12.1118 10.0664 11.9767 10.135 11.8616 10.2306C11.7464 10.3262 11.6542 10.4464 11.5918 10.5824C11.5293 10.7184 11.4981 10.8667 11.5006 11.0163C11.503 11.1659 11.5391 11.3131 11.606 11.447ZM22.326 26.715L21.306 24H18.692L17.613 26.876C18.198 26.955 18.826 27 19.499 27C20.548 27 21.489 26.89 22.324 26.715H22.326Z" fill="black"/>
</g>
<defs>
<clipPath id="clip0_91_2778">
<rect width="24" height="24" fill="white" transform="translate(8 8)"/>
</clipPath>
</defs>
</svg>
