<svg width="17" height="17" viewBox="0 0 17 17" fill="none" xmlns="http://www.w3.org/2000/svg">
<path d="M8.29997 0.5C3.87827 0.5 0.297241 4.08103 0.297241 8.49727C0.297241 12.919 3.87827 16.5 8.29997 16.5C12.7162 16.5 16.3027 12.919 16.3027 8.49727C16.2972 4.08103 12.7162 0.5 8.29997 0.5ZM8.29997 14.906C4.76261 14.906 1.89124 12.0346 1.89124 8.49727C1.89124 4.95991 4.76261 2.08854 8.29997 2.08854C11.8373 2.08854 14.7087 4.95445 14.7087 8.49727C14.7032 12.0401 11.8373 14.906 8.29997 14.906Z" fill="#D9022D"/>
<path d="M13.5296 6.3683C13.5296 6.3683 13.2021 6.36284 13.0274 6.26458C12.9073 6.19362 12.7544 6.05169 12.6944 6.00256C12.6289 5.95343 12.3668 5.7842 12.2522 5.73507C12.1376 5.68594 11.9083 5.70232 11.8264 5.72415C11.75 5.74599 11.3788 5.64773 11.2478 5.64773C11.1168 5.64773 11.1058 5.54947 11.1058 5.54947C11.0021 5.36933 10.8056 5.28198 10.68 5.2001C10.56 5.11822 10.2433 5.14005 9.87213 5.06363C9.50639 4.9872 9.58827 4.86165 9.56643 4.77977C9.53914 4.70334 9.58827 4.55049 9.4518 4.44677C9.31532 4.34305 9.27165 4.07011 9.21706 3.87359C9.16248 3.67707 8.96596 3.77533 8.91137 3.87359C8.85132 3.97185 8.75852 4.25571 8.70393 4.30484C8.64934 4.35943 8.49103 4.28847 8.36548 4.30484C8.23992 4.32122 8.33818 4.26117 8.21263 4.23934C8.08707 4.21204 8.03249 4.2175 7.90147 4.21204C7.77046 4.20658 7.78138 4.38127 7.64491 4.42494C7.50843 4.47407 7.4593 4.4304 7.30099 4.47407C7.14269 4.51774 7.02259 4.63783 6.8752 4.54503C6.72781 4.45769 6.78786 4.0974 6.82607 3.96639C6.86974 3.83538 6.84791 3.52968 6.67322 3.48601C6.49854 3.44234 6.39482 3.58973 6.35115 3.61156C6.30748 3.6334 6.01816 3.78625 5.88168 3.79717C5.74521 3.81354 5.61966 3.76987 5.47773 3.7262C5.3358 3.68253 5.34125 3.79717 5.34125 3.819C5.34125 3.84084 5.59236 4.25025 5.59236 4.34851C5.59236 4.44677 5.41768 4.58325 5.41768 4.58325C5.41768 4.58325 5.13382 4.73609 4.92092 4.65421C4.70802 4.57233 4.75715 4.4031 4.69711 4.35943C4.6316 4.31576 4.50604 4.4031 4.446 4.41402C4.39141 4.42494 4.07479 4.45223 4.0202 4.45223C3.96561 4.45223 3.94924 4.50136 3.94924 4.56141C3.94924 4.62692 3.8619 4.88348 3.88373 4.94353C3.91103 5.00358 3.98199 5.15643 4.03658 5.24923C4.09117 5.33657 4.01474 5.44029 4.01474 5.49488C4.01474 5.54947 3.93286 6.06806 3.93286 6.06806C3.57803 6.06806 3.23958 6.28096 3.12495 6.3683C3.01577 6.45018 3.02123 6.72313 2.95026 6.78318C2.88475 6.83777 2.82471 6.97424 2.82471 7.13255C2.82471 7.29085 2.91205 7.2854 2.98847 7.39457C3.05944 7.50375 3.05944 7.54742 3.13586 7.62385C3.21229 7.70027 3.21229 7.70027 3.32692 7.77669C3.4361 7.84766 3.70359 7.76032 3.71996 7.75486C3.71451 7.77124 3.62716 8.06602 3.8619 8.08239C4.24402 8.10969 4.40778 8.04418 4.70256 7.86404C4.99734 7.67843 5.13928 7.73848 5.17749 7.74394C5.22116 7.7494 5.17203 7.92954 5.22662 8.20795C5.28121 8.49181 5.47227 8.46452 5.57599 8.50273C5.67971 8.54094 5.73975 8.50273 5.83255 8.57369C5.92536 8.64466 6.14371 8.76475 6.37298 8.79751C6.60226 8.83026 6.5695 8.90123 6.58042 9.02678C6.59134 9.15233 6.60226 9.5017 6.6896 9.53446C6.77694 9.56721 6.85882 9.53446 6.92979 9.53446C7.00076 9.53446 7.07718 9.5945 7.07718 9.5945C7.14815 9.76373 7.19728 9.81832 7.2737 9.90566C7.35012 9.98754 7.29008 10.1786 7.22457 10.3424C7.15906 10.5116 7.23003 10.6699 7.22457 10.8337C7.21911 10.9974 7.28462 11.1776 7.28462 11.1776C7.55756 11.254 7.61215 11.2213 7.73771 11.2158C7.99427 11.2103 7.83597 11.3959 7.89055 11.5379C7.94514 11.6798 8.05978 11.658 8.16896 11.6907C8.27814 11.7235 8.20171 11.9637 8.14166 12.0401C8.08162 12.1165 8.33818 12.122 8.33818 12.122C8.33818 12.122 8.58383 12.3785 8.17988 12.586C7.77592 12.7934 7.80321 12.9353 7.49751 13.1428C7.19182 13.3502 7.31191 13.3884 7.31191 13.3884C7.31191 13.3884 7.54119 13.4157 7.66674 13.514C7.79229 13.6122 7.90147 13.6614 8.11437 13.7651C8.32181 13.8688 8.49649 14.0708 8.49649 14.0708C8.49649 14.0708 8.39277 14.371 8.562 14.371C8.73122 14.371 8.80765 14.1636 8.80765 14.1636C8.80765 14.1636 9.03146 13.8415 9.2389 13.7542C9.44634 13.6614 9.37537 13.3448 9.70291 13.0718C10.0304 12.7989 9.93218 12.5532 9.93218 12.5532C9.92672 12.4823 9.95947 12.2257 9.96493 12.1711C9.97039 12.1165 10.3743 11.718 10.5108 11.6743C10.6418 11.6307 10.7456 11.6307 10.8384 11.5761C10.9312 11.5215 11.1877 11.4505 11.5371 11.4014C11.8865 11.3523 11.8428 11.2049 11.8974 11.194C11.952 11.1776 12.0175 10.8883 12.0175 10.8883C12.0175 10.8883 12.3505 10.6426 12.3614 10.4898C12.3668 10.3369 12.3395 10.064 12.416 10.0531C12.4924 10.0367 12.5634 9.73098 12.5688 9.21784C12.5743 8.70471 12.5907 8.69379 12.6835 8.67741C12.7708 8.65558 13.0164 8.23524 13.082 8.1479C13.1147 8.10423 13.3385 7.91863 13.4859 7.73302C13.6333 7.55834 13.7043 7.37274 13.7043 7.37274C13.8462 6.89236 13.5296 6.3683 13.5296 6.3683ZM11.6626 8.74838C10.4726 7.66752 9.61556 7.5365 9.61556 7.5365C9.30987 9.43074 9.74658 11.4232 9.74658 11.4232C9.22252 11.7016 8.85678 12.5587 8.85678 12.5587C8.57292 11.3031 8.91683 7.29085 8.91683 7.29085C8.10891 7.09979 7.08264 7.23081 7.08264 7.23081C6.9953 6.70675 6.51492 6.11719 6.51492 6.11719C8.52925 5.96434 11.6626 7.70027 11.6626 7.70027V8.74838Z" fill="#D9022D"/>
</svg>
