<svg width="251" height="252" viewBox="0 0 251 252" fill="none" xmlns="http://www.w3.org/2000/svg">
<g clip-path="url(#clip0_108_2850)">
<path d="M125.2 303.3C223.01 303.3 302.3 223.741 302.3 125.6C302.3 27.459 223.01 -52.1 125.2 -52.1C27.3905 -52.1 -51.8999 27.459 -51.8999 125.6C-51.8999 223.741 27.3905 303.3 125.2 303.3Z" fill="white"/>
<path d="M67.6002 188.4C67.5002 188.4 67.5002 188.5 67.5002 188.5H67.6002C67.6002 188.4 67.6002 188.4 67.6002 188.4Z" fill="black"/>
<path d="M72.5002 188.4V188.5H72.6002C72.6002 188.4 72.6002 188.4 72.5002 188.4C72.6002 188.4 72.6002 188.4 72.5002 188.4Z" fill="black"/>
<path d="M67.6002 183.6C67.6002 185.2 67.6002 186.8 67.6002 188.3C69.2002 188.3 70.9002 188.3 72.5002 188.3C72.5002 186.8 72.5002 185.3 72.5002 183.6C75.8002 183.6 79.0002 183.6 82.4002 183.6C82.5002 185 82.6002 186.5 82.8002 188.2C84.3002 188.2 85.8002 188.2 87.7002 188.2C87.7002 181.5 87.7002 174.9 87.7002 168.4C89.3002 168.4 91.0002 168.4 92.6002 168.4C92.6002 170 92.6002 171.6 92.6002 173.3C94.6002 173.3 96.1002 173.3 97.6002 173.3C97.6002 171.7 97.7002 170 97.7002 168.4C104.3 168.4 110.9 168.4 117.6 168.4C117.6 166.4 117.6 164.9 117.6 163.4C112.7 163.4 107.8 163.4 102.9 163.4C102.9 159.7 102.9 156.6 102.9 153.3C104.6 153.3 106.1 153.3 107.6 153.3C107.6 154.9 107.6 156.5 107.6 158C109.6 158 111 158 112.7 158C112.7 156.3 112.7 154.8 112.7 153.3C116 153.3 119.2 153.3 122.7 153.3C122.7 151.3 122.7 149.8 122.7 148.3C124.3 148.3 126 148.2 127.6 148.2C127.6 146.7 127.6 145.2 127.6 143.5C129.3 143.4 130.8 143.2 132.6 143.1C132.6 141.5 132.6 139.9 132.6 138.3C129.3 138.3 126.1 138.3 122.6 138.3C122.6 141.9 122.6 145.1 122.6 148.2C119.3 148.2 116.1 148.2 112.6 148.2C112.6 150.2 112.6 151.7 112.6 153.2C111 153.2 109.3 153.2 107.7 153.2C107.7 151.6 107.7 150 107.7 148.4C105.7 148.2 104.3 148.1 102.7 148C102.6 146.3 102.6 144.9 102.5 143.4C99.2002 143.4 96.0002 143.4 92.8002 143.4C92.8002 145.1 92.8002 146.5 92.8002 148.1C94.5002 148.3 96.0002 148.4 97.5002 148.5C97.5002 155.3 97.5002 161.8 97.5002 168.3C95.9002 168.3 94.2002 168.3 92.6002 168.3C92.6002 166.7 92.6002 165.1 92.6002 163.6C90.6002 163.6 89.2002 163.6 87.5002 163.6C87.5002 165.3 87.5002 166.8 87.5002 168.3C82.7002 168.3 77.8002 168.3 72.7002 168.3C72.6002 170.1 72.5002 171.7 72.5002 173.3C71.0002 173.3 69.5002 173.3 67.8002 173.3C67.7002 175 67.5002 176.5 67.4002 178.2C65.9002 178.2 64.4002 178.2 62.7002 178.2C62.7002 173.4 62.7002 168.6 62.7002 163.5C67.4002 163.5 72.2002 163.5 77.3002 163.5C77.3002 161.7 77.3002 160.2 77.3002 158.5C75.9002 158.4 74.4002 158.3 72.6002 158.1C72.6002 153.1 72.6002 148.2 72.6002 143.3C74.3002 143.2 76.0002 143.1 77.6002 143.1C77.6002 139.9 77.6002 136.6 77.6002 133.1C81.2002 133.1 84.3002 133.1 87.6002 133.1C87.6002 131.3 87.6002 129.8 87.6002 128.3C89.3002 128.2 91.0002 128.1 92.6002 128.1C92.6002 126.5 92.5002 124.9 92.5002 123.3C90.9002 123.3 89.2002 123.3 87.6002 123.3C87.6002 124.9 87.5002 126.6 87.5002 128.2C80.9002 128.2 74.4002 128.2 67.7002 128.2C67.7002 131.8 67.7002 134.9 67.7002 138.1C69.4002 138.2 70.9002 138.4 72.4002 138.5C72.4002 140.2 72.4002 141.7 72.4002 143.2C65.8002 143.2 59.2002 143.2 52.5002 143.2C52.5002 145.1 52.5002 146.6 52.5002 148.1C47.6002 148.1 42.7002 148.1 37.6002 148.1C37.6002 146.6 37.6002 145.2 37.6002 143.5C40.7002 143.5 43.8002 143.5 47.3002 143.5C47.3002 140 47.3002 136.9 47.3002 133.2C49.2002 133.2 50.8002 133.2 52.4002 133.2C52.4002 131.7 52.4002 130.2 52.4002 128.3C55.8002 128.3 58.9002 128.3 62.4002 128.3C62.4002 126.4 62.4002 124.8 62.4002 123.2C59.2002 123.2 56.1002 123.2 52.5002 123.2C52.5002 121.3 52.5002 119.8 52.5002 118.2C54.1002 118.2 55.7002 118.2 57.5002 118.2C57.5002 116.2 57.5002 114.7 57.5002 113.2C59.1002 113.2 60.7002 113.2 62.5002 113.2C62.5002 111.2 62.5002 109.7 62.5002 108.2C64.1002 108.2 65.8002 108.1 67.4002 108.1C67.4002 104.9 67.4002 101.7 67.4002 98.2C69.2002 98.2 70.8002 98.2 72.4002 98.2C72.4002 99.8 72.4002 101.4 72.4002 103.3C76.0002 103.3 79.1002 103.3 82.3002 103.3C82.5002 105.1 82.6002 106.6 82.7002 108C86.1002 108 89.2002 108 92.5002 108C92.5002 106.3 92.5002 104.8 92.5002 103.3C94.1002 103.3 95.7002 103.3 97.3002 103.3C97.5002 101.3 97.6002 99.8 97.7002 98.4C99.5002 98.2 100.9 98.1 102.3 98C102.3 96.3 102.3 94.9 102.3 93.4C100.7 93.3 99.2002 93.2 97.6002 93C97.5002 91.3 97.3002 89.8 97.2002 88.1C95.5002 88.1 94.0002 88.1 92.5002 88.1C92.5002 86.5 92.5002 84.9 92.5002 83.4C87.2002 83.4 82.4002 83.4 77.4002 83.4C77.4002 85.1 77.4002 86.6 77.4002 88.1C72.6002 88.1 67.8002 88.1 62.7002 88.1C62.6002 86.5 62.4002 85 62.3002 83.2C59.0002 83.2 55.8002 83.2 52.5002 83.2C52.5002 84.8 52.5002 86.4 52.5002 88C54.3002 88.2 55.8002 88.3 57.2002 88.4C57.2002 90.1 57.2002 91.6 57.2002 93.4C53.8002 93.4 50.7002 93.4 47.5002 93.4C47.5002 95.2 47.5002 96.7 47.5002 98.2C52.3002 98.2 57.2002 98.2 62.4002 98.2C62.4002 101.7 62.4002 105 62.4002 108.3C60.8002 108.3 59.1002 108.3 57.5002 108.3C57.5002 106.8 57.5002 105.3 57.5002 103.4C54.1002 103.4 51.0002 103.4 47.4002 103.4C47.4002 101.5 47.4002 99.9 47.4002 98.3C45.8002 98.3 44.3002 98.3 42.6002 98.3C42.4002 100.1 42.3002 101.6 42.2002 103.1C40.5002 103.2 39.0002 103.4 37.6002 103.5C37.5002 105.2 37.3002 106.7 37.2002 108.4C35.5002 108.4 34.0002 108.4 32.5002 108.4C32.5002 111.7 32.5002 114.9 32.5002 118.3C34.4002 118.3 35.9002 118.3 37.4002 118.3C37.4002 116.8 37.4002 115.3 37.4002 113.6C39.1002 113.5 40.6002 113.3 42.3002 113.2C42.4002 111.7 42.5002 110.2 42.6002 108.5C44.2002 108.5 45.6002 108.5 47.3002 108.5C47.4002 109.9 47.5002 111.4 47.7002 113.4C49.3002 113.4 50.9002 113.4 52.5002 113.4C52.5002 115 52.5002 116.7 52.5002 118.3C47.5002 118.3 42.5002 118.4 37.6002 118.4C37.6002 120 37.6002 121.6 37.6002 123.2C39.4002 123.4 40.9002 123.5 42.3002 123.6C42.3002 125.4 42.3002 126.8 42.3002 128.3C40.6002 128.4 39.3002 128.5 37.5002 128.6C37.5002 131.9 37.5002 135.1 37.5002 138.3C35.7002 138.3 34.2002 138.3 32.4002 138.3C32.4002 134.9 32.4002 131.8 32.4002 128.5C30.6002 128.5 29.1002 128.5 27.6002 128.5C27.6002 130.1 27.6002 131.7 27.6002 133.5C25.7002 133.5 24.3002 133.5 22.7002 133.5C22.7002 138.6 22.7002 143.4 22.7002 148.4C24.3002 148.5 25.8002 148.6 27.3002 148.7C27.3002 150.4 27.3002 151.9 27.3002 153.4C25.6002 153.6 24.1002 153.7 22.7002 153.8C22.7002 155.5 22.7002 156.9 22.7002 158.4C24.3002 158.5 25.8002 158.7 27.4002 158.8C27.5002 160.5 27.7002 162 27.8002 163.5C29.5002 163.6 30.9002 163.6 32.4002 163.7C32.4002 165.4 32.4002 166.9 32.4002 168.7C29.1002 168.7 25.9002 168.7 22.8002 168.7C22.8002 175.6 22.8002 182.1 22.8002 188.5C24.5002 188.5 25.8002 188.5 27.6002 188.5C27.6002 183.5 27.6002 178.7 27.6002 173.9C29.4002 173.9 30.9002 173.9 32.7002 173.9C32.7002 177.3 32.7002 180.4 32.7002 183.6C34.5002 183.7 35.9002 183.8 37.3002 183.9C37.5002 185.6 37.6002 187.1 37.7002 188.5C39.4002 188.5 40.9002 188.5 42.4002 188.5C42.5002 186.8 42.5002 185.5 42.6002 183.9C44.3002 183.9 45.8002 183.9 47.3002 183.9C47.4002 185.6 47.6002 187.1 47.7002 188.7C52.8002 188.7 57.6002 188.7 62.4002 188.7C62.4002 187.2 62.4002 185.7 62.4002 184C64.2002 183.6 65.7002 183.6 67.6002 183.6ZM82.3002 173.4C82.3002 175 82.3002 176.5 82.3002 178.2C79.2002 178.2 76.1002 178.2 72.6002 178.2C72.6002 176.6 72.6002 175 72.6002 173.4C75.8002 173.4 78.9002 173.4 82.3002 173.4ZM77.7002 92.7C77.7002 91.1 77.7002 89.5 77.7002 87.9C79.3002 87.9 80.8002 87.9 82.5002 87.9C82.7002 89.7 82.8002 91.2 82.9002 92.6C84.6002 92.6 86.1002 92.6 87.5002 92.6C87.6002 90.9 87.8002 89.4 87.9002 87.9C89.7002 87.9 91.1002 87.9 92.6002 87.9C92.6002 92.9 92.6002 97.9 92.6002 102.9C91.0002 102.9 89.4002 102.9 87.8002 102.9C87.6002 101 87.5002 99.6 87.4002 97.9C82.3002 97.9 77.5002 97.9 72.7002 97.9C72.7002 96.4 72.7002 94.9 72.7002 93.2C74.2002 93 75.7002 92.9 77.7002 92.7ZM57.5002 108.1C57.5002 109.7 57.5002 111.4 57.5002 113C55.9002 113 54.2002 113 52.6002 113C52.6002 111.5 52.6002 109.9 52.6002 108.1C54.4002 108.1 56.0002 108.1 57.5002 108.1ZM42.3002 178.2C40.8002 178.2 39.4002 178.2 37.8002 178.2C37.8002 176.8 37.8002 175.3 37.8002 173.6C39.2002 173.6 40.7002 173.6 42.3002 173.6C42.3002 175.1 42.3002 176.5 42.3002 178.2ZM57.5002 153.2C55.9002 153.2 54.2002 153.2 52.6002 153.2C52.6002 151.5 52.7002 149.8 52.7002 148.1C54.2002 148.1 55.7002 148.1 57.5002 148.1C57.5002 150 57.5002 151.6 57.5002 153.2ZM42.8002 158.2C42.8002 156.6 42.8002 155.1 42.8002 153.3C46.0002 153.3 49.3002 153.3 52.5002 153.3C52.5002 154.9 52.5002 156.6 52.5002 158.2C49.3002 158.2 46.2002 158.2 42.8002 158.2ZM57.3002 183.2C55.9002 183.2 54.4002 183.2 52.6002 183.2C52.6002 181.6 52.6002 180 52.6002 178.4C54.1002 178.4 55.6002 178.4 57.3002 178.4C57.3002 180 57.3002 181.4 57.3002 183.2ZM57.4002 173.1C56.0002 173.2 54.5002 173.3 52.5002 173.5C52.5002 175.1 52.5002 176.7 52.5002 178.3C51.0002 178.3 49.5002 178.3 47.8002 178.3C47.8002 175 47.8002 171.9 47.8002 168.5C51.0002 168.5 54.1002 168.5 57.4002 168.5C57.4002 170 57.4002 171.4 57.4002 173.1ZM52.6002 163C52.6002 161.4 52.6002 159.8 52.6002 158.3C54.2002 158.3 55.9002 158.3 57.5002 158.3C57.5002 159.8 57.5002 161.3 57.5002 163C55.9002 163 54.5002 163 52.6002 163ZM62.3002 158.2C60.7002 158.2 59.2002 158.2 57.6002 158.2C57.6002 156.6 57.6002 154.9 57.6002 153.3C59.1002 153.3 60.6002 153.3 62.3002 153.3C62.3002 154.9 62.3002 156.3 62.3002 158.2Z" fill="black"/>
<path d="M27.5002 128.2H27.6002V128.1L27.5002 128.2Z" fill="black"/>
<path d="M52.6002 133.1H52.5002V133.2L52.6002 133.1Z" fill="black"/>
<path d="M62.5002 123V123.1H62.6002L62.5002 123Z" fill="black"/>
<path d="M157.8 52.7H157.7V52.8C157.7 52.8 157.8 52.8 157.8 52.7Z" fill="black"/>
<path d="M172.8 52.7H172.7V52.8L172.8 52.7Z" fill="black"/>
<path d="M217.9 188.3H217.8V188.4L217.9 188.3Z" fill="black"/>
<path d="M208.1 203.5C208.1 201.5 208.1 200.1 208.1 198.6C209.8 198.4 211.3 198.3 212.7 198.2C212.7 196.5 212.7 195.1 212.7 193.6C211.1 193.5 209.6 193.4 208.1 193.3C208.1 191.6 208.1 190.1 208.1 188.4C211.5 188.4 214.7 188.4 217.8 188.4C217.8 186.8 217.8 185.1 217.8 183.5C214.5 183.5 211.3 183.5 207.8 183.5C207.8 178.1 207.8 173.3 207.8 168.4C206.2 168.4 204.5 168.4 202.9 168.4C202.9 173.3 202.9 178.1 202.9 183.4C194.4 183.4 186.1 183.4 177.9 183.4C177.9 180.1 177.9 176.8 177.9 173.5C179.5 173.5 181.1 173.5 182.8 173.5C182.8 171.5 182.8 170 182.8 168.5C181.2 168.5 179.5 168.5 177.9 168.5C177.9 170.1 177.8 171.8 177.8 173.4C169.6 173.4 161.3 173.4 153 173.4C153 175.3 153 176.8 153 178.3C154.7 178.4 156.2 178.6 158 178.7C158 182.1 158 185.2 158 188.3C159.8 188.3 161.1 188.3 162.9 188.3C162.9 185 162.9 181.8 162.9 178.7C166.4 178.7 169.6 178.7 172.8 178.7C172.8 180.4 172.8 181.9 172.8 183.4C171.2 183.4 169.6 183.4 168.1 183.4C168.1 185.4 168.1 186.8 168.1 188.5C169.8 188.5 171.3 188.5 172.8 188.5C172.8 190.1 172.8 191.7 172.8 193.5C174.8 193.5 176.3 193.5 177.8 193.5C177.8 196.8 177.8 200.1 177.8 203.4C171.2 203.4 164.5 203.4 157.9 203.4C157.9 201.8 157.9 200.2 157.9 198.6C159.7 198.4 161.2 198.3 162.6 198.2C162.6 196.5 162.6 195 162.6 193.3C159.2 193.3 156 193.3 152.9 193.3C152.9 190.1 152.9 186.9 152.9 183.5C151.2 183.5 149.7 183.5 148 183.5C147.9 185 147.8 186.5 147.7 188.1C146.1 188.1 144.7 188.1 143 188.1C142.9 186.7 142.8 185.2 142.6 183.2C141 183.2 139.4 183.2 137.8 183.2C137.8 179.9 137.7 176.6 137.7 173.3C136.1 173.3 134.4 173.3 132.8 173.3C132.8 174.8 132.8 176.3 132.8 178.3C131 178.3 129.4 178.3 127.8 178.3C127.8 179.9 127.7 181.6 127.7 183.2C126.1 183.2 124.5 183.2 122.7 183.2C122.7 185.2 122.7 186.7 122.7 188.2C121.1 188.2 119.5 188.2 117.7 188.2C117.7 190.2 117.7 191.7 117.7 193.2C116.1 193.2 114.5 193.2 112.6 193.2C112.6 196.9 112.6 200 112.6 203.1C109.1 203.1 106.1 203.1 103 203.1C103 201.4 103 200 103 198.4C104.7 198.3 106.2 198.1 107.6 198C107.6 196.3 107.6 194.9 107.6 193.4C102.6 193.4 97.8003 193.4 93.0003 193.4C93.0003 195.1 93.0003 196.6 93.0003 198C94.7003 198.2 96.2003 198.3 97.6003 198.4C97.6003 200.1 97.6003 201.5 97.6003 203C95.9003 203.1 94.4003 203.3 92.7003 203.4C92.7003 205.1 92.7003 206.6 92.7003 208.1C91.1003 208.1 89.4003 208.1 87.8003 208.1C87.8003 206.5 87.8003 204.9 87.8003 203.1C85.8003 203.1 84.3003 203.1 82.8003 203.1C82.8003 201.5 82.7003 199.8 82.7003 198.2C81.2003 198.2 79.7003 198.2 77.9003 198.2C77.9003 194.8 77.9003 191.7 77.9003 188.1C76.0003 188.1 74.4003 188.1 72.8003 188.1C72.8003 189.6 72.8003 191.1 72.8003 192.8C71.1003 192.8 69.6003 192.8 67.7003 192.8C67.7003 191.2 67.7003 189.6 67.7003 188.1C66.1003 188.1 64.4003 188.1 62.8003 188.1C62.8003 191.4 62.8003 194.6 62.8003 198.2C66.3003 198.2 69.5003 198.2 72.8003 198.2C72.8003 200.1 72.8003 201.6 72.8003 203.1C76.1003 203.1 79.4003 203.2 82.7003 203.2C82.7003 204.8 82.7003 206.4 82.7003 208.2C84.7003 208.2 86.2003 208.2 87.7003 208.2C87.7003 209.8 87.8003 211.5 87.8003 213.1C89.4003 213.1 91.1003 213.1 92.7003 213.1C92.7003 211.5 92.8003 209.8 92.8003 208.2C101.1 208.2 109.3 208.2 117.9 208.2C117.9 202.8 117.9 198 117.9 193.1C119.5 193.1 121.1 193.1 122.9 193.1C122.9 191.1 122.9 189.6 122.9 188.1C124.5 188.1 126.1 188.1 127.9 188.1C127.9 186.1 127.9 184.6 127.9 183.1C131.2 183.1 134.5 183.1 137.8 183.1C137.8 184.6 137.8 186.1 137.8 187.9C136.2 188 134.8 188.1 133.1 188.3C133 189.8 132.8 191.3 132.7 193C131.2 193.1 129.7 193.2 127.8 193.3C127.8 198.3 127.8 203.2 127.8 208.2C126.2 208.2 124.6 208.2 123.1 208.2C123.1 210.2 123.1 211.6 123.1 213.3C124.8 213.3 126.3 213.3 127.8 213.3C127.8 214.8 127.8 216.3 127.8 218.3C124.4 218.3 121.1 218.3 117.9 218.3C117.9 219.9 117.9 221.5 117.9 223.1C119.8 223.3 121.2 223.4 122.7 223.5C122.9 225.3 123 226.8 123.1 228.1C124.8 228.1 126.2 228.1 127.7 228.1C127.8 226.4 128 225 128.1 223.4C129.8 223.2 131.3 223.1 132.9 223C132.9 219.6 132.9 216.4 132.9 213.2C131.3 213.2 129.6 213.1 128 213.1C128 211.5 128 209.8 128 208.2C129.5 208.2 131.1 208.2 133 208.2C133 210 133 211.6 133 213.1C137.9 213.1 142.8 213.1 147.8 213.1C148 215 148.1 216.5 148.2 218.1C149.9 218.1 151.4 218.1 152.9 218.1C152.9 213.1 153 208.1 153 203.1C154.6 203.1 156.3 203.1 157.9 203.1C157.9 204.7 157.9 206.3 157.9 207.8C164.9 207.8 171.4 207.8 178 207.8C178 206.1 178 204.6 178 203.1C179.5 203.1 181 203.1 182.7 203.1C182.7 205 182.7 205.7 182.8 207.8C184.3 207.9 186.4 207.8 188.1 208C188.2 209.5 188 211.2 188.2 213C189.8 213 191.4 213 193 213C193 211.5 193 210 193 208.3C194.7 208.3 196.2 208.3 198.1 208.3C198.1 209.9 198.1 211.4 198.1 213C199.7 213 201.4 213 203 213C203.1 211.4 203.1 209.8 203.2 208C208.3 208 213.2 208 218 208C218 206.4 218 204.7 218 203.1C214.6 203.5 211.3 203.5 208.1 203.5ZM177.7 188.4C176.1 188.4 174.4 188.4 172.8 188.4C172.8 186.8 172.8 185.1 172.8 183.5C174.4 183.5 176.1 183.5 177.7 183.5C177.8 185.1 177.8 186.7 177.7 188.4ZM143 203.4C142.8 205.1 142.7 206.6 142.6 208.3C141.1 208.3 139.7 208.3 138 208.3C137.9 206.9 137.7 205.5 137.6 203.7C136.2 203.6 134.7 203.5 133 203.3C133 201.7 133 200.3 133 198.6C134.5 198.5 135.9 198.5 137.6 198.4C137.7 196.9 137.9 195.4 138 193.5C142.9 193.5 147.9 193.5 152.8 193.5C152.8 196.8 152.8 200.1 152.8 203.5C149.5 203.4 146.4 203.4 143 203.4ZM182.6 193.4C181 193.4 179.5 193.4 177.9 193.4C177.9 191.8 177.9 190.1 177.9 188.5C179.4 188.5 180.9 188.5 182.6 188.5C182.6 190 182.6 191.5 182.6 193.4ZM202.7 203.2C198 203.2 193.2 203.2 188 203.2C188 198.3 188 193.6 188 188.6C192.9 188.6 197.7 188.6 202.7 188.6C202.7 193.5 202.7 198.2 202.7 203.2Z" fill="black"/>
<path d="M217.8 183.3V183.4H217.9L217.8 183.3Z" fill="black"/>
<path d="M217.8 208.5V208.6H217.9C217.9 208.5 217.9 208.5 217.8 208.5C217.9 208.5 217.9 208.5 217.8 208.5Z" fill="black"/>
<path d="M57.3002 22.9C45.6002 22.9 34.1002 22.9 22.7002 22.9C22.7002 34.6 22.7002 46 22.7002 57.6C34.3002 57.6 45.7002 57.6 57.3002 57.6C57.3002 45.8 57.3002 34.3 57.3002 22.9ZM52.4002 52.4C44.3002 52.4 36.2002 52.4 27.8002 52.4C27.8002 44.3 27.8002 36.2 27.8002 27.7C36.1002 27.7 44.2002 27.7 52.4002 27.7C52.4002 36 52.4002 44.1 52.4002 52.4Z" fill="black"/>
<path d="M22.8003 228.3C34.5003 228.3 46.0003 228.3 57.5003 228.3C57.5003 216.7 57.5003 205.3 57.5003 193.6C45.7003 193.6 34.2003 193.6 22.8003 193.6C22.8003 205.4 22.8003 216.9 22.8003 228.3ZM27.6003 198.7C35.8003 198.7 43.9003 198.7 52.3003 198.7C52.3003 206.8 52.3003 214.9 52.3003 223.3C44.2003 223.3 36.0003 223.3 27.6003 223.3C27.6003 215 27.6003 207 27.6003 198.7Z" fill="black"/>
<path d="M193.1 22.8C193.1 34.5 193.1 46.1 193.1 57.5C204.8 57.5 216.3 57.5 227.8 57.5C227.8 45.9 227.8 34.5 227.8 22.8C216 22.8 204.6 22.8 193.1 22.8ZM222.7 52.5C214.5 52.5 206.4 52.5 198.1 52.5C198.1 44.3 198.1 36.2 198.1 27.7C206.4 27.7 214.5 27.7 222.7 27.7C222.7 36 222.7 44.2 222.7 52.5Z" fill="black"/>
<path d="M87.7001 47.8C87.7001 45.9 87.7001 44.3 87.7001 42.7C89.3001 42.7 90.9001 42.7 92.5001 42.7C92.5001 41 92.5001 39.4 92.5001 37.5C90.7001 37.5 89.2001 37.5 87.7001 37.5C87.7001 36 87.7001 34.5 87.7001 32.8C89.3001 32.7 90.8001 32.5 92.5001 32.4C92.6001 30.9 92.7001 29.4 92.8001 27.7C94.4001 27.7 95.8001 27.7 97.5001 27.7C97.6001 29.1 97.7001 30.6 97.9001 32.6C99.5001 32.6 101.1 32.6 102.7 32.6C102.7 34.2 102.7 35.8 102.7 37.6C104.7 37.6 106.2 37.6 107.7 37.6C107.7 39.1 107.7 40.6 107.7 42.6C111.2 42.6 114.5 42.6 117.7 42.6C117.7 44.2 117.7 45.9 117.7 47.5C116.1 47.5 114.5 47.5 113 47.5C113 51.1 113 54.3 113 57.7C114.7 57.7 116.2 57.7 117.7 57.7C117.7 59.3 117.8 61 117.8 62.6C119.4 62.6 121.1 62.6 122.7 62.6C122.7 61 122.7 59.3 122.7 57.7C121.1 57.7 119.4 57.6 117.8 57.6C117.8 54.3 117.8 51 117.8 47.6C119.4 47.6 121 47.6 122.8 47.6C122.8 45.6 122.8 44.1 122.8 42.6C124.3 42.6 125.8 42.6 127.7 42.6C127.7 40.8 127.7 39.2 127.7 37.6C126.1 37.6 124.4 37.6 122.8 37.6C122.8 39.2 122.7 40.9 122.7 42.5C121.1 42.5 119.4 42.5 117.8 42.5C117.8 41 117.8 39.4 117.8 37.5C119.6 37.5 121.2 37.5 122.7 37.5C122.7 35.9 122.7 34.3 122.7 32.6C119.1 32.6 116 32.6 112.8 32.6C112.8 34.1 112.8 35.7 112.8 37.5C110.9 37.5 109.3 37.5 107.8 37.5C107.8 35.9 107.8 34.2 107.8 32.6C109.4 32.6 111.1 32.5 112.7 32.5C112.7 30.9 112.7 29.4 112.7 27.6C110.9 27.6 109.3 27.6 107.8 27.6C107.8 29.2 107.7 30.9 107.7 32.5C106.1 32.5 104.4 32.5 102.8 32.5C102.8 31 102.8 29.4 102.8 27.5C104.6 27.5 106.2 27.5 107.7 27.5C107.7 25.9 107.7 24.3 107.7 22.7C97.5001 22.7 87.7001 22.7 77.9001 22.7C77.9001 24.4 77.9001 25.9 77.9001 27.3C79.6001 27.5 81.1001 27.6 82.5001 27.7C82.5001 29.4 82.5001 30.8 82.5001 32.4C80.9001 32.5 79.4001 32.6 77.6001 32.7C77.6001 36.1 77.6001 39.3 77.6001 42.7C74.1001 42.7 70.9001 42.7 67.8001 42.7C67.8001 44.3 67.8001 45.9 67.8001 47.5C65.8001 47.7 64.3001 47.8 62.9001 47.9C62.9001 51.3 62.9001 54.3 62.9001 57.5C64.5001 57.5 66.0001 57.5 67.6001 57.5C67.7001 55.8 67.9001 54.3 68.0001 52.6C69.7001 52.6 71.2001 52.6 72.7001 52.6C72.7001 51.1 72.7001 49.6 72.7001 47.7C77.6001 47.8 82.4001 47.8 87.7001 47.8ZM82.9001 37.7C84.5001 37.7 86.0001 37.7 87.6001 37.7C87.6001 39.3 87.6001 41 87.6001 42.6C86.1001 42.6 84.6001 42.6 82.9001 42.6C82.9001 41 82.9001 39.6 82.9001 37.7Z" fill="black"/>
<path d="M67.5002 42.7H67.6002V42.6L67.5002 42.7Z" fill="black"/>
<path d="M72.5002 52.7V52.8H72.6002C72.6002 52.7 72.6002 52.7 72.5002 52.7C72.6002 52.7 72.6002 52.7 72.5002 52.7Z" fill="black"/>
<path d="M67.6002 107.9H67.5002V108L67.6002 107.9Z" fill="black"/>
<path d="M152.8 223.6V223.5H152.7L152.8 223.6Z" fill="black"/>
<path d="M192.9 213.6V213.5H192.8C192.8 213.5 192.8 213.5 192.9 213.6Z" fill="black"/>
<path d="M192.9 218.3C189.5 218.3 186.4 218.3 183 218.3C182.9 216.9 182.8 215.5 182.7 213.8C174.6 213.8 166.5 213.8 158 213.8C157.9 215.1 157.8 216.6 157.6 218.6C156 218.6 154.4 218.6 152.8 218.6C152.8 220.2 152.8 221.9 152.8 223.5C156.1 223.5 159.3 223.5 162.6 223.5C162.8 221.6 162.9 220.2 163 218.7C168 218.7 172.7 218.7 177.7 218.7C177.8 220.3 177.9 221.8 178 223.3C184.8 223.3 191.2 223.3 197.9 223.3C197.9 219.9 197.9 216.7 197.9 213.5C196.3 213.5 194.6 213.5 193 213.5C192.9 215.1 192.9 216.6 192.9 218.3Z" fill="black"/>
<path d="M197.8 213.6C197.9 213.6 197.9 213.5 197.9 213.5H197.8C197.8 213.5 197.8 213.5 197.8 213.6Z" fill="black"/>
<path d="M152.7 218.6C152.8 218.6 152.8 218.5 152.8 218.5L152.7 218.6Z" fill="black"/>
<path d="M132.6 27.8C139.4 27.8 145.9 27.8 152.8 27.8C152.8 31.1 152.8 34.3 152.8 37.6C156.1 37.6 159.3 37.6 162.5 37.6C162.5 34 162.5 30.9 162.5 27.7C160.8 27.6 159.4 27.5 157.9 27.4C157.8 25.7 157.7 24.2 157.7 22.8C147.6 22.8 137.8 22.8 127.8 22.8C127.8 27.9 127.8 32.7 127.8 37.6C129.3 37.6 130.8 37.6 132.6 37.6C132.6 34.4 132.6 31.2 132.6 27.8Z" fill="black"/>
<path d="M72.5003 213.3C72.5003 210 72.5003 206.8 72.5003 203.5C69.2003 203.5 66.0003 203.5 62.8003 203.5C62.8003 212.1 62.8003 220.3 62.8003 228.4C66.1003 228.4 69.2003 228.4 72.6003 228.4C72.6003 225 72.6003 221.9 72.6003 218.5C74.5003 218.5 76.0003 218.5 77.5003 218.5C77.5003 217 77.5003 215.5 77.5003 213.8C76.0003 213.6 74.5003 213.5 72.5003 213.3Z" fill="black"/>
<path d="M77.6001 218.5V218.6H77.7001C77.7001 218.6 77.7001 218.5 77.6001 218.5Z" fill="black"/>
<path d="M57.6001 72.8C60.7001 72.8 63.9001 72.8 67.3001 72.8C67.4001 71.2 67.6001 69.8 67.7001 68.1C70.8001 68.1 73.9001 68.1 77.3001 68.1C77.4001 69.5 77.5001 71 77.7001 72.9C79.3001 72.9 80.9001 72.9 82.5001 72.9C82.5001 74.5 82.5001 76.1 82.5001 78C89.4001 78 95.9001 78 102.4 78C102.5 79.8 102.7 81.3 102.8 83C104.5 83 106 83 107.5 83C107.5 86.3 107.5 89.5 107.5 93C109.5 93 111 93 112.5 93C112.5 96.3 112.5 99.5 112.5 102.8C114.5 103 116 103.1 117.4 103.2C117.4 104.9 117.4 106.3 117.4 107.9C115.8 108 114.3 108.1 112.5 108.2C112.5 113.3 112.5 118.1 112.5 123.1C110.6 123.1 109.1 123.1 107.6 123.1C107.6 118.2 107.6 113.3 107.6 108.3C104 108.3 100.9 108.3 97.4001 108.3C97.4001 111.7 97.4001 114.8 97.4001 118.2C95.6001 118.2 94.1001 118.2 92.6001 118.2C92.6001 119.8 92.6001 121.5 92.6001 123.1C97.6001 123.1 102.6 123.2 107.5 123.2C107.5 124.8 107.5 126.4 107.5 127.9C111.1 127.9 114.2 127.9 117.7 127.9C117.7 122.8 117.7 118 117.7 113C119.5 113 121 113 122.5 113C122.5 111.5 122.5 110 122.5 108C124.3 108 125.9 108 127.5 108C127.5 106.4 127.5 104.8 127.5 102.9C132.8 102.9 137.6 102.9 142.6 102.9C142.6 101.1 142.6 99.5 142.6 98C144.2 97.9 145.8 97.9 147.6 97.8C147.6 94.3 147.6 91.1 147.6 88C149.2 88 150.8 88 152.6 88C152.6 86 152.6 84.5 152.6 83C155.8 83 158.9 83 162.3 83C162.4 81.3 162.6 79.8 162.7 78.1C165.9 78.1 169 78.1 172.4 78.1C172.5 79.6 172.6 81.1 172.6 82.8C174.2 82.9 175.6 82.9 177.2 83C177.2 84.5 177.2 86 177.2 87.7C175.8 87.8 174.4 87.9 172.4 88.1C172.4 89.7 172.4 91.3 172.4 92.9C167.5 92.9 162.6 92.9 157.6 92.9C157.4 94.8 157.3 96.3 157.2 97.8C155.5 97.9 154 98.1 152.5 98.2C152.5 99.9 152.5 101.5 152.5 103C157.5 103 162.5 103 167.4 103C167.4 101.5 167.4 100 167.4 98C169.2 98 170.8 98 172.4 98C172.4 96.4 172.5 94.7 172.5 93.1C175.8 93.1 179.1 93.1 182.4 93.1C182.4 96.3 182.4 99.6 182.4 102.9C184.3 103.1 185.8 103.2 187.3 103.3C187.4 105 187.6 106.5 187.7 108.2C189.4 108.2 190.9 108.2 192.4 108.2C192.4 109.8 192.4 111.5 192.4 113.1C190.8 113.1 189.2 113.1 187.3 113.1C187.3 116.7 187.3 119.9 187.3 123.2C185.5 123.2 184 123.2 182.5 123.2C182.5 124.8 182.5 126.5 182.5 128.1C185.8 128.1 189.1 128.1 192.4 128.1C192.4 123.1 192.5 118.1 192.5 113.1C194.1 113.1 195.8 113.1 197.4 113.1C197.4 118.1 197.4 123.1 197.4 128.1C195.8 128.1 194.1 128.2 192.5 128.2C192.5 129.8 192.5 131.5 192.5 133.1C194 133.1 195.6 133.1 197.5 133.1C197.5 131.3 197.5 129.7 197.5 128.2C199.1 128.2 200.8 128.1 202.4 128.1C202.4 126.6 202.4 125.1 202.4 123.1C204.2 123.1 205.8 123.1 207.4 123.1C207.4 118.1 207.4 113.1 207.4 108.1C205.8 108.1 204.1 108.1 202.5 108.1C202.5 109.6 202.5 111.1 202.5 113C200.7 113 199.1 113 197.5 113C197.5 111.4 197.5 109.7 197.5 108.1C199.1 108.1 200.8 108 202.4 108C202.4 106.5 202.4 105 202.4 103C204.2 103 205.8 103 207.4 103C207.4 98 207.4 93 207.4 88C205.8 88 204.1 88 202.5 88C202.5 89.5 202.5 91.1 202.5 92.9C200.6 92.9 199 92.9 197.5 92.9C197.5 91.3 197.5 89.6 197.5 88C199.1 88 200.8 87.9 202.4 87.9C202.4 86.4 202.4 84.8 202.4 83C200.6 83 199 83 197.5 83C197.5 84.6 197.4 86.3 197.4 87.9C195.8 87.9 194.1 87.9 192.5 87.9C192.5 86.3 192.4 84.6 192.4 83C190.9 83 189.4 83 187.4 83C187.4 81.2 187.4 79.6 187.4 78C184.2 78 181.1 78 177.4 78C177.4 76.2 177.4 74.6 177.4 73C174.1 73 170.9 73 167.7 73C167.7 71 167.7 69.6 167.7 68.1C169.4 67.9 170.9 67.8 172.3 67.7C172.3 66 172.3 64.6 172.3 63C170.7 62.9 169.2 62.8 167.7 62.8C167.7 59.3 167.7 56.2 167.7 52.8C169.4 52.8 170.9 52.8 172.4 52.8C172.4 49.5 172.4 46.3 172.4 42.8C174.4 42.8 175.9 42.8 177.4 42.8C177.4 41.3 177.4 39.8 177.4 38.1C179.1 38.1 180.6 38.1 182.5 38.1C182.5 39.7 182.5 41.2 182.5 42.8C184.1 42.8 185.7 42.8 187.2 42.8C187.2 35.9 187.2 29.4 187.2 23C182.2 23 177.5 23 172.4 23C172.4 28 172.4 32.9 172.4 37.8C170.6 37.9 169.2 38 167.5 38C167.5 41.3 167.5 44.5 167.5 48C164 48 160.8 48 157.5 48C157.5 49.9 157.5 51.4 157.5 52.9C159 52.9 160.5 52.9 162.2 52.9C162.2 54.6 162.2 56.1 162.2 58C160.6 58 159.1 58 157.5 58C157.5 59.6 157.5 61.2 157.5 62.8C159.3 63 160.8 63.1 162.2 63.2C162.2 66.6 162.2 69.8 162.2 72.9C160.6 72.9 159.2 72.9 157.6 72.9C157.5 71.3 157.4 69.8 157.4 68.2C155.7 68.1 154.2 67.9 152.7 67.8C152.6 66.1 152.4 64.6 152.3 63C150.6 63 149.1 63 147.6 63C147.6 64.5 147.6 66 147.6 67.9C142.6 67.9 137.8 67.9 132.5 67.9C132.5 69.8 132.5 71.4 132.5 73C130.9 73 129.3 73 127.4 73C127.4 76.7 127.4 79.8 127.4 83C125.6 83.1 124.3 83.2 122.5 83.2C122.5 88.2 122.5 93 122.5 97.9C120.7 97.9 119.2 97.9 117.7 97.9C117.6 96.2 117.4 94.7 117.3 93C115.6 93 114.1 93 112.6 93C112.6 91.4 112.6 89.8 112.6 88.2C114.5 88 115.9 87.9 117.5 87.8C117.5 82.7 117.5 77.9 117.5 73C114.3 73 111.2 73 107.5 73C107.5 71.2 107.5 69.6 107.5 68C104.2 68 100.9 68 97.6001 68C97.5001 69.6 97.5001 71.2 97.4001 72.9C92.3001 72.9 87.4001 72.9 82.6001 72.9C82.6001 67.9 82.5001 62.9 82.5001 57.9C80.9001 57.9 79.2001 57.9 77.6001 57.9C77.6001 59.5 77.6001 61.1 77.6001 63C68.9001 63 60.8001 63 52.6001 63C52.6001 64.8 52.6001 66.4 52.6001 67.9C54.1001 67.9 55.6001 67.9 57.6001 67.9C57.6001 69.6 57.6001 71.2 57.6001 72.8ZM192.9 93C194.5 93 196.2 93 197.8 93C197.8 98 197.8 103 197.8 108C196.2 108 194.5 108 192.9 108C192.9 103 192.9 98 192.9 93ZM192.8 88C192.8 89.6 192.8 91.3 192.8 92.9C189.5 92.9 186.2 92.9 182.9 92.9C182.9 91.4 182.9 89.9 182.9 88C186.3 88 189.5 88 192.8 88ZM178.1 27.8C179.5 27.8 181 27.8 182.7 27.8C182.7 29.3 182.7 30.6 182.7 32.4C181.2 32.4 179.8 32.4 178.1 32.4C178.1 31 178.1 29.5 178.1 27.8ZM133 97.9C133 96.3 133 94.8 133 93.1C136.1 93.1 139.2 93.1 142.7 93.1C142.7 94.7 142.7 96.3 142.7 97.9C139.5 97.9 136.4 97.9 133 97.9ZM152.7 72.9C152.7 76.3 152.7 79.6 152.7 82.9C151.1 82.9 149.4 83 147.8 83C147.8 84.6 147.7 86.3 147.7 87.9C144.5 87.9 141.2 87.9 137.9 87.9C137.7 86.1 137.6 84.6 137.5 83.1C135.8 83 134.3 82.8 132.8 82.7C132.8 79.3 132.8 76.1 132.8 72.9C139.3 72.9 145.8 72.9 152.7 72.9ZM112.4 78.1C112.4 79.5 112.4 81 112.4 82.8C110.8 82.8 109.2 82.8 107.7 82.8C107.7 81.3 107.7 79.8 107.7 78.1C109.3 78.1 110.7 78.1 112.4 78.1Z" fill="black"/>
<path d="M37.5002 118C37.5002 118.1 37.6002 118.1 37.6002 118.1V118C37.5002 118 37.5002 118 37.5002 118Z" fill="black"/>
<path d="M47.5002 97.9C47.5002 98 47.6002 98 47.6002 98L47.5002 97.9Z" fill="black"/>
<path d="M117.6 218.5V218.6H117.7C117.7 218.6 117.7 218.5 117.6 218.5C117.7 218.5 117.7 218.5 117.6 218.5Z" fill="black"/>
<path d="M92.7002 213.6C92.7002 215.2 92.7002 216.8 92.7002 218.4C94.6002 218.6 96.1002 218.7 97.5002 218.8C97.5002 220.5 97.5002 221.9 97.5002 223.5C95.9002 223.6 94.4002 223.7 92.9002 223.8C92.9002 225.5 92.9002 227 92.9002 228.4C96.3002 228.4 99.4002 228.4 102.6 228.4C102.7 226.7 102.8 225.3 102.9 223.8C104.6 223.7 106 223.6 107.6 223.5C107.8 221.8 107.9 220.3 108 218.6C111.4 218.6 114.6 218.6 117.7 218.6C117.7 217.1 117.7 215.6 117.7 213.7C109.2 213.6 101 213.6 92.7002 213.6Z" fill="black"/>
<path d="M22.8003 97.8C24.5003 97.8 25.8003 97.8 27.4003 97.8C27.5003 96.2 27.7003 94.7 27.8003 93.2C29.5003 93.2 31.0003 93.2 32.5003 93.2C32.6003 94.8 32.6003 96.2 32.7003 97.8C34.4003 97.8 35.9003 97.8 37.4003 97.8C37.5003 96.1 37.7003 94.6 37.8003 93.2C39.5003 93 41.0003 92.9 42.4003 92.8C42.4003 91.1 42.4003 89.7 42.4003 87.9C37.4003 87.9 32.6003 87.9 27.5003 87.9C27.5003 82.7 27.5003 77.8 27.5003 73C25.9003 73 24.3003 73 22.8003 73C22.8003 81.5 22.8003 89.7 22.8003 97.8Z" fill="black"/>
<path d="M27.4001 72.9H27.5001L27.4001 72.8V72.9Z" fill="black"/>
<path d="M22.7002 63C22.7002 64.7 22.7002 66.1 22.7002 67.7C24.4002 67.8 25.9002 68 27.5002 68.1C27.5002 69.9 27.5002 71.4 27.5002 72.9C32.4002 72.9 37.3002 72.9 42.3002 72.9C42.5002 71.1 42.6002 69.6 42.7002 67.9C44.4002 67.9 45.9002 67.9 47.4002 67.9C47.4002 66.3 47.4002 64.7 47.4002 63.1C39.0002 63 30.9002 63 22.7002 63Z" fill="black"/>
<path d="M27.5001 72.9V72.8H27.4001L27.5001 72.9Z" fill="black"/>
<path d="M147.7 42.7H147.8V42.6C147.8 42.6 147.7 42.6 147.7 42.7Z" fill="black"/>
<path d="M147.8 62.7C147.7 62.7 147.7 62.8 147.7 62.8C147.7 62.8 147.8 62.7 147.8 62.7Z" fill="black"/>
<path d="M82.6001 198.4V198.5H82.7001L82.6001 198.4Z" fill="black"/>
<path d="M72.6002 203.4C72.5002 203.4 72.5002 203.5 72.5002 203.5H72.6002C72.6002 203.5 72.6002 203.5 72.6002 203.4Z" fill="black"/>
<path d="M62.6001 188.4C62.5001 188.4 62.5001 188.4 62.6001 188.4C62.6001 188.5 62.6001 188.5 62.6001 188.4Z" fill="black"/>
<path d="M222.7 72.7C222.7 72.8 222.8 72.8 222.8 72.8L222.7 72.7Z" fill="black"/>
<path d="M222.8 83.1C224.8 82.9 226.2 82.8 227.6 82.7C227.6 81 227.6 79.5 227.6 78C226 77.9 224.6 77.9 223 77.8C222.9 76 222.7 74.4 222.6 72.8C221.1 72.8 219.6 72.8 217.8 72.8C217.8 76.3 217.8 79.5 217.8 83C214.3 83 211.1 83 207.9 83C207.9 84.9 207.9 86.4 207.9 87.9C212.9 87.9 217.8 87.9 222.8 87.9C222.8 86.3 222.8 84.7 222.8 83.1Z" fill="black"/>
<path d="M207.9 87.9C207.8 87.9 207.8 87.9 207.9 87.9C207.9 88 207.8 88 207.9 87.9Z" fill="black"/>
<path d="M202.9 108C202.8 108 202.8 108 202.9 108C202.9 108.1 202.8 108.1 202.9 108Z" fill="black"/>
<path d="M207.9 123.1C207.9 123 207.8 123 207.8 123V123.1H207.9Z" fill="black"/>
<path d="M202.9 128.2C202.9 133.2 202.9 138.2 202.9 143.2C204.5 143.2 206.2 143.2 207.8 143.2C207.8 139.9 207.8 136.7 207.8 133.4C209.8 133.2 211.3 133.1 212.8 133C212.9 131.3 212.9 129.9 213 128.3C214.7 128.2 216.2 128.1 217.6 128C217.6 126.2 217.6 124.8 217.6 123.2C214.2 123.2 211 123.2 207.9 123.2C207.9 124.7 207.9 126.2 207.9 128.2C206.1 128.2 204.5 128.2 202.9 128.2Z" fill="black"/>
<path d="M202.9 128.2V128.1C202.9 128.1 202.8 128.1 202.9 128.2C202.8 128.1 202.8 128.1 202.9 128.2Z" fill="black"/>
<path d="M132.7 213.6C132.8 213.6 132.8 213.5 132.8 213.5H132.7C132.7 213.5 132.7 213.5 132.7 213.6Z" fill="black"/>
<path d="M207.9 108.1C207.9 108 207.9 108 207.9 108.1C207.9 108 207.8 108 207.8 108L207.9 108.1Z" fill="black"/>
<path d="M218 103C214.4 103 211.2 103 207.9 103C207.9 104.6 207.9 106.3 207.9 107.9C212.9 107.9 217.8 107.9 222.8 107.9C222.8 102.9 222.8 97.9 222.8 92.9C221.3 92.9 219.8 92.9 218 92.9C218 96.2 218 99.4 218 103Z" fill="black"/>
<path d="M222.9 107.9H222.8V108L222.9 107.9Z" fill="black"/>
<path d="M222.8 93H222.9V92.9C222.9 92.9 222.9 92.9 222.8 93C222.8 92.9 222.8 92.9 222.8 93Z" fill="black"/>
<path d="M207.9 103V102.9H207.8C207.8 103 207.8 103 207.9 103Z" fill="black"/>
<path d="M222.8 133.1V133.2H222.9L222.8 133.1Z" fill="black"/>
<path d="M222.9 148.1H222.8V148.2L222.9 148.1Z" fill="black"/>
<path d="M222.8 148.1C222.8 143.1 222.8 138.1 222.8 133.1C221.2 133.1 219.6 133.1 217.7 133.1C217.7 136.6 217.7 139.8 217.7 143.1C214.2 143.1 211 143.1 207.9 143.1C207.9 144.7 207.9 146.4 207.9 148C212.9 148.1 217.9 148.1 222.8 148.1Z" fill="black"/>
<path d="M207.9 143.2C207.9 143.1 207.8 143.1 207.8 143.1V143.2H207.9Z" fill="black"/>
<path d="M222.8 208.6C221.2 208.6 219.5 208.6 217.9 208.6C217.9 213.6 217.9 218.6 217.9 223.6C219.5 223.6 221.1 223.6 222.7 223.6C222.9 221.7 223 220.2 223.1 218.7C224.8 218.6 226.2 218.6 227.7 218.5C227.7 216.8 227.7 215.3 227.7 213.8C226 213.7 224.5 213.5 222.8 213.4C222.8 211.6 222.8 210.1 222.8 208.6Z" fill="black"/>
<path d="M217.9 223.6V223.5H217.8L217.9 223.6Z" fill="black"/>
<path d="M202.8 168.3C202.9 168.4 202.8 168.4 202.8 168.3C202.9 168.3 202.9 168.3 202.8 168.3Z" fill="black"/>
<path d="M22.7002 103.2C22.7002 108.2 22.7002 112.9 22.7002 117.8C24.3002 117.8 25.8002 117.8 27.6002 117.8C27.6002 114.4 27.6002 111.3 27.6002 107.9C29.5002 107.9 31.0002 107.9 32.5002 107.9C32.5002 106.3 32.5002 104.7 32.5002 103.2C28.9002 103.2 25.8002 103.2 22.7002 103.2Z" fill="black"/>
<path d="M32.5002 108V108.1H32.6002V108C32.5002 108 32.5002 108 32.5002 108Z" fill="black"/>
<path d="M217.8 183.3L217.9 183.4V183.3C217.9 183.3 217.9 183.3 217.8 183.3Z" fill="black"/>
<path d="M222.8 173.3V173.4H222.9L222.8 173.3Z" fill="black"/>
<path d="M227.7 178.5C226 178.4 224.5 178.2 222.9 178.1C222.9 176.4 222.9 174.9 222.9 173.4C221.3 173.4 219.7 173.4 218 173.4C218 177 218 180.2 218 183.3C221.2 183.3 224.5 183.3 227.8 183.3C227.7 181.5 227.7 180 227.7 178.5Z" fill="black"/>
<path d="M203.1 228.4C208.1 228.4 212.9 228.4 217.9 228.4C217.9 226.7 217.9 225.2 217.9 223.7C213 223.7 208.1 223.7 203.1 223.7C203.1 225.5 203.1 226.9 203.1 228.4Z" fill="black"/>
<path d="M217.9 223.6L217.8 223.5V223.6C217.9 223.6 217.9 223.6 217.9 223.6Z" fill="black"/>
<path d="M187.8 72.9L187.9 72.8H187.8C187.8 72.8 187.8 72.8 187.8 72.9Z" fill="black"/>
<path d="M177.9 72.8C177.8 72.8 177.8 72.8 177.9 72.8C177.8 72.8 177.8 72.9 177.8 72.9H177.9C177.9 72.9 177.9 72.8 177.9 72.8Z" fill="black"/>
<path d="M187.8 67.9C186.2 67.9 184.6 67.9 183 67.9C182.8 65.9 182.7 64.5 182.6 63.1C180.9 63.1 179.4 63.1 177.8 63.1C177.8 66.5 177.8 69.7 177.8 72.8C181.1 72.8 184.4 72.8 187.7 72.8C187.8 71.1 187.8 69.5 187.8 67.9Z" fill="black"/>
<path d="M82.4001 218.6C80.8001 218.6 79.2001 218.6 77.6001 218.6C77.6001 220.2 77.6001 221.8 77.6001 223.3C81.1001 223.3 84.3001 223.3 87.5001 223.3C87.5001 219.9 87.5001 216.7 87.5001 213.6C86.0001 213.6 84.5001 213.6 82.8001 213.6C82.7001 215.2 82.6001 216.6 82.4001 218.6Z" fill="black"/>
<path d="M217.9 203.4C217.8 203.4 217.8 203.5 217.8 203.5H217.9C217.9 203.5 217.9 203.5 217.9 203.4Z" fill="black"/>
<path d="M222.9 208.5C222.8 208.5 222.8 208.5 222.9 208.5C222.9 208.6 222.9 208.6 222.9 208.5Z" fill="black"/>
<path d="M222.9 208.5C224.5 208.5 226 208.5 227.6 208.5C227.6 205 227.6 201.8 227.6 198.7C224.2 198.7 221.1 198.7 217.9 198.7C217.9 200.4 217.9 201.9 217.9 203.4C219.4 203.4 220.9 203.4 222.9 203.4C222.9 205.3 222.9 206.9 222.9 208.5Z" fill="black"/>
<path d="M207.9 168.4C207.9 168.3 207.9 168.3 207.9 168.4C207.9 168.3 207.8 168.3 207.8 168.3L207.9 168.4Z" fill="black"/>
<path d="M217.6 168.3C217.6 166.4 217.6 165 217.6 163.4C214.2 163.4 211 163.4 207.9 163.4C207.9 165 207.9 166.7 207.9 168.3C211.2 168.3 214.4 168.3 217.6 168.3Z" fill="black"/>
<path d="M207.9 163.3C207.9 163.2 207.8 163.2 207.8 163.2V163.3H207.9Z" fill="black"/>
<path d="M207.8 77.6C207.8 74.2 207.8 71 207.8 67.9C206.1 67.9 204.5 68 202.8 68C202.8 71.2 202.8 74.5 202.8 77.6C204.8 77.6 206.2 77.6 207.8 77.6Z" fill="black"/>
<path d="M207.8 67.8V67.9H207.9L207.8 67.8Z" fill="black"/>
<path d="M202.8 68V67.9C202.8 67.9 202.7 68 202.8 68Z" fill="black"/>
<path d="M222.7 113H222.8L222.7 112.9C222.7 112.9 222.7 112.9 222.7 113Z" fill="black"/>
<path d="M213 117.9C216.3 117.9 219.4 117.9 222.7 117.9C222.7 116.2 222.7 114.6 222.7 113C219.5 113 216.2 113 213 113C213 114.9 213 116.3 213 117.9Z" fill="black"/>
<path d="M122.4 22.9C120.7 22.9 119.2 22.9 117.7 22.9C117.7 24.5 117.7 25.8 117.7 27.4C119.5 27.4 121 27.4 122.4 27.4C122.4 25.7 122.4 24.2 122.4 22.9Z" fill="black"/>
<path d="M62.7002 27.9C62.7002 29.6 62.7002 30.9 62.7002 32.4C64.4002 32.4 66.0002 32.4 67.6002 32.4C67.5002 30.8 67.4002 29.3 67.4002 27.9C65.6002 27.9 64.1002 27.9 62.7002 27.9Z" fill="black"/>
<path d="M67.6001 32.4V32.5L67.7001 32.4C67.7001 32.4 67.7001 32.4 67.6001 32.4Z" fill="black"/>
<path d="M112.7 32.6C112.6 32.6 112.6 32.7 112.6 32.7L112.7 32.6Z" fill="black"/>
<path d="M107.7 27.7C107.7 27.6 107.7 27.6 107.7 27.7C107.7 27.6 107.6 27.6 107.6 27.6V27.7C107.6 27.7 107.7 27.7 107.7 27.7Z" fill="black"/>
<path d="M67.7001 32.5C67.8001 32.5 67.8001 32.4 67.8001 32.4C67.8001 32.4 67.6001 32.5 67.7001 32.5Z" fill="black"/>
<path d="M72.4003 32.5C70.7003 32.5 69.3003 32.5 67.8003 32.5C67.8003 34.2 67.8003 36 67.8003 37.7C69.3003 37.6 70.9003 37.5 72.4003 37.5C72.4003 35.7 72.4003 34.3 72.4003 32.5Z" fill="black"/>
<path d="M67.8002 37.7H67.7002L67.8002 37.8C67.8002 37.8 67.8002 37.8 67.8002 37.7Z" fill="black"/>
<path d="M67.5002 42.7L67.6002 42.6H67.5002C67.5002 42.7 67.5002 42.7 67.5002 42.7Z" fill="black"/>
<path d="M67.7002 37.7C67.7002 37.8 67.7002 37.8 67.7002 37.7C67.7002 37.8 67.8002 37.8 67.8002 37.8C67.8002 37.8 67.7002 37.7 67.7002 37.7Z" fill="black"/>
<path d="M62.8003 37.8C62.8003 39.6 62.8003 41.1 62.8003 42.6C64.5003 42.6 66.0003 42.6 67.5003 42.6C67.5003 41 67.6003 39.4 67.6003 37.8C66.0003 37.8 64.4003 37.8 62.8003 37.8Z" fill="black"/>
<path d="M127.7 37.6C127.7 37.7 127.8 37.7 127.8 37.7L127.7 37.6Z" fill="black"/>
<path d="M122.7 37.7C122.7 37.6 122.6 37.6 122.6 37.6V37.7C122.7 37.7 122.7 37.7 122.7 37.7Z" fill="black"/>
<path d="M152.7 37.7C152.8 37.7 152.8 37.6 152.8 37.6H152.7V37.7Z" fill="black"/>
<path d="M177.9 47.5C179.8 47.5 181.2 47.5 182.8 47.5C182.8 45.8 182.8 44.3 182.8 42.8C181.2 42.8 179.5 42.8 177.9 42.8C177.9 44.3 177.9 45.9 177.9 47.5Z" fill="black"/>
<path d="M177.8 42.7C177.8 42.6 177.8 42.6 177.8 42.7C177.9 42.7 177.9 42.7 177.8 42.7C177.9 42.6 177.8 42.6 177.8 42.7Z" fill="black"/>
<path d="M182.8 42.7C182.9 42.7 182.9 42.6 182.9 42.6H182.8C182.8 42.7 182.8 42.7 182.8 42.7Z" fill="black"/>
<path d="M72.6001 52.8C72.6001 54.3 72.6001 55.9 72.6001 57.7C74.4001 57.7 76.0001 57.7 77.5001 57.7C77.5001 56.2 77.5001 54.7 77.5001 52.8C75.8001 52.8 74.2001 52.8 72.6001 52.8Z" fill="black"/>
<path d="M77.6001 57.7C77.6001 57.8 77.7001 57.8 77.7001 57.8V57.7C77.6001 57.7 77.6001 57.7 77.6001 57.7Z" fill="black"/>
<path d="M153 52.8C153 54.7 153 56.1 153 57.7C154.7 57.7 156.2 57.7 157.7 57.7C157.7 56.1 157.7 54.4 157.7 52.8C156.1 52.8 154.6 52.8 153 52.8Z" fill="black"/>
<path d="M157.7 57.7C157.7 57.8 157.8 57.8 157.8 57.8V57.7C157.8 57.7 157.7 57.7 157.7 57.7Z" fill="black"/>
<path d="M172.8 52.7L172.7 52.8H172.8C172.8 52.7 172.8 52.7 172.8 52.7Z" fill="black"/>
<path d="M177.6 57.5C177.6 55.8 177.6 54.3 177.6 52.7C175.9 52.7 174.4 52.7 172.9 52.7C172.9 54.3 172.9 55.9 172.9 57.5C174.7 57.5 176.1 57.5 177.6 57.5Z" fill="black"/>
<path d="M183 57.5C184.7 57.5 186.2 57.5 187.6 57.5C187.6 55.8 187.6 54.5 187.6 52.9C186 52.9 184.5 52.9 183 52.9C183 54.6 183 56.1 183 57.5Z" fill="black"/>
<path d="M192.8 63C190.9 63 189.5 63 187.9 63C187.9 64.7 187.9 66.2 187.9 67.7C189.5 67.7 191.2 67.7 192.8 67.7C192.8 66.2 192.8 64.6 192.8 63Z" fill="black"/>
<path d="M187.9 67.8C187.8 67.8 187.8 67.8 187.9 67.8C187.8 67.8 187.8 67.9 187.8 67.9H187.9C187.9 67.8 187.9 67.8 187.9 67.8Z" fill="black"/>
<path d="M202.8 67.9C202.7 67.9 202.7 68 202.7 68C202.7 68 202.8 67.9 202.8 67.9Z" fill="black"/>
<path d="M202.7 63C200.9 63 199.4 63 197.9 63C197.9 64.7 197.9 66.2 197.9 67.7C199.5 67.7 201.1 67.8 202.7 67.8C202.7 66.2 202.7 64.6 202.7 63Z" fill="black"/>
<path d="M207.8 67.8L207.9 67.9V67.8H207.8Z" fill="black"/>
<path d="M212.6 63C210.9 63 209.4 63 207.9 63C207.9 64.7 207.9 66.2 207.9 67.7C209.5 67.7 211.1 67.7 212.6 67.7C212.6 65.9 212.6 64.5 212.6 63Z" fill="black"/>
<path d="M218.1 63C218.1 64.7 218.1 66.2 218.1 67.7C219.8 67.7 221.3 67.7 222.8 67.7C222.8 66.1 222.8 64.5 222.8 63C221 63 219.5 63 218.1 63Z" fill="black"/>
<path d="M47.5002 67.8C47.5002 67.7 47.5002 67.7 47.5002 67.8C47.6002 67.8 47.6002 67.8 47.5002 67.8C47.6002 67.8 47.6002 67.7 47.5002 67.8Z" fill="black"/>
<path d="M47.6001 67.8C47.6001 69.4 47.6001 70.9 47.6001 72.7C49.4001 72.7 51.0001 72.7 52.5001 72.7C52.5001 71.1 52.5001 69.4 52.5001 67.8C50.9001 67.9 49.2001 67.9 47.6001 67.8Z" fill="black"/>
<path d="M52.6001 67.8C52.5001 67.8 52.5001 67.8 52.6001 67.8C52.6001 67.9 52.5001 67.9 52.6001 67.8Z" fill="black"/>
<path d="M227.6 112.9C227.6 111.1 227.6 109.6 227.6 108.1C225.9 108.1 224.4 108.1 222.9 108.1C222.9 109.7 222.8 111.3 222.8 112.9C224.5 112.9 226.1 112.9 227.6 112.9Z" fill="black"/>
<path d="M222.8 113C222.8 112.9 222.8 112.9 222.8 113C222.8 112.9 222.7 112.9 222.7 112.9C222.7 112.9 222.8 113 222.8 113Z" fill="black"/>
<path d="M222.9 107.9L222.8 108H222.9C222.9 108 222.9 108 222.9 107.9Z" fill="black"/>
<path d="M227.7 128.4C226 128.4 224.5 128.4 223 128.4C223 130.1 223 131.6 223 133.1C224.6 133.1 226.2 133.1 227.7 133.1C227.7 131.2 227.7 129.8 227.7 128.4Z" fill="black"/>
<path d="M222.8 133.1L222.9 133.2V133.1C222.9 133.1 222.9 133.1 222.8 133.1Z" fill="black"/>
<path d="M197.9 143.2C197.9 144.9 197.9 146.5 197.9 148.1C199.5 148.1 201.2 148.1 202.8 148.1C202.8 146.5 202.8 144.8 202.8 143.2C201.3 143.2 199.8 143.2 197.9 143.2Z" fill="black"/>
<path d="M202.8 143.2C202.9 143.2 202.9 143.1 202.9 143.1H202.8C202.8 143.2 202.8 143.2 202.8 143.2Z" fill="black"/>
<path d="M197.8 148.3C197.9 148.3 197.9 148.2 197.9 148.2H197.8C197.8 148.2 197.8 148.2 197.8 148.3Z" fill="black"/>
<path d="M207.8 148.3C207.9 148.3 207.9 148.2 207.9 148.2H207.8C207.8 148.2 207.8 148.2 207.8 148.3Z" fill="black"/>
<path d="M202.9 153C204.8 153 206.2 153 207.8 153C207.8 151.3 207.8 149.8 207.8 148.3C206.2 148.3 204.5 148.3 202.9 148.3C202.9 149.8 202.9 151.4 202.9 153Z" fill="black"/>
<path d="M202.8 148.3C202.9 148.3 202.9 148.2 202.9 148.2C202.9 148.2 202.8 148.3 202.8 148.3Z" fill="black"/>
<path d="M227.7 153.2C227.7 151.3 227.7 149.9 227.7 148.3C226 148.3 224.5 148.3 223 148.3C223 149.9 223 151.6 223 153.2C224.5 153.2 226.1 153.2 227.7 153.2Z" fill="black"/>
<path d="M222.9 148.1L222.8 148.2H222.9C222.9 148.2 222.9 148.2 222.9 148.1Z" fill="black"/>
<path d="M223 153.3V153.2H222.9L223 153.3Z" fill="black"/>
<path d="M192.8 158.3C192.9 158.3 192.9 158.2 192.8 158.3C192.9 158.2 192.8 158.2 192.8 158.3Z" fill="black"/>
<path d="M192.8 153.3C192.9 153.3 192.9 153.2 192.9 153.2H192.8C192.8 153.2 192.8 153.2 192.8 153.3Z" fill="black"/>
<path d="M218.1 158C219.8 158 221.3 158 222.8 158C222.8 156.3 222.8 154.8 222.8 153.3C221.2 153.3 219.6 153.3 218.1 153.3C218.1 155.1 218.1 156.6 218.1 158Z" fill="black"/>
<path d="M223 153.3L222.9 153.2V153.3C222.9 153.3 222.9 153.3 223 153.3Z" fill="black"/>
<path d="M22.7002 123.3C22.7002 125 22.7002 126.5 22.7002 128.1C24.4002 128.1 25.9002 128.1 27.4002 128.1C27.4002 126.5 27.4002 124.9 27.4002 123.3C25.6002 123.3 24.2002 123.3 22.7002 123.3Z" fill="black"/>
<path d="M27.5002 128.2L27.6002 128.1H27.5002C27.5002 128.1 27.5002 128.1 27.5002 128.2Z" fill="black"/>
<path d="M222.8 173.3L222.9 173.4V173.3C222.9 173.3 222.9 173.3 222.8 173.3Z" fill="black"/>
<path d="M227.7 168.6C226 168.6 224.5 168.6 223 168.6C223 170.3 223 171.8 223 173.3C224.6 173.3 226.2 173.3 227.7 173.3C227.7 171.4 227.7 170 227.7 168.6Z" fill="black"/>
<path d="M222.9 88C222.9 87.9 222.9 87.9 222.9 88C222.9 87.9 222.8 87.9 222.8 87.9V88C222.9 88 222.9 88 222.9 88Z" fill="black"/>
<path d="M227.7 92.9C227.7 91 227.7 89.6 227.7 88C226 88 224.5 88 223 88C223 89.6 223 91.3 223 92.9C224.5 92.9 226.1 92.9 227.7 92.9Z" fill="black"/>
<path d="M202.9 87.9C202.8 87.9 202.8 88 202.8 88L202.9 87.9Z" fill="black"/>
<path d="M197.9 82.9V82.8H197.8C197.8 82.9 197.8 82.9 197.9 82.9Z" fill="black"/>
<path d="M217.9 188.3L217.8 188.4H217.9C217.9 188.4 217.9 188.4 217.9 188.3Z" fill="black"/>
<path d="M222.6 193.2C222.6 191.5 222.6 190 222.6 188.4C220.9 188.4 219.4 188.4 217.9 188.4C217.9 190 217.9 191.6 217.9 193.2C219.8 193.2 221.2 193.2 222.6 193.2Z" fill="black"/>
<path d="M197.8 82.8C197.8 81.3 197.8 79.7 197.8 77.9C196 77.9 194.4 77.9 192.9 77.9C192.9 79.5 192.9 81.2 192.9 82.8C194.5 82.8 196.2 82.8 197.8 82.8Z" fill="black"/>
<path d="M192.9 82.8C192.8 82.8 192.8 82.9 192.8 82.9H192.9C192.9 82.9 192.9 82.9 192.9 82.8Z" fill="black"/>
<path d="M52.5002 82.8C52.5002 82.9 52.5002 82.9 52.5002 82.8C52.5002 82.9 52.6002 82.9 52.6002 82.9V82.8H52.5002Z" fill="black"/>
<path d="M47.8003 77.9C47.8003 79.8 47.8003 81.2 47.8003 82.8C49.5003 82.8 51.0003 82.8 52.5003 82.8C52.5003 81.2 52.5003 79.5 52.5003 77.9C50.9003 77.9 49.3003 77.9 47.8003 77.9Z" fill="black"/>
<path d="M187.8 72.9C187.9 72.9 187.9 72.8 187.9 72.8L187.8 72.9Z" fill="black"/>
<path d="M187.9 77.8C187.8 77.8 187.8 77.8 187.9 77.8C187.8 77.8 187.8 77.9 187.8 77.9H187.9C187.9 77.9 187.9 77.8 187.9 77.8Z" fill="black"/>
<path d="M192.8 77.9C192.9 77.9 192.9 77.8 192.8 77.9C192.9 77.8 192.8 77.8 192.8 77.9Z" fill="black"/>
<path d="M187.9 77.8C189.5 77.8 191.2 77.8 192.8 77.8C192.8 76.2 192.8 74.5 192.8 72.9C191.2 72.9 189.5 72.9 187.9 72.9C187.9 74.5 187.9 76.2 187.9 77.8Z" fill="black"/>
<path d="M87.7001 213.6C87.7001 213.5 87.7001 213.5 87.7001 213.6C87.7001 213.5 87.6001 213.5 87.6001 213.5C87.6001 213.5 87.7001 213.6 87.7001 213.6Z" fill="black"/>
<path d="M92.6001 213.5C92.6001 213.6 92.7001 213.6 92.7001 213.6V213.5H92.6001Z" fill="black"/>
<path d="M57.5001 72.9C55.9001 72.9 54.2001 72.9 52.6001 72.9C52.6001 74.5 52.6001 76.2 52.6001 77.8C54.1001 77.8 55.6001 77.8 57.5001 77.8C57.5001 76.1 57.5001 74.5 57.5001 72.9Z" fill="black"/>
<path d="M57.5002 72.9C57.6002 72.9 57.6002 72.8 57.6002 72.8H57.5002C57.5002 72.8 57.5002 72.8 57.5002 72.9Z" fill="black"/>
<path d="M52.6002 77.8C52.5002 77.8 52.5002 77.9 52.5002 77.9H52.6002C52.6002 77.9 52.6002 77.8 52.6002 77.8Z" fill="black"/>
<path d="M52.6001 72.8C52.5001 72.8 52.5001 72.8 52.6001 72.8C52.6001 72.9 52.5001 72.9 52.6001 72.8Z" fill="black"/>
<path d="M222.7 72.7L222.8 72.8V72.7H222.7Z" fill="black"/>
<path d="M227.6 67.8C225.9 67.8 224.4 67.8 222.9 67.8C222.9 69.4 222.8 71 222.8 72.6C224.5 72.6 226.1 72.6 227.6 72.6C227.6 70.8 227.6 69.4 227.6 67.8Z" fill="black"/>
<path d="M222.9 67.8C222.9 67.7 222.9 67.7 222.9 67.8C222.8 67.8 222.8 67.8 222.9 67.8Z" fill="black"/>
<path d="M192.9 67.9C192.9 67.8 192.9 67.8 192.9 67.9C192.9 67.8 192.8 67.8 192.8 67.8V67.9C192.8 67.9 192.8 67.9 192.9 67.9Z" fill="black"/>
<path d="M192.9 72.9C192.9 72.8 192.9 72.8 192.9 72.9C192.9 72.8 192.8 72.8 192.8 72.8C192.8 72.8 192.9 72.9 192.9 72.9Z" fill="black"/>
<path d="M197.8 67.7V67.8H197.9L197.8 67.7Z" fill="black"/>
<path d="M197.8 72.8C197.8 71 197.8 69.4 197.8 67.9C196.2 67.9 194.5 67.9 192.9 67.9C192.9 69.5 192.9 71.2 192.9 72.8C194.4 72.8 196 72.8 197.8 72.8Z" fill="black"/>
<path d="M207.6 218.3C207.6 216.6 207.6 215.1 207.6 213.5C205.9 213.5 204.4 213.5 202.9 213.5C202.9 215.1 202.9 216.7 202.9 218.3C204.7 218.3 206.2 218.3 207.6 218.3Z" fill="black"/>
<path d="M202.9 213.6V213.5H202.8V213.6H202.9Z" fill="black"/>
<path d="M137.9 228.4C139.7 228.4 141.1 228.4 142.6 228.4C142.6 226.8 142.6 225.3 142.6 223.8C140.9 223.8 139.5 223.8 137.9 223.8C137.9 225.4 137.9 226.8 137.9 228.4Z" fill="black"/>
<path d="M148 228.4C149.7 228.4 151.2 228.4 152.7 228.4C152.7 226.7 152.7 225.2 152.7 223.7C151.1 223.7 149.5 223.7 148 223.7C148 225.5 148 226.9 148 228.4Z" fill="black"/>
<path d="M152.8 223.6L152.7 223.5V223.6H152.8Z" fill="black"/>
<path d="M168 228.5C169.6 228.5 171 228.5 172.6 228.5C172.6 226.7 172.6 225.3 172.6 223.8C171 223.8 169.5 223.8 168 223.8C168 225.5 168 226.9 168 228.5Z" fill="black"/>
<path d="M122.7 113C122.6 113 122.6 113.1 122.6 113.1L122.7 113Z" fill="black"/>
<path d="M97.6001 67.9C97.7001 67.9 97.7001 67.8 97.7001 67.8L97.6001 67.9Z" fill="black"/>
<path d="M92.7001 123.1V123H92.6001L92.7001 123.1Z" fill="black"/>
<path d="M92.7001 118.1V118H92.6001C92.6001 118 92.6001 118.1 92.7001 118.1Z" fill="black"/>
<path d="M77.8002 143C77.7002 143 77.7002 143 77.8002 143C77.7002 143 77.7002 143.1 77.7002 143.1L77.8002 143Z" fill="black"/>
<path d="M92.6001 118C92.6001 116.4 92.6001 114.8 92.6001 113.3C89.0001 113.3 85.9001 113.3 82.7001 113.3C82.6001 115 82.6001 116.4 82.5001 117.9C80.8001 118 79.3001 118.1 77.9001 118.2C77.9001 119.9 77.9001 121.4 77.9001 123C81.3001 123 84.5001 123 87.6001 123C87.6001 121.5 87.6001 120 87.6001 118C89.4001 118 91.0001 118 92.6001 118Z" fill="black"/>
<path d="M77.3001 112.8C77.3001 111.1 77.3001 109.6 77.3001 108C73.9001 108 70.7001 108 67.6001 108C67.6001 109.6 67.6001 111.2 67.6001 112.8C71.2001 112.8 74.3001 112.8 77.3001 112.8Z" fill="black"/>
<path d="M67.6002 107.9L67.5002 108H67.6002C67.6002 108 67.6002 108 67.6002 107.9Z" fill="black"/>
<path d="M72.4002 118.3C69.0002 118.3 65.9002 118.3 62.7002 118.3C62.7002 120 62.7002 121.5 62.7002 123C65.9002 123 69.2002 123 72.4002 123C72.4002 121.2 72.4002 119.7 72.4002 118.3Z" fill="black"/>
<path d="M62.5002 123L62.6002 123.1V123H62.5002Z" fill="black"/>
<path d="M62.3001 137.9C62.3001 136.2 62.3001 134.7 62.3001 133.1C58.9001 133.1 55.7001 133.1 52.6001 133.1C52.6001 134.7 52.6001 136.3 52.6001 137.9C56.1001 137.9 59.3001 137.9 62.3001 137.9Z" fill="black"/>
<path d="M52.6002 133.1L52.5002 133.2H52.6002C52.6002 133.1 52.6002 133.1 52.6002 133.1Z" fill="black"/>
<path d="M92.6001 123V123.1H92.7001L92.6001 123Z" fill="black"/>
<path d="M87.6001 123.1C87.7001 123.1 87.7001 123 87.7001 123L87.6001 123.1Z" fill="black"/>
<path d="M72.4002 78.1C70.7002 78.1 69.2002 78.1 67.7002 78.1C67.7002 79.7 67.7002 81 67.7002 82.6C69.3002 82.6 70.8002 82.6 72.4002 82.6C72.4002 81 72.4002 79.5 72.4002 78.1Z" fill="black"/>
<path d="M117.6 163.2V163.3H117.7L117.6 163.2Z" fill="black"/>
<path d="M122.6 113.1C122.7 113.1 122.7 113.1 122.6 113.1C122.7 113.1 122.7 113 122.7 113C122.7 113 122.6 113.1 122.6 113.1Z" fill="black"/>
<path d="M117.4 137.9C117.4 136.2 117.4 134.7 117.4 133.2C110.7 133.2 104.2 133.2 97.7002 133.2C97.7002 134.8 97.7002 136.4 97.7002 137.9C104.6 137.9 111 137.9 117.4 137.9Z" fill="black"/>
<path d="M92.8002 128V127.9H92.7002C92.7002 127.9 92.7002 128 92.8002 128Z" fill="black"/>
<path d="M97.7002 133.1C97.7002 133.2 97.6002 133.2 97.7002 133.1C97.6002 133.2 97.6002 133.1 97.7002 133.1C97.6002 133.2 97.6002 133.2 97.7002 133.1Z" fill="black"/>
<path d="M97.6003 133.1C97.6003 131.5 97.6003 129.9 97.6003 128C95.8003 128 94.3003 128 92.8003 128C92.8003 129.7 92.8003 131.3 92.8003 133.1C94.6003 133.1 96.1003 133.1 97.6003 133.1Z" fill="black"/>
<path d="M132.7 133.2C132.8 133.2 132.8 133.1 132.8 133.1L132.7 133.2Z" fill="black"/>
<path d="M132.8 138.1C132.7 138.1 132.7 138.1 132.8 138.1C132.7 138.1 132.7 138.2 132.7 138.2H132.8V138.1Z" fill="black"/>
<path d="M87.4002 138.4C85.7002 138.4 84.2002 138.4 82.7002 138.4C82.7002 140.1 82.7002 141.6 82.7002 143.1C84.3002 143.1 85.8002 143.1 87.4002 143.1C87.4002 141.3 87.4002 139.8 87.4002 138.4Z" fill="black"/>
<path d="M82.6003 147.9C82.6003 146.2 82.6003 144.7 82.6003 143.2C81.0003 143.2 79.4003 143.1 77.8003 143.1C77.8003 144.8 77.8003 146.4 77.8003 147.9C79.6003 147.9 81.0003 147.9 82.6003 147.9Z" fill="black"/>
<path d="M77.8002 143L77.7002 143.1H77.8002V143Z" fill="black"/>
<path d="M82.6001 143.2C82.7001 143.2 82.7001 143.2 82.6001 143.2C82.6001 143.1 82.6001 143.1 82.6001 143.2Z" fill="black"/>
<path d="M132.7 173.3V173.4H132.8C132.8 173.3 132.8 173.3 132.7 173.3Z" fill="black"/>
<path d="M127.8 148.3V148.2C127.8 148.2 127.7 148.2 127.8 148.3C127.8 148.2 127.8 148.2 127.8 148.2H127.7C127.7 148.2 127.7 148.2 127.8 148.3C127.7 148.3 127.7 148.3 127.8 148.3Z" fill="black"/>
<path d="M97.7001 173.4V173.3C97.7001 173.3 97.7001 173.3 97.7001 173.4V173.3H97.6001V173.4C97.6001 173.4 97.6001 173.4 97.7001 173.4Z" fill="black"/>
<path d="M92.8003 178.6C92.8003 182 92.8003 185 92.8003 188.2C96.1003 188.2 99.2003 188.2 102.4 188.2C102.4 183.2 102.4 178.3 102.4 173.4C100.7 173.4 99.2003 173.4 97.7003 173.4C97.7003 175 97.7003 176.6 97.7003 178.2C95.7003 178.3 94.3003 178.5 92.8003 178.6Z" fill="black"/>
<path d="M127.7 178.3C127.7 178.4 127.7 178.4 127.7 178.3C127.8 178.4 127.8 178.3 127.7 178.3Z" fill="black"/>
<path d="M122.5 158.5C120.8 158.5 119.3 158.5 117.8 158.5C117.8 160.2 117.8 161.7 117.8 163.2C119.4 163.2 121 163.2 122.5 163.2C122.5 161.4 122.5 159.9 122.5 158.5Z" fill="black"/>
<path d="M117.6 163.2L117.7 163.3V163.2C117.7 163.2 117.7 163.2 117.6 163.2Z" fill="black"/>
<path d="M112.8 178.2C114.4 178.2 115.9 178.2 117.4 178.2C117.4 176.5 117.4 175 117.4 173.6C115.7 173.6 114.2 173.6 112.8 173.6C112.8 175.3 112.8 176.6 112.8 178.2Z" fill="black"/>
<path d="M82.6001 198.4L82.7001 198.5V198.4C82.6001 198.4 82.6001 198.4 82.6001 198.4Z" fill="black"/>
<path d="M87.4002 193.7C85.7002 193.7 84.2002 193.7 82.7002 193.7C82.7002 195.4 82.7002 196.9 82.7002 198.4C84.3002 198.4 85.9002 198.4 87.4002 198.4C87.4002 196.6 87.4002 195.1 87.4002 193.7Z" fill="black"/>
<path d="M127.8 113C127.7 113 127.7 113 127.8 113C127.7 113 127.7 113.1 127.7 113.1H127.8C127.8 113 127.8 113 127.8 113Z" fill="black"/>
<path d="M127.8 108.1C127.8 108 127.8 108 127.8 108.1C127.8 108 127.7 108 127.7 108V108.1C127.7 108.1 127.7 108.1 127.8 108.1Z" fill="black"/>
<path d="M152.7 103C152.8 103 152.8 102.9 152.8 102.9H152.7C152.7 103 152.7 103 152.7 103Z" fill="black"/>
<path d="M127.8 52.7H127.7V52.8C127.7 52.8 127.7 52.8 127.8 52.7Z" fill="black"/>
<path d="M137.5 57.7C137.5 55.8 137.5 54.4 137.5 52.8C135.8 52.8 134.3 52.8 132.8 52.8C132.8 54.4 132.8 56.1 132.8 57.7C134.3 57.7 135.9 57.7 137.5 57.7Z" fill="black"/>
<path d="M132.8 52.8C132.8 52.7 132.8 52.7 132.8 52.8C132.8 52.7 132.7 52.7 132.7 52.7V52.8C132.7 52.8 132.7 52.8 132.8 52.8Z" fill="black"/>
<path d="M132.7 57.8C132.8 57.8 132.8 57.7 132.8 57.7H132.7V57.8Z" fill="black"/>
<path d="M127.8 62.7C129.3 62.7 130.9 62.7 132.7 62.7C132.7 60.9 132.7 59.3 132.7 57.8C131.1 57.8 129.4 57.8 127.8 57.8C127.8 59.4 127.8 61.1 127.8 62.7Z" fill="black"/>
<path d="M127.7 62.8C127.8 62.8 127.8 62.7 127.8 62.7H127.7C127.7 62.8 127.7 62.8 127.7 62.8Z" fill="black"/>
<path d="M122.7 62.9C122.755 62.9 122.8 62.8552 122.8 62.8C122.8 62.7448 122.755 62.7 122.7 62.7C122.645 62.7 122.6 62.7448 122.6 62.8C122.6 62.8552 122.645 62.9 122.7 62.9Z" fill="black"/>
<path d="M122.7 67.8C124.2 67.8 125.8 67.8 127.6 67.8C127.6 66 127.6 64.4 127.6 62.9C126 62.9 124.3 62.9 122.7 62.9C122.7 64.5 122.7 66.1 122.7 67.8Z" fill="black"/>
<path d="M117.7 72.8C119.2 72.8 120.8 72.8 122.6 72.8C122.6 71 122.6 69.4 122.6 67.9C121 67.9 119.3 67.9 117.7 67.9C117.7 69.5 117.7 71.1 117.7 72.8Z" fill="black"/>
<path d="M117.7 72.8H117.6V72.9C117.7 72.9 117.7 72.9 117.7 72.8Z" fill="black"/>
<path d="M122.6 67.9C122.7 67.9 122.7 67.9 122.6 67.9C122.7 67.9 122.7 67.8 122.7 67.8H122.6C122.6 67.8 122.6 67.8 122.6 67.9Z" fill="black"/>
<path d="M167.8 103V102.9H167.7C167.7 103 167.7 103 167.8 103Z" fill="black"/>
<path d="M172.8 98C172.8 97.9 172.7 97.9 172.7 97.9V98C172.8 98 172.8 98 172.8 98Z" fill="black"/>
<path d="M182.8 123C182.8 123.1 182.8 123.1 182.8 123C182.8 123.1 182.9 123.1 182.9 123.1V123C182.8 123 182.8 123 182.8 123Z" fill="black"/>
<path d="M178.1 117.8C178.1 116 178.1 114.6 178.1 113.1C179.8 113 181.1 113 182.6 112.9C182.6 111.2 182.6 109.7 182.6 108.2C180.9 108.1 179.5 107.9 177.7 107.8C177.7 104.4 177.7 101.3 177.7 98C175.9 98 174.4 98 172.9 98C172.9 99.5 172.9 101 172.9 103C171.1 103 169.5 103 167.9 103C167.9 104.6 167.8 106.3 167.8 107.9C166.2 107.9 164.6 107.9 162.8 107.9C162.8 109.9 162.8 111.4 162.8 112.9C161.3 112.9 159.8 112.9 158.1 112.9C158 111.3 157.9 109.9 157.7 108.1C156.2 108 154.7 107.8 152.8 107.7C152.8 106.1 152.8 104.5 152.8 102.9C151.2 102.9 149.6 102.9 148 102.9C147.8 104.8 147.7 106.2 147.6 107.9C140.8 107.9 134.4 107.9 127.9 107.9C127.9 109.5 127.9 111.2 127.9 112.8C136.1 112.8 144.2 112.8 152.8 112.8C152.8 116.3 152.8 119.6 152.8 122.8C151.2 122.8 149.6 122.8 147.8 122.8C147.8 124.8 147.8 126.3 147.8 127.8C144.5 127.8 141.2 127.8 137.9 127.8C137.9 126.3 137.9 124.8 137.9 123C139.5 122.9 140.9 122.8 142.6 122.6C142.6 121.1 142.6 119.6 142.6 117.8C137.8 117.8 133 117.8 127.7 117.8C127.7 115.9 127.7 114.3 127.7 112.8C126.1 112.8 124.4 112.8 122.8 112.8C122.8 116.1 122.8 119.3 122.8 122.6C124.7 122.8 126.2 122.9 127.6 123C127.6 124.7 127.6 126.1 127.6 127.7C126 127.8 124.5 127.9 123 128C123 129.7 123 131.2 123 132.8C126.4 132.8 129.6 132.8 132.7 132.8C132.7 131.3 132.7 129.7 132.7 127.9C134.6 127.9 136.2 127.9 137.7 127.9C137.7 129.5 137.7 131.2 137.7 132.8C136.1 132.8 134.4 132.9 132.8 132.9C132.8 134.5 132.8 136.2 132.8 137.8C134.3 137.8 135.9 137.8 137.8 137.8C137.8 136 137.8 134.4 137.8 132.9C141.1 132.9 144.3 132.9 147.8 132.9C147.8 130.9 147.8 129.4 147.8 127.9C149.4 127.9 151 127.9 152.8 127.9C152.8 125.9 152.8 124.4 152.8 122.9C154.3 122.9 155.8 122.9 157.5 122.9C157.6 124.5 157.7 126 157.9 127.7C159.4 127.7 160.9 127.7 162.8 127.7C162.8 122.7 162.8 117.8 162.8 112.9C164.4 112.9 166.1 112.9 167.7 112.9C167.7 114.4 167.7 115.9 167.7 117.6C169.4 117.7 170.9 117.9 172.5 118C172.6 119.5 172.8 121 172.9 122.8C176.2 122.8 179.4 122.8 182.7 122.8C182.7 121.2 182.7 119.6 182.7 118C180.9 118.1 179.4 118 178.1 117.8ZM172.6 113C171 113 169.5 113 167.9 113C167.9 111.4 167.9 109.7 167.9 108.1C169.4 108.1 170.9 108.1 172.6 108.1C172.6 109.6 172.6 111.1 172.6 113Z" fill="black"/>
<path d="M182.9 128.1V128H182.8L182.9 128.1Z" fill="black"/>
<path d="M143 78.1C143 79.8 143 81.3 143 82.9C144.7 82.9 146.2 82.9 147.7 82.9C147.7 81.3 147.7 79.7 147.7 78.1C145.9 78.1 144.4 78.1 143 78.1Z" fill="black"/>
<path d="M147.7 82.8V82.9C147.7 82.9 147.7 82.9 147.7 82.8V82.9C147.7 82.9 147.8 82.9 147.7 82.8C147.8 82.9 147.8 82.8 147.8 82.8C147.8 82.8 147.7 82.8 147.7 82.8Z" fill="black"/>
<path d="M192.8 133.2C191.3 133.2 189.8 133.2 188.1 133.2C188 134.8 187.8 136.3 187.7 138.2C182.7 138.2 177.8 138.2 172.9 138.2C172.9 139.8 172.8 141.5 172.8 143.1C169.6 143.1 166.3 143.1 162.7 143.1C162.7 139.5 162.7 136.4 162.7 133.3C160.9 133.3 159.5 133.3 158 133.3C157.9 134.9 157.8 136.4 157.7 138C156 138.2 154.5 138.3 152.8 138.4C152.8 140.1 152.8 141.6 152.8 143.1C151.3 143.1 149.8 143.1 148.1 143.1C148 144.8 147.8 146.3 147.7 148C146.2 148 144.7 148 143 148C142.9 146.5 142.8 145.1 142.7 143.5C141.2 143.5 139.8 143.5 138 143.5C137.9 144.9 137.8 146.3 137.6 148.3C134.3 148.3 131.1 148.3 127.8 148.3C127.8 154.9 127.8 161.5 127.8 168.2C125.9 168.3 124.4 168.5 123 168.6C123 172 123 175.2 123 178.4C124.7 178.4 126.2 178.4 127.7 178.4C127.7 176.9 127.7 175.4 127.7 173.4C129.5 173.4 131.1 173.4 132.7 173.4C132.7 171.9 132.7 170.4 132.7 168.4C134.5 168.4 136.1 168.4 137.7 168.4C137.7 165.2 137.7 162 137.7 158.6C136.1 158.5 134.6 158.3 132.9 158.2C132.9 156.7 132.9 155.3 132.9 153.6C139.3 153.6 145.8 153.6 152.8 153.6C152.8 156.8 152.8 160.1 152.8 163.3C154.4 163.3 156 163.3 157.6 163.3C157.8 161.4 157.9 160 158 158.3C159.7 158.3 161.2 158.3 162.7 158.3C162.7 156.7 162.8 155 162.8 153.4C164.4 153.4 166.1 153.4 167.7 153.4C167.7 155 167.7 156.7 167.7 158.3C166.1 158.3 164.4 158.4 162.8 158.4C162.8 161.7 162.8 164.9 162.8 168.3C168.1 168.3 172.9 168.3 177.7 168.3C177.7 166.8 177.7 165.3 177.7 163.3C179.5 163.3 181.1 163.3 182.7 163.3C182.7 161.7 182.7 160.1 182.7 158.5C180.9 158.3 179.4 158.2 178 158.1C178 156.4 178 154.9 178 153.3C181.4 153.3 184.6 153.3 187.7 153.3C187.7 154.8 187.7 156.3 187.7 158.2C189.5 158.2 191.1 158.2 192.7 158.2C192.7 156.6 192.7 154.9 192.7 153.3C191.1 153.3 189.4 153.2 187.8 153.2C187.8 151.6 187.8 150 187.8 148.3C189.7 148.3 191.2 148.3 192.7 148.3C192.7 149.9 192.8 151.6 192.8 153.2C194.3 153.2 195.9 153.2 197.7 153.2C197.7 151.4 197.7 149.8 197.7 148.3C196.1 148.3 194.4 148.2 192.8 148.2C192.8 143.2 192.8 138.2 192.8 133.2ZM152.8 148.2C152.8 146.4 152.8 144.8 152.8 143.3C154.4 143.3 156 143.3 157.7 143.3C157.7 145.2 157.7 146.7 157.7 148.2C156.2 148.2 154.6 148.2 152.8 148.2ZM157.8 153.2C157.8 151.4 157.8 149.8 157.8 148.3C159.4 148.3 161 148.3 162.7 148.3C162.7 150.2 162.7 151.7 162.7 153.2C161.2 153.2 159.6 153.2 157.8 153.2ZM172.5 163C171.1 163 169.6 163 167.8 163C167.8 161.4 167.8 159.8 167.8 158.2C169.3 158.2 170.8 158.2 172.5 158.2C172.5 159.9 172.5 161.3 172.5 163ZM167.8 153.2C167.8 151.6 167.8 150 167.8 148.3C169.7 148.3 171.2 148.3 172.7 148.3C172.7 149.8 172.7 151.4 172.7 153.2C170.9 153.2 169.4 153.2 167.8 153.2ZM182.6 148.2C179.4 148.2 176.1 148.2 172.9 148.2C172.9 146.6 172.9 144.9 172.9 143.3C176.1 143.3 179.2 143.3 182.6 143.3C182.6 144.8 182.6 146.3 182.6 148.2Z" fill="black"/>
<path d="M172.8 138.2C172.9 138.2 172.9 138.1 172.9 138.1L172.8 138.2Z" fill="black"/>
<path d="M182.8 163.3C182.9 163.3 182.9 163.3 182.8 163.3C182.8 163.2 182.8 163.2 182.8 163.3Z" fill="black"/>
<path d="M177.8 168.3V168.4H177.9C177.9 168.3 177.9 168.3 177.8 168.3Z" fill="black"/>
<path d="M162.8 158.3V158.2H162.7C162.7 158.2 162.7 158.3 162.8 158.3Z" fill="black"/>
<path d="M137.8 173.3H137.7V173.4C137.7 173.4 137.7 173.4 137.8 173.3Z" fill="black"/>
<path d="M137.8 168.4V168.3H137.7C137.7 168.3 137.7 168.3 137.8 168.4C137.7 168.4 137.7 168.4 137.8 168.4Z" fill="black"/>
<path d="M152.7 163.3C152.8 163.3 152.8 163.2 152.8 163.2H152.7C152.7 163.3 152.7 163.3 152.7 163.3Z" fill="black"/>
<path d="M142.5 168.4C140.9 168.4 139.3 168.4 137.7 168.4C137.7 170 137.7 171.7 137.7 173.3C140.9 173.3 144.2 173.3 147.5 173.3C147.7 171.5 147.8 170 147.9 168.5C149.6 168.4 151.1 168.2 152.6 168.1C152.6 166.3 152.6 164.8 152.6 163.3C149.4 163.3 146.3 163.3 142.9 163.3C142.8 164.9 142.7 166.4 142.5 168.4Z" fill="black"/>
<path d="M182.9 163.3C182.9 164.9 182.9 166.6 182.9 168.2C186.2 168.2 189.5 168.3 192.8 168.3C192.8 169.9 192.9 171.6 192.9 173.2C194.5 173.2 196.1 173.2 197.9 173.2C197.9 171.3 197.9 169.8 197.9 168.3C199.5 168.3 201.2 168.2 202.8 168.2C202.8 166.7 202.8 165.2 202.8 163.2C204.6 163.2 206.2 163.2 207.8 163.2C207.8 161.6 207.8 160 207.8 158.3C202.6 158.3 197.7 158.3 192.9 158.3C192.9 159.9 192.8 161.6 192.8 163.2C189.5 163.3 186.2 163.3 182.9 163.3ZM197.8 168.3C196.2 168.3 194.5 168.3 192.9 168.3C192.9 166.7 192.9 165 192.9 163.4C194.4 163.4 196 163.4 197.8 163.4C197.8 165.2 197.8 166.7 197.8 168.3Z" fill="black"/>
<path d="M182.9 168.3H182.8V168.4C182.8 168.4 182.8 168.4 182.9 168.3Z" fill="black"/>
<path d="M192.9 173.4V173.3H192.8L192.9 173.4Z" fill="black"/>
<path d="M192.9 173.4L192.8 173.3V173.4H192.9Z" fill="black"/>
<path d="M188.1 178.1C189.8 178.1 191.3 178.1 192.8 178.1C192.8 176.4 192.8 174.9 192.8 173.4C191.2 173.4 189.6 173.4 188.1 173.4C188.1 175.2 188.1 176.7 188.1 178.1Z" fill="black"/>
<path d="M197.8 193.7C196.2 193.7 194.7 193.7 193.1 193.7C193.1 195.3 193.1 196.8 193.1 198.2C194.8 198.2 196.3 198.2 197.8 198.2C197.8 196.6 197.8 195.3 197.8 193.7Z" fill="black"/>
<path d="M47.3002 32.9C42.2002 32.9 37.4002 32.9 32.7002 32.9C32.7002 37.9 32.7002 42.7 32.7002 47.5C37.6002 47.5 42.3002 47.5 47.3002 47.5C47.3002 42.4 47.3002 37.6 47.3002 32.9Z" fill="black"/>
<path d="M32.8003 218.5C37.7003 218.5 42.3003 218.5 47.3003 218.5C47.3003 213.4 47.3003 208.6 47.3003 203.7C42.3003 203.7 37.5003 203.7 32.8003 203.7C32.8003 208.8 32.8003 213.6 32.8003 218.5Z" fill="black"/>
<path d="M217.8 32.9C212.6 32.9 207.8 32.9 203.1 32.9C203.1 37.9 203.1 42.6 203.1 47.5C208.1 47.5 212.9 47.5 217.8 47.5C217.8 42.5 217.8 37.8 217.8 32.9Z" fill="black"/>
<path d="M97.4001 57.6C97.5001 55.9 97.7001 54.4 97.8001 52.7C99.5001 52.7 101 52.7 102.5 52.7C102.5 51.1 102.5 49.5 102.5 47.9C100.6 47.7 99.2001 47.6 97.6001 47.5C97.5001 45.8 97.5001 44.4 97.4001 42.9C95.6001 42.9 94.0001 42.9 92.4001 42.9C92.4001 47.8 92.4001 52.7 92.4001 57.6C94.6001 57.6 96.0001 57.6 97.4001 57.6Z" fill="black"/>
<path d="M102.7 52.7H102.6V52.8L102.7 52.7Z" fill="black"/>
<path d="M107.7 67.8C107.6 67.8 107.6 67.9 107.6 67.9H107.7C107.7 67.8 107.7 67.8 107.7 67.8Z" fill="black"/>
<path d="M117.6 62.8C114.3 62.8 111.1 62.8 107.7 62.8C107.7 64.7 107.7 66.2 107.7 67.7C111 67.7 114.3 67.7 117.6 67.7C117.6 66.1 117.6 64.5 117.6 62.8Z" fill="black"/>
<path d="M117.7 67.9C117.755 67.9 117.8 67.8552 117.8 67.8C117.8 67.7448 117.755 67.7 117.7 67.7C117.645 67.7 117.6 67.7448 117.6 67.8C117.6 67.8552 117.645 67.9 117.7 67.9Z" fill="black"/>
<path d="M92.5002 42.8C92.6002 42.8 92.6002 42.8 92.5002 42.8C92.5002 42.9 92.5002 42.9 92.5002 42.8Z" fill="black"/>
<path d="M82.7001 57.7H82.6001C82.6001 57.7 82.6001 57.7 82.7001 57.7H82.6001V57.8H82.7001C82.7001 57.8 82.7001 57.8 82.7001 57.7Z" fill="black"/>
<path d="M87.4002 53C85.7002 53 84.2002 53 82.7002 53C82.7002 54.7 82.7002 56.2 82.7002 57.7C84.3002 57.7 85.9002 57.7 87.4002 57.7C87.4002 55.9 87.4002 54.4 87.4002 53Z" fill="black"/>
<path d="M107.4 57.5C107.4 55.8 107.4 54.3 107.4 52.7C105.7 52.7 104.2 52.7 102.7 52.7C102.7 54.3 102.7 55.9 102.7 57.5C104.5 57.5 106 57.5 107.4 57.5Z" fill="black"/>
<path d="M102.7 52.7L102.6 52.8H102.7C102.7 52.7 102.7 52.7 102.7 52.7Z" fill="black"/>
<path d="M117.7 62.7C117.6 62.7 117.6 62.8 117.6 62.8H117.7C117.7 62.8 117.7 62.8 117.7 62.7Z" fill="black"/>
<path d="M97.6001 67.9L97.7001 67.8H97.6001C97.6001 67.8 97.6001 67.8 97.6001 67.9Z" fill="black"/>
<path d="M92.9001 63C92.9001 64.7 92.9001 66.2 92.9001 67.8C94.6001 67.8 96.1001 67.8 97.6001 67.8C97.6001 66.2 97.6001 64.6 97.6001 63C95.8001 63 94.3001 63 92.9001 63Z" fill="black"/>
<path d="M147.8 32.9C145.8 32.9 144.4 32.9 142.7 32.9C142.7 34.6 142.7 36.1 142.7 37.6C141.2 37.6 139.7 37.6 138 37.6C137.9 39.3 137.7 40.8 137.6 42.5C136.1 42.6 134.6 42.8 132.7 42.9C132.7 44.5 132.7 46.1 132.7 47.7C131.1 47.7 129.5 47.7 127.8 47.7C127.8 49.7 127.8 51.2 127.8 52.7C129.4 52.7 131.1 52.7 132.7 52.7C132.7 51.1 132.8 49.4 132.8 47.8C136 47.8 139.1 47.8 142.6 47.8C142.6 52.7 142.6 57.6 142.6 62.8C144.5 62.8 146.1 62.8 147.7 62.8C147.7 56.1 147.7 49.5 147.7 42.8C146.2 42.8 144.6 42.8 142.8 42.8C142.8 40.9 142.8 39.3 142.8 37.8C144.4 37.8 146.1 37.8 147.7 37.8C147.7 39.4 147.8 41.1 147.8 42.7C149.3 42.7 150.9 42.7 152.7 42.7C152.7 40.9 152.7 39.3 152.7 37.8C151.1 37.8 149.4 37.7 147.8 37.7C147.8 36 147.8 34.4 147.8 32.9Z" fill="black"/>
<path d="M127.7 57.9C127.755 57.9 127.8 57.8552 127.8 57.8C127.8 57.7448 127.755 57.7 127.7 57.7C127.645 57.7 127.6 57.7448 127.6 57.8C127.6 57.8552 127.645 57.9 127.7 57.9Z" fill="black"/>
<path d="M127.7 52.8C126.2 52.8 124.6 52.8 122.8 52.8C122.8 54.6 122.8 56.2 122.8 57.7C124.4 57.7 126.1 57.7 127.7 57.7C127.7 56.1 127.7 54.4 127.7 52.8Z" fill="black"/>
<path d="M122.7 57.7C122.6 57.7 122.6 57.8 122.6 57.8H122.7V57.7Z" fill="black"/>
<path d="M192.9 128.2C192.9 128.1 192.9 128.1 192.9 128.2C192.9 128.1 192.8 128.1 192.8 128.1V128.2C192.8 128.2 192.8 128.2 192.9 128.2Z" fill="black"/>
<path d="M192.8 133.1C192.8 133.2 192.8 133.2 192.8 133.1C192.9 133.1 192.9 133.1 192.8 133.1Z" fill="black"/>
<path d="M172.8 138.2L172.9 138.1H172.8V138.2Z" fill="black"/>
<path d="M168 128.3C168 131.7 168 134.8 168 138.1C169.7 138.1 171.2 138.1 172.7 138.1C172.7 134.8 172.7 131.6 172.7 128.3C170.9 128.3 169.5 128.3 168 128.3Z" fill="black"/>
<path d="M182.9 128.1L182.8 128V128.1C182.8 128.1 182.8 128.1 182.9 128.1Z" fill="black"/>
<path d="M178 132.9C179.7 132.9 181.2 132.9 182.7 132.9C182.7 131.2 182.7 129.7 182.7 128.2C181.1 128.2 179.5 128.2 178 128.2C178 130 178 131.5 178 132.9Z" fill="black"/>
</g>
<defs>
<clipPath id="clip0_108_2850">
<rect width="250.5" height="251.3" fill="white"/>
</clipPath>
</defs>
</svg>
