<svg width="66" height="30" viewBox="0 0 66 30" fill="none" xmlns="http://www.w3.org/2000/svg">
<g clip-path="url(#clip0_52_2690)">
<path d="M4.90812 30.0001C2.2051 30.0001 0 27.8128 0 25.092C0 22.3712 2.2051 20.1838 4.90812 20.1838C7.62893 20.1838 9.81624 22.3889 9.81624 25.092C9.81624 27.8128 7.62893 30.0001 4.90812 30.0001Z" fill="black"/>
<path d="M11.6301 29.9644V0H21.4464V20.1482C21.4642 25.572 17.054 29.9644 11.6301 29.9644Z" fill="black"/>
<path d="M62.2229 2.86307C62.0628 2.70302 61.885 2.54298 61.7072 2.38293C61.0847 1.83165 60.3912 1.36929 59.6265 0.995851L55.3053 4.16123L50.4683 7.64671C50.0593 5.79727 49.1168 4.16123 47.8364 2.88085C47.6763 2.72081 47.4985 2.56076 47.3207 2.40071C46.6983 1.84944 46.0047 1.38708 45.2401 1.01363L40.901 4.14345L35.8684 7.78897C34.9437 3.34321 30.9958 0 26.2833 0V20.166C26.2833 25.572 30.6757 29.9644 36.0818 29.9644V10.5098L40.901 7.0243V20.166C40.901 25.572 45.2934 29.9644 50.6994 29.9644V10.3497L55.3053 7.0243V20.166C55.3053 25.572 59.6977 29.9644 65.1037 29.9644V9.79846C65.1037 7.09544 64.0012 4.64138 62.2229 2.86307Z" fill="black"/>
</g>
<defs>
<clipPath id="clip0_52_2690">
<rect width="65.1037" height="30" fill="white"/>
</clipPath>
</defs>
</svg>
