<svg width="114" height="28" viewBox="0 0 114 28" fill="none" xmlns="http://www.w3.org/2000/svg">
<g clip-path="url(#clip0_52_2583)">
<path d="M13.5247 10.8089V6.70801C13.5247 4.61684 13.0359 2.98735 12.031 1.90103C11.0262 0.814705 9.53249 0.244385 7.54995 0.244385H0V27.7555H7.35985C9.64113 27.7555 11.2435 27.0494 12.1397 25.6372C13.063 24.225 13.4976 22.2153 13.4976 19.6081V17.191C12.1668 16.7294 11.2163 15.4801 11.2163 14.0135C11.2163 12.547 12.194 11.2706 13.5247 10.8089ZM8.01164 21.4277C8.01164 22.4054 7.49564 22.8942 6.49079 22.8942H5.54025V5.05137H6.13773C6.89816 5.05137 7.387 5.18716 7.63143 5.45874C7.87585 5.73032 8.01164 6.3278 8.01164 7.22402V21.4277Z" fill="#EC7220"/>
<path d="M23.6004 15.9146V20.8574C23.6004 21.4821 23.4918 21.9709 23.3016 22.3511C23.1115 22.7313 22.7856 22.9214 22.2968 22.9214C21.8894 22.9214 21.5635 22.7585 21.3463 22.4597C21.129 22.161 21.0204 21.6178 21.0204 20.8574V7.08826C21.0204 6.46363 21.1018 5.97478 21.2919 5.62173C21.4549 5.24151 21.8079 5.07856 22.324 5.07856C22.7585 5.07856 23.0844 5.21435 23.3016 5.51309C23.5189 5.81183 23.6004 6.355 23.6004 7.16974V11.2435H29.0592V6.46363C29.0592 5.02425 28.7604 3.82929 28.1901 2.8516C27.5926 1.90107 26.805 1.19496 25.8002 0.706111C24.7682 0.244423 23.6275 0 22.324 0C19.934 0 18.2231 0.706111 17.1639 2.11833C16.1047 3.53055 15.5887 5.56741 15.5887 8.25606V10.7818C17.001 11.1891 18.0058 12.4927 18.0058 14.0136C18.0058 15.5344 16.9738 16.838 15.5887 17.2454V20.9389C15.5887 23.1659 16.1862 24.904 17.4083 26.1533C18.6305 27.4025 20.2328 28 22.2153 28C24.388 28 26.0989 27.4568 27.321 26.3705C28.5432 25.2842 29.1406 23.5189 29.1406 21.1018V15.9146H23.6004Z" fill="#000117"/>
<path d="M42.8283 6.02917C41.579 4.72558 39.868 4.04663 37.6682 4.04663C35.4684 4.04663 33.7575 4.69843 32.5354 6.02917C31.2861 7.35992 30.6886 9.09804 30.6886 11.325V20.7217C30.6886 25.5558 33.0242 27.9729 37.6954 27.9729C42.3666 27.9729 44.7022 25.5558 44.7022 20.7217V11.325C44.7022 9.1252 44.0775 7.35992 42.8283 6.02917ZM38.999 21.8895C38.999 22.4055 38.8903 22.84 38.7002 23.1931C38.5101 23.5461 38.1571 23.7091 37.6954 23.7091C37.2337 23.7091 36.8806 23.5461 36.6905 23.1931C36.5004 22.84 36.3918 22.4327 36.3918 21.8895V10.4288C36.3918 9.07088 36.8263 8.39193 37.6954 8.39193C38.5644 8.39193 38.999 9.07088 38.999 10.4288V21.8895Z" fill="#000117"/>
<path d="M59.4219 5.56743C58.6886 4.56258 57.5208 4.07373 55.8914 4.07373C54.8865 4.07373 54.0989 4.39963 53.5286 5.02426C52.9583 5.6489 52.5781 6.40933 52.3608 7.30554V4.31815H46.7662V27.7556H52.3608V11.2706C52.3608 10.8361 52.388 10.4016 52.4423 9.93988C52.4966 9.50535 52.6324 9.12514 52.8225 8.8264C53.0398 8.52766 53.3385 8.39187 53.773 8.39187C54.2347 8.39187 54.5606 8.58197 54.7507 8.98935C54.9408 9.36956 55.0223 9.80409 55.0223 10.2658V27.7556H60.5354V9.6683C60.5082 7.93018 60.1552 6.57228 59.4219 5.56743Z" fill="#000117"/>
<path d="M70.6926 9.47814V5.21432H69.1174V0.244385H63.6858V5.21432H62.1106V9.47814H63.6858V24.0892C63.6858 25.4199 63.9573 26.3976 64.4733 27.0223C64.9894 27.6741 66.0214 27.9728 67.5151 27.9728C68.194 27.9728 68.873 27.9185 69.5248 27.7827C70.1766 27.6741 70.5839 27.5926 70.6926 27.5383V23.7361C70.5024 23.7633 70.258 23.7905 70.0136 23.7905C69.6605 23.7905 69.4161 23.709 69.3075 23.546C69.1717 23.3831 69.1174 23.1115 69.1174 22.7313V9.42382H70.6926V9.47814Z" fill="#000117"/>
<path d="M79.6004 4.80687C78.9215 5.32288 78.4326 6.02899 78.161 6.9252V4.31803H72.485V27.7555H78.161V9.83112C78.161 9.61386 78.4055 9.42375 78.8943 9.2608C79.3831 9.09785 79.9263 8.96206 80.5781 8.85343C81.2027 8.7448 81.7731 8.71764 82.2076 8.71764V4.01929C81.1484 4.01929 80.2794 4.29087 79.6004 4.80687Z" fill="#000117"/>
<path d="M95.5422 6.02917C94.2929 4.72558 92.582 4.04663 90.3822 4.04663C88.1823 4.04663 86.4714 4.69843 85.2493 6.02917C84 7.35992 83.3754 9.09804 83.3754 11.325V20.7217C83.3754 25.5558 85.711 27.9729 90.3822 27.9729C95.0533 27.9729 97.3889 25.5558 97.3889 20.7217V11.325C97.3889 9.1252 96.7643 7.35992 95.5422 6.02917ZM91.6857 21.8895C91.6857 22.4055 91.5771 22.84 91.387 23.1931C91.1697 23.519 90.8438 23.7091 90.3822 23.7091C89.9205 23.7091 89.5674 23.5461 89.3773 23.1931C89.1872 22.8672 89.0786 22.4327 89.0786 21.8895V10.4288C89.0786 9.07088 89.5131 8.39193 90.3822 8.39193C91.2512 8.39193 91.6857 9.07088 91.6857 10.4288V21.8895Z" fill="#000117"/>
<path d="M99.453 0.244385V27.7555H105.129V0.244385H99.453Z" fill="#000117"/>
<path d="M107.41 0.244385V27.7555H113.086V0.244385H107.41Z" fill="#000117"/>
</g>
<defs>
<clipPath id="clip0_52_2583">
<rect width="113.086" height="28" fill="white"/>
</clipPath>
</defs>
</svg>
