<svg width="116" height="30" viewBox="0 0 116 30" fill="none" xmlns="http://www.w3.org/2000/svg">
<path d="M109.543 21.269V12.0812C109.543 10.9137 109.442 10.1523 109.34 9.84772C109.137 9.28934 108.68 8.83249 108.02 8.52792C107.817 8.4264 107.462 8.27411 106.853 8.0203H115.33C114.365 8.37563 113.655 8.78173 113.3 9.18782C112.995 9.54315 112.792 9.89848 112.741 10.3553C112.69 10.7614 112.64 11.3198 112.64 12.0812V29.9492L97.1574 13.4518V24.8223C97.1574 25.9899 97.2589 26.7513 97.3604 27.0558C97.5635 27.6142 98.0203 28.0711 98.6802 28.3756C98.8833 28.4772 99.2386 28.6294 99.8477 28.8833H91.3706C92.335 28.5279 93.0457 28.1218 93.401 27.7157C93.7056 27.3604 93.9086 27.0051 93.9594 26.5482C94.0102 26.1421 94.0609 25.5838 94.0609 24.8223V12.132C94.0609 10.7614 93.8071 9.84772 93.2995 9.23858C92.7919 8.73096 92.0305 8.32487 90.9137 7.96954H97.0051L109.543 21.269ZM78.6802 10.5076C76.599 10.5076 74.9239 11.3706 73.6548 13.0964C72.5888 14.5685 72.0305 16.2944 72.0305 18.3756C72.0305 20.5076 72.5888 22.3858 73.7564 23.9594C75.0254 25.6853 76.599 26.4975 78.5279 26.4975C79.5432 26.4975 80.5584 26.2437 81.4721 25.6853C82.4366 25.1777 83.198 24.467 83.8071 23.5533C84.7208 22.2335 85.1777 20.4569 85.1777 18.2741C85.1777 16.1929 84.6701 14.4162 83.6548 12.9442C82.5381 11.3198 80.863 10.5076 78.6802 10.5076ZM78.8325 7.56345C81.9797 7.56345 84.5178 8.57868 86.4467 10.5584C88.4264 12.5888 89.3909 15.1777 89.3909 18.2741C89.3909 21.4213 88.3249 24.0609 86.2437 26.1929C84.1624 28.2741 81.6244 29.3401 78.6294 29.3401C76.9543 29.3401 75.3807 28.9848 73.9086 28.2741C72.4366 27.5635 71.2183 26.5482 70.2031 25.2792C68.6294 23.2995 67.868 20.9645 67.868 18.2234C67.868 15.8883 68.4772 13.8071 69.6954 11.9797C71.6244 9.03553 74.6701 7.56345 78.8325 7.56345ZM66.4975 21.3706C66.1421 23.7563 65.8883 26.2944 65.736 28.934H50.7614C51.7259 28.5787 52.4366 28.1726 52.7919 27.7665C53.0965 27.4112 53.2995 27.0558 53.3503 26.599C53.401 26.1929 53.4518 25.6345 53.4518 24.8731V12.0812C53.4518 10.9137 53.3503 10.1523 53.2487 9.84772C53.0457 9.28934 52.5888 8.83249 51.9797 8.52792C51.7767 8.4264 51.3706 8.27411 50.8122 8.0203H60C59.0355 8.37563 58.3249 8.78173 57.9695 9.18782C57.665 9.54315 57.4619 9.89848 57.4112 10.3553C57.3604 10.7614 57.3097 11.3198 57.3097 12.0812V23.4518C57.3097 24.3655 57.4112 24.9746 57.665 25.2792C57.9188 25.6345 58.3756 25.7868 59.0863 25.8376H61.066C62.6396 25.8376 63.9086 25.3807 64.8223 24.5685C65.4822 23.8071 66.0406 22.7411 66.4975 21.3706ZM37.9695 10.5076C35.8883 10.5076 34.2132 11.3706 32.9442 13.0964C31.8782 14.5685 31.3198 16.2944 31.3198 18.3756C31.3198 20.5076 31.8782 22.3858 33.0457 23.9594C34.3147 25.6853 35.8883 26.4975 37.8173 26.4975C38.8325 26.4975 39.8477 26.2437 40.7614 25.6853C41.7259 25.1777 42.4873 24.467 43.0965 23.5533C44.0102 22.2335 44.467 20.4569 44.467 18.2741C44.467 16.1929 43.9594 14.4162 42.9442 12.9442C41.8274 11.3198 40.1523 10.5076 37.9695 10.5076ZM38.1218 7.56345C41.269 7.56345 43.8071 8.57868 45.736 10.5584C47.7157 12.5888 48.6802 15.1777 48.6802 18.2741C48.6802 21.4213 47.6142 24.0609 45.533 26.1929C43.4518 28.2741 40.9137 29.3401 37.9188 29.3401C36.2437 29.3401 34.6701 28.9848 33.198 28.2741C31.7259 27.5635 30.5076 26.5482 29.4924 25.2792C27.9188 23.2995 27.1574 20.9645 27.1574 18.2234C27.1574 15.8883 27.7665 13.8071 28.9848 11.9797C30.9137 9.03553 33.9594 7.56345 38.1218 7.56345ZM25.0761 21.9289L24.5178 27.7665C23.3503 28.1218 22.3858 28.4264 21.6244 28.5787C19.4416 29.1371 17.2589 29.4416 15.0761 29.4416C10.6599 29.4416 7.15736 28.1218 4.41624 25.4822C2.94416 24.0609 1.82741 22.4366 1.06599 20.5584C0.406091 18.731 0 16.802 0 14.7208C0 11.7259 0.812183 9.03553 2.38579 6.64975C3.85787 4.41624 5.73604 2.79188 8.12183 1.72589C10.2538 0.71066 12.6396 0.253807 15.2284 0.253807C17.1066 0.253807 19.2386 0.456853 21.6244 0.812183C22.0305 0.862944 22.3858 0.913706 22.5888 0.913706C23.198 0.913706 23.7056 0.609137 24.1117 0V6.75127C23.5025 5.83756 22.8934 5.22843 22.335 4.82234C20.5584 3.60406 18.4772 2.99492 15.9898 2.99492C14.1117 2.99492 12.3858 3.40102 10.8122 4.16244C9.23858 4.97462 7.91878 6.04061 6.95432 7.46193C5.68528 9.3401 5.02538 11.7259 5.02538 14.5178C5.02538 18.1726 6.04061 21.0152 8.12183 23.1472C10.0508 25.1269 12.6904 26.0914 15.9391 26.0914C18.0203 26.0914 20 25.6345 21.8274 24.6701C22.8426 24.1117 23.6548 23.6041 24.1624 23.0964C24.4162 22.7919 24.7208 22.4366 25.0761 21.9289Z" fill="black"/>
</svg>
