<svg width="102" height="36" viewBox="0 0 102 36" fill="none" xmlns="http://www.w3.org/2000/svg">
<g clip-path="url(#clip0_52_2672)">
<path d="M81.4849 19.0815L88.3682 11.9818H83.5609L78.3372 17.5407L78.0861 6.6646L74.6077 6.74919L74.4424 17.5407C74.4424 17.5407 73.2788 11.6555 66.567 11.728C64.1726 11.7583 60.0083 13.4138 59.4265 20.1993C59.4265 20.1993 58.1772 18.9244 56.8729 18.0725C55.9604 17.4803 55.0479 17.0573 54.3192 16.6404C53.4679 16.1631 54.7968 13.7764 57.62 16.5619L60.0634 14.0664C60.0634 14.0664 56.781 10.7552 53.719 11.7764C50.6571 12.7975 48.7464 16.7129 51.937 19.299C53.1985 20.3202 55.0112 21.2205 55.9175 21.9999C56.9218 22.858 56.9953 23.8791 55.3786 23.9214C53.719 23.9576 52.2309 21.8731 52.2309 21.8731L50.9878 23.1842L48.5076 20.7734C48.5076 20.7734 43.2226 26.2114 38.5133 22.3625C33.4978 18.2718 36.7741 12.4712 39.0094 11.4501C41.2507 10.4289 44.772 10.1389 48.4157 13.2084L51.1531 10.3867C51.1531 10.3867 48.1585 7.14798 43.7799 6.61022C40.8955 6.24768 36.4435 7.11173 34.0796 10.9607C34.0796 10.9607 29.8541 -0.85806 19.4618 1.67366C11.2741 3.67366 10.4413 11.5468 12.2601 15.7401C14.0483 19.8851 18.2493 19.8851 18.2493 19.8851C18.2493 19.8851 19.3516 16.0664 14.5994 11.8187C14.5994 11.8187 15.763 11.4561 17.0306 12.0362C19.5353 13.1722 22.8422 17.0271 20.9009 22.5015C20.1967 24.4894 18.4942 25.9697 16.8653 28.0604C15.4323 29.9093 13.6074 31.6072 12.2785 34.3867C12.2785 34.3867 13.6074 34.7129 15.2669 34.7129C15.2669 34.7129 16.2774 32.2477 18.4698 30.1329C23.277 25.4984 27.6434 17.583 19.4618 11.4864C19.4618 11.4864 35.929 14.5438 20.9009 34.7129C20.9009 34.7129 28.4456 33.2386 33.8285 23.0211C33.8285 23.0211 39.9647 31.8489 49.9896 24.8217C49.9896 24.8217 51.4838 27.2749 55.2929 27.2024C58.5263 27.1419 59.6899 25.2265 60.1859 23.5891C60.1859 23.5891 62.5865 27.7885 67.3141 27.5166C69.2615 27.4078 71.2947 26.864 73.8606 24.3262L70.3822 22.1208C70.3822 22.1208 65.7403 27.0271 62.9233 20.8942L74.277 20.8096V27.0271L78.4168 26.864V20.5679L84.2223 26.864L88.8642 26.9425L81.4849 19.0815ZM63.2968 17.4561C64.1236 15.6978 65.2014 15.1722 66.861 15.1722C69.8433 15.1722 70.419 17.4561 70.419 17.4561H63.2968Z" fill="#1175BB"/>
<path d="M94.3941 11.5286C90.1931 11.5286 86.7882 15.0996 86.7882 19.5044C86.7882 23.9092 90.1931 27.4742 94.3941 27.4742C98.5951 27.4742 102 23.9092 102 19.5044C102 15.0996 98.5951 11.5286 94.3941 11.5286ZM94.2288 23.7582C92.1099 23.7582 90.3952 21.879 90.3952 19.5648C90.3952 17.2506 92.1099 15.3715 94.2288 15.3715C96.3476 15.3715 98.0623 17.2506 98.0623 19.5648C98.0623 21.879 96.3476 23.7582 94.2288 23.7582Z" fill="#1175BB"/>
<path d="M7.22624 31.9335C7.52019 32.2054 9.49822 28.3021 12.3642 26.29C16.1794 23.6133 17.6675 21.5468 17.6675 21.5468C17.6675 21.5468 7.30585 23.1843 6.80982 13.7764C6.46688 7.24469 13.2522 1.17823 19.076 0.0422758C19.076 0.0422758 7.4712 -1.2689 1.69634 10.7553C-1.65956 17.7402 -0.153079 25.0634 7.22624 31.9335Z" fill="#22A8E1"/>
<path d="M39.0829 30.5137C39.0829 30.5801 39.0829 30.6405 39.0768 30.6889C39.0706 30.7372 39.0645 30.7735 39.0523 30.8037C39.04 30.8339 39.0278 30.852 39.0094 30.8702C38.991 30.8883 38.9726 30.8943 38.9482 30.8943H37.7846V34.5862C37.7846 34.6103 37.7785 34.6285 37.7601 34.6526C37.7417 34.6768 37.7172 34.6889 37.6805 34.701C37.6438 34.7131 37.5948 34.7251 37.5335 34.7312C37.4723 34.7372 37.3988 34.7433 37.3069 34.7433C37.2151 34.7433 37.1416 34.7372 37.0804 34.7312C37.0191 34.7251 36.9701 34.7131 36.9334 34.701C36.8966 34.6889 36.8721 34.6768 36.8538 34.6526C36.8354 34.6285 36.8293 34.6103 36.8293 34.5862V30.8943H35.6657C35.6412 30.8943 35.6229 30.8883 35.6045 30.8702C35.5861 30.852 35.5739 30.8339 35.5616 30.8037C35.5494 30.7735 35.5433 30.7372 35.5371 30.6889C35.531 30.6405 35.531 30.5801 35.531 30.5137C35.531 30.4412 35.531 30.3807 35.5371 30.3324C35.5433 30.2841 35.5494 30.2418 35.5616 30.2115C35.5739 30.1813 35.5861 30.1632 35.6045 30.1451C35.6229 30.127 35.6412 30.127 35.6657 30.127H38.9359C38.9604 30.127 38.9788 30.133 38.9971 30.1451C39.0155 30.1572 39.0278 30.1813 39.04 30.2115C39.0523 30.2418 39.0584 30.278 39.0645 30.3324C39.0706 30.3868 39.0829 30.4472 39.0829 30.5137Z" fill="#706F6F"/>
<path d="M44.0494 31.7283C44.0494 31.8128 44.0494 31.8854 44.0433 31.9397C44.0371 31.9941 44.031 32.0364 44.0188 32.0666C44.0065 32.0968 43.9943 32.121 43.982 32.1331C43.9698 32.1452 43.9453 32.1512 43.9208 32.1512C43.9024 32.1512 43.8779 32.1452 43.8534 32.1391C43.8289 32.1331 43.8044 32.121 43.7738 32.115C43.7432 32.1089 43.7126 32.0968 43.6758 32.0908C43.6391 32.0848 43.6023 32.0787 43.5595 32.0787C43.5105 32.0787 43.4615 32.0908 43.4064 32.1089C43.3513 32.127 43.3023 32.1573 43.2533 32.2056C43.2043 32.2539 43.1431 32.3023 43.0818 32.3748C43.0206 32.4473 42.9593 32.5319 42.892 32.6346V34.6044C42.892 34.6286 42.8859 34.6467 42.8675 34.6648C42.8491 34.6829 42.8307 34.695 42.794 34.7071C42.7572 34.7192 42.7144 34.7252 42.6531 34.7313C42.5919 34.7373 42.5245 34.7373 42.4327 34.7373C42.3408 34.7373 42.2735 34.7373 42.2122 34.7313C42.151 34.7252 42.1081 34.7192 42.0714 34.7071C42.0346 34.695 42.0101 34.6829 41.9979 34.6648C41.9856 34.6467 41.9734 34.6286 41.9734 34.6044V31.4443C41.9734 31.4201 41.9795 31.402 41.9918 31.3838C42.004 31.3657 42.0224 31.3536 42.0591 31.3415C42.0959 31.3295 42.1326 31.3234 42.1816 31.3174C42.2306 31.3113 42.2918 31.3113 42.3653 31.3113C42.4449 31.3113 42.5062 31.3113 42.5552 31.3174C42.6042 31.3234 42.647 31.3295 42.6715 31.3415C42.696 31.3536 42.7205 31.3657 42.7328 31.3838C42.745 31.402 42.7511 31.4201 42.7511 31.4443V31.837C42.8369 31.7162 42.9165 31.6195 42.99 31.547C43.0634 31.4745 43.1369 31.408 43.2043 31.3657C43.2717 31.3234 43.339 31.2872 43.4064 31.269C43.4737 31.2509 43.5411 31.2449 43.6085 31.2449C43.6391 31.2449 43.6758 31.2449 43.7065 31.2509C43.7371 31.257 43.7799 31.263 43.8167 31.269C43.8534 31.2751 43.8902 31.2872 43.9147 31.2993C43.9392 31.3113 43.9637 31.3234 43.9759 31.3355C43.9882 31.3476 44.0004 31.3597 44.0065 31.3718C44.0127 31.3838 44.0188 31.408 44.0249 31.4322C44.031 31.4564 44.031 31.4926 44.0372 31.5409C44.0433 31.5893 44.0494 31.6437 44.0494 31.7283Z" fill="#706F6F"/>
<path d="M49.9651 34.6043C49.9651 34.6345 49.9528 34.6647 49.9283 34.6828C49.9038 34.7009 49.8671 34.713 49.8181 34.7251C49.7691 34.7372 49.6895 34.7372 49.5915 34.7372C49.4813 34.7372 49.4078 34.7312 49.3588 34.7251C49.3098 34.7191 49.2731 34.7009 49.2547 34.6828C49.2363 34.6647 49.2241 34.6405 49.2241 34.6043V34.3505C49.0955 34.4895 48.9424 34.5982 48.7709 34.6768C48.5994 34.7553 48.4157 34.7916 48.2075 34.7916C48.036 34.7916 47.8829 34.7674 47.7421 34.7251C47.6012 34.6828 47.4787 34.6164 47.3746 34.5318C47.2705 34.4472 47.1909 34.3384 47.1297 34.2115C47.0684 34.0846 47.0439 33.9336 47.0439 33.7644C47.0439 33.5831 47.0807 33.42 47.1542 33.287C47.2277 33.1541 47.3379 33.0393 47.4787 32.9487C47.6196 32.858 47.8033 32.7976 48.0177 32.7493C48.232 32.7009 48.4831 32.6828 48.7648 32.6828H49.0771V32.4895C49.0771 32.3928 49.0648 32.3022 49.0465 32.2296C49.0281 32.1571 48.9914 32.0907 48.9485 32.0423C48.9056 31.994 48.8383 31.9577 48.7648 31.9336C48.6913 31.9094 48.5933 31.8973 48.4769 31.8973C48.3238 31.8973 48.1891 31.9154 48.0728 31.9457C47.9564 31.9759 47.8523 32.0182 47.7604 32.0544C47.6686 32.0907 47.5951 32.133 47.5339 32.1632C47.4726 32.1934 47.4236 32.2115 47.3869 32.2115C47.3624 32.2115 47.3379 32.2055 47.3195 32.1873C47.3011 32.1692 47.2828 32.1451 47.2705 32.1148C47.2583 32.0846 47.246 32.0484 47.2399 32C47.2338 31.9517 47.2277 31.9034 47.2277 31.849C47.2277 31.7765 47.2338 31.716 47.246 31.6738C47.2583 31.6315 47.2828 31.5952 47.3134 31.5589C47.344 31.5227 47.4053 31.4864 47.491 31.4441C47.5767 31.4018 47.6747 31.3656 47.7849 31.3293C47.8952 31.2931 48.0176 31.2629 48.1524 31.2447C48.2871 31.2266 48.4218 31.2085 48.5627 31.2085C48.8138 31.2085 49.0281 31.2327 49.2057 31.281C49.3833 31.3293 49.5303 31.4018 49.6466 31.5046C49.763 31.6073 49.8426 31.7342 49.8977 31.8913C49.9528 32.0484 49.9773 32.2357 49.9773 32.4532V34.6043H49.9651ZM49.0771 33.2508H48.7341C48.5872 33.2508 48.4647 33.2629 48.3606 33.281C48.2565 33.2991 48.1769 33.3354 48.1095 33.3777C48.0421 33.42 47.9993 33.4744 47.9687 33.5287C47.938 33.5831 47.9258 33.6556 47.9258 33.7342C47.9258 33.8671 47.9687 33.9698 48.0544 34.0484C48.1401 34.1269 48.2565 34.1632 48.4096 34.1632C48.5382 34.1632 48.6545 34.133 48.7586 34.0665C48.8628 34 48.973 33.9094 49.0832 33.7886V33.2508H49.0771Z" fill="#706F6F"/>
<path d="M56.7137 34.5922C56.7137 34.6164 56.7075 34.6345 56.6892 34.6527C56.6708 34.6708 56.6524 34.6829 56.6157 34.695C56.5789 34.707 56.5361 34.7131 56.4748 34.7191C56.4136 34.7252 56.3462 34.7252 56.2605 34.7252C56.1747 34.7252 56.1013 34.7252 56.04 34.7191C55.9788 34.7131 55.9359 34.707 55.8992 34.695C55.8624 34.6829 55.8441 34.6708 55.8257 34.6527C55.8073 34.6345 55.8012 34.6164 55.8012 34.5922V32.7916C55.8012 32.6406 55.7889 32.5197 55.7644 32.4291C55.7399 32.3385 55.7093 32.266 55.6665 32.2055C55.6236 32.1451 55.5685 32.0968 55.5011 32.0605C55.4338 32.0243 55.3541 32.0122 55.2623 32.0122C55.1459 32.0122 55.0296 32.0545 54.9132 32.1391C54.7969 32.2237 54.6744 32.3445 54.5458 32.5016V34.5983C54.5458 34.6225 54.5397 34.6406 54.5213 34.6587C54.5029 34.6768 54.4845 34.6889 54.4478 34.701C54.4111 34.7131 54.3682 34.7191 54.307 34.7252C54.2457 34.7312 54.1783 34.7312 54.0865 34.7312C53.9946 34.7312 53.9273 34.7312 53.866 34.7252C53.8048 34.7191 53.7619 34.7131 53.7252 34.701C53.6884 34.6889 53.6639 34.6768 53.6517 34.6587C53.6394 34.6406 53.6272 34.6225 53.6272 34.5983V31.4382C53.6272 31.414 53.6333 31.3959 53.6456 31.3777C53.6578 31.3596 53.6762 31.3475 53.7129 31.3354C53.7497 31.3234 53.7864 31.3173 53.8354 31.3113C53.8844 31.3052 53.9456 31.3052 54.0191 31.3052C54.0987 31.3052 54.16 31.3052 54.209 31.3113C54.258 31.3173 54.3008 31.3234 54.3253 31.3354C54.3498 31.3475 54.3743 31.3596 54.3866 31.3777C54.3988 31.3959 54.4049 31.414 54.4049 31.4382V31.8007C54.5825 31.6134 54.7601 31.4684 54.9438 31.3777C55.1276 31.2871 55.3174 31.2388 55.5134 31.2388C55.7338 31.2388 55.9175 31.275 56.0645 31.3475C56.2115 31.42 56.334 31.5167 56.4258 31.6376C56.5177 31.7584 56.5851 31.9034 56.6279 32.0666C56.6708 32.2297 56.6892 32.4231 56.6892 32.6527V34.5922H56.7137Z" fill="#706F6F"/>
<path d="M62.6477 33.704C62.6477 33.8853 62.6109 34.0424 62.5436 34.1814C62.4762 34.3203 62.3782 34.4351 62.2558 34.5258C62.1333 34.6164 61.9863 34.6889 61.8148 34.7312C61.6434 34.7735 61.4596 34.7977 61.2637 34.7977C61.1412 34.7977 61.031 34.7916 60.9207 34.7735C60.8105 34.7554 60.7125 34.7312 60.6268 34.707C60.5411 34.6829 60.4676 34.6527 60.4125 34.6225C60.3573 34.5922 60.3145 34.5681 60.2839 34.5439C60.2532 34.5197 60.2349 34.4774 60.2226 34.4291C60.2104 34.3808 60.1981 34.2962 60.1981 34.1935C60.1981 34.127 60.1981 34.0726 60.2042 34.0303C60.2104 33.988 60.2165 33.9578 60.2287 33.9336C60.241 33.9095 60.2532 33.8913 60.2655 33.8853C60.2777 33.8793 60.2961 33.8732 60.3206 33.8732C60.3451 33.8732 60.388 33.8853 60.437 33.9155C60.4859 33.9457 60.5533 33.9759 60.6268 34.0122C60.7003 34.0484 60.7921 34.0786 60.8962 34.1089C61.0004 34.1391 61.1106 34.1572 61.2453 34.1572C61.3249 34.1572 61.3984 34.1512 61.4596 34.133C61.5209 34.1149 61.576 34.0907 61.625 34.0605C61.674 34.0303 61.7046 33.988 61.7291 33.9457C61.7536 33.9034 61.7658 33.843 61.7658 33.7826C61.7658 33.7101 61.7413 33.6496 61.6985 33.6013C61.6556 33.553 61.5944 33.5046 61.5209 33.4684C61.4474 33.4321 61.3678 33.3959 61.2759 33.3596C61.1841 33.3234 61.0922 33.2871 60.9942 33.2509C60.8962 33.2146 60.8044 33.1663 60.7125 33.1119C60.6207 33.0575 60.5349 32.9971 60.4676 32.9185C60.4002 32.84 60.339 32.7493 60.29 32.6466C60.241 32.5439 60.2226 32.411 60.2226 32.266C60.2226 32.1149 60.2532 31.9759 60.3145 31.849C60.3757 31.7222 60.4614 31.6134 60.5717 31.5228C60.6819 31.4321 60.8228 31.3657 60.982 31.3113C61.1412 31.2569 61.3249 31.2388 61.527 31.2388C61.625 31.2388 61.723 31.2448 61.821 31.2629C61.9189 31.2811 61.9986 31.2932 62.0782 31.3173C62.1578 31.3415 62.219 31.3596 62.2741 31.3838C62.3292 31.408 62.366 31.4321 62.3844 31.4502C62.4027 31.4684 62.4211 31.4865 62.4333 31.5046C62.4456 31.5228 62.4517 31.5409 62.4578 31.5711C62.464 31.6013 62.464 31.6255 62.4701 31.6617C62.4762 31.698 62.4762 31.7463 62.4762 31.8007C62.4762 31.8672 62.4762 31.9155 62.4701 31.9578C62.464 32.0001 62.4578 32.0303 62.4517 32.0545C62.4456 32.0786 62.4333 32.0968 62.415 32.1028C62.3966 32.1089 62.3844 32.1149 62.366 32.1149C62.3415 32.1149 62.3109 32.1028 62.268 32.0786C62.2251 32.0545 62.1639 32.0303 62.0965 32.0001C62.0292 31.9699 61.9496 31.9457 61.8577 31.9215C61.7658 31.8974 61.6679 31.8853 61.5515 31.8853C61.4719 31.8853 61.3984 31.8913 61.3372 31.9095C61.2759 31.9276 61.2269 31.9518 61.1902 31.982C61.1534 32.0122 61.1167 32.0243 61.0983 32.0666C61.08 32.1089 61.0677 32.1512 61.0677 32.1995C61.0677 32.272 61.0922 32.3324 61.1351 32.3808C61.1779 32.4291 61.2392 32.4714 61.3127 32.5137C61.3862 32.556 61.4719 32.5862 61.5638 32.6225C61.6556 32.6587 61.7536 32.6889 61.8516 32.7312C61.9496 32.7735 62.0414 32.8158 62.1394 32.8702C62.2374 32.9246 62.317 32.985 62.3905 33.0635C62.464 33.1421 62.5252 33.2267 62.5681 33.3354C62.6109 33.4442 62.6477 33.559 62.6477 33.704Z" fill="#706F6F"/>
<path d="M69.3412 32.9668C69.3412 33.2448 69.3106 33.4985 69.2494 33.7281C69.1881 33.9577 69.0963 34.1451 68.9799 34.3022C68.8636 34.4593 68.7166 34.5801 68.5451 34.6647C68.3736 34.7493 68.1715 34.7916 67.945 34.7916C67.8531 34.7916 67.7674 34.7855 67.6878 34.7674C67.6081 34.7493 67.5347 34.7251 67.4612 34.6889C67.3877 34.6526 67.3142 34.6043 67.2468 34.5499C67.1795 34.4955 67.0999 34.429 67.0264 34.3565V35.8429C67.0264 35.8671 67.0203 35.8852 67.0019 35.9094C66.9835 35.9336 66.9651 35.9457 66.9284 35.9577C66.8917 35.9698 66.8488 35.9819 66.7875 35.988C66.7263 35.994 66.6589 36 66.5671 36C66.4752 36 66.4079 35.994 66.3466 35.988C66.2854 35.9819 66.2425 35.9698 66.2058 35.9577C66.169 35.9457 66.1445 35.9275 66.1323 35.9094C66.12 35.8913 66.1078 35.8671 66.1078 35.8429V31.4321C66.1078 31.4079 66.1139 31.3898 66.1262 31.3716C66.1384 31.3535 66.1568 31.3414 66.1874 31.3293C66.218 31.3173 66.2548 31.3112 66.3038 31.3052C66.3527 31.2991 66.414 31.2991 66.4875 31.2991C66.561 31.2991 66.6222 31.2991 66.6712 31.3052C66.7202 31.3112 66.7569 31.3173 66.7875 31.3293C66.8182 31.3414 66.8365 31.3535 66.8488 31.3716C66.861 31.3898 66.8672 31.4079 66.8672 31.4321V31.8067C66.959 31.71 67.0509 31.6315 67.1427 31.559C67.2346 31.4864 67.3264 31.426 67.4183 31.3777C67.5102 31.3293 67.6081 31.2931 67.7061 31.2689C67.8041 31.2448 67.9082 31.2327 68.0246 31.2327C68.2573 31.2327 68.4594 31.281 68.6247 31.3716C68.7901 31.4623 68.9248 31.5892 69.0289 31.7463C69.133 31.9034 69.2065 32.0907 69.2555 32.2961C69.3045 32.5015 69.3412 32.7312 69.3412 32.9668ZM68.3981 33.0333C68.3981 32.9003 68.3859 32.7674 68.3675 32.6466C68.3491 32.5257 68.3124 32.4109 68.2634 32.3142C68.2144 32.2176 68.1471 32.139 68.0674 32.0846C67.9878 32.0302 67.8899 32 67.7674 32C67.7061 32 67.651 32.0061 67.5898 32.0242C67.5285 32.0423 67.4734 32.0725 67.4122 32.1088C67.3509 32.1451 67.2897 32.1994 67.2223 32.2659C67.155 32.3324 67.0876 32.4109 67.0203 32.5015V33.5408C67.1489 33.6979 67.2652 33.8188 67.3816 33.9094C67.4979 34 67.6143 34.0363 67.7429 34.0363C67.8592 34.0363 67.9572 34.0061 68.0429 33.9457C68.1287 33.8852 68.196 33.8067 68.245 33.7161C68.294 33.6254 68.3369 33.5106 68.3614 33.3898C68.3859 33.2689 68.3981 33.1541 68.3981 33.0333Z" fill="#706F6F"/>
<path d="M76.0897 32.9851C76.0897 33.257 76.0529 33.4987 75.9794 33.7222C75.906 33.9458 75.8018 34.1331 75.6549 34.2962C75.5079 34.4594 75.3242 34.5802 75.1037 34.6709C74.8833 34.7615 74.6261 34.8038 74.3321 34.8038C74.0504 34.8038 73.7993 34.7675 73.5911 34.689C73.3829 34.6104 73.2053 34.4956 73.0645 34.3506C72.9236 34.2056 72.8256 34.0183 72.7583 33.8008C72.6909 33.5832 72.6603 33.3355 72.6603 33.0576C72.6603 32.7857 72.697 32.544 72.7705 32.3204C72.844 32.0968 72.9542 31.9035 73.1012 31.7464C73.2482 31.5893 73.4319 31.4624 73.6462 31.3778C73.8606 31.2932 74.1239 31.2449 74.4178 31.2449C74.7057 31.2449 74.9567 31.2811 75.165 31.3597C75.3732 31.4382 75.5508 31.547 75.6855 31.698C75.8202 31.8491 75.9243 32.0304 75.9917 32.2479C76.0591 32.4654 76.0897 32.7011 76.0897 32.9851ZM75.1588 33.0213C75.1588 32.8642 75.1466 32.7192 75.1221 32.5923C75.0976 32.4654 75.0547 32.3446 74.9935 32.2479C74.9323 32.1512 74.8526 32.0727 74.7547 32.0183C74.6567 31.9639 74.5281 31.9397 74.3811 31.9397C74.2464 31.9397 74.13 31.9639 74.032 32.0122C73.9341 32.0606 73.8483 32.1331 73.7871 32.2237C73.7258 32.3144 73.6768 32.4292 73.6401 32.5621C73.6034 32.695 73.5911 32.84 73.5911 33.0092C73.5911 33.1663 73.6034 33.3113 73.6279 33.4382C73.6524 33.5651 73.6952 33.686 73.7565 33.7826C73.8177 33.8793 73.8973 33.9518 73.9953 34.0062C74.0933 34.0606 74.2219 34.0848 74.3689 34.0848C74.5036 34.0848 74.6261 34.0606 74.724 34.0122C74.822 33.9639 74.9078 33.8914 74.969 33.8008C75.0302 33.7101 75.0792 33.5953 75.1098 33.4684C75.1405 33.3415 75.1588 33.1845 75.1588 33.0213Z" fill="#706F6F"/>
<path d="M81.6502 31.7283C81.6502 31.8128 81.6502 31.8854 81.6441 31.9397C81.638 31.9941 81.6319 32.0364 81.6196 32.0666C81.6074 32.0968 81.5951 32.121 81.5829 32.1331C81.5706 32.1452 81.5461 32.1512 81.5216 32.1512C81.5032 32.1512 81.4788 32.1452 81.4543 32.1391C81.4298 32.1331 81.4053 32.121 81.3747 32.115C81.344 32.1089 81.3134 32.0968 81.2767 32.0908C81.2399 32.0848 81.2032 32.0787 81.1603 32.0787C81.1113 32.0787 81.0623 32.0908 81.0072 32.1089C80.9521 32.127 80.9031 32.1573 80.8541 32.2056C80.8051 32.2539 80.7439 32.3023 80.6826 32.3748C80.6214 32.4473 80.5602 32.5319 80.4928 32.6346V34.6044C80.4928 34.6286 80.4867 34.6467 80.4683 34.6648C80.4499 34.6829 80.4316 34.695 80.3948 34.7071C80.3581 34.7192 80.3152 34.7252 80.254 34.7313C80.1927 34.7373 80.1254 34.7373 80.0335 34.7373C79.9417 34.7373 79.8743 34.7373 79.8131 34.7313C79.7518 34.7252 79.7089 34.7192 79.6722 34.7071C79.6355 34.695 79.611 34.6829 79.5987 34.6648C79.5865 34.6467 79.5742 34.6286 79.5742 34.6044V31.4443C79.5742 31.4201 79.5803 31.402 79.5926 31.3838C79.6048 31.3657 79.6232 31.3536 79.66 31.3415C79.6967 31.3295 79.7334 31.3234 79.7824 31.3174C79.8314 31.3113 79.8927 31.3113 79.9661 31.3113C80.0458 31.3113 80.107 31.3113 80.156 31.3174C80.205 31.3234 80.2478 31.3295 80.2723 31.3415C80.2968 31.3536 80.3213 31.3657 80.3336 31.3838C80.3458 31.402 80.352 31.4201 80.352 31.4443V31.837C80.4377 31.7162 80.5173 31.6195 80.5908 31.547C80.6643 31.4745 80.7378 31.408 80.8051 31.3657C80.8725 31.3234 80.9399 31.2872 81.0072 31.269C81.0746 31.2509 81.1419 31.2449 81.2093 31.2449C81.2399 31.2449 81.2767 31.2449 81.3073 31.2509C81.3379 31.257 81.3808 31.263 81.4175 31.269C81.4543 31.2751 81.491 31.2872 81.5155 31.2993C81.54 31.3113 81.5645 31.3234 81.5767 31.3355C81.589 31.3476 81.6012 31.3597 81.6074 31.3718C81.6135 31.3838 81.6196 31.408 81.6257 31.4322C81.6319 31.4564 81.6319 31.4926 81.638 31.5409C81.6441 31.5893 81.6502 31.6437 81.6502 31.7283Z" fill="#706F6F"/>
<path d="M86.8984 34.2841C86.8984 34.3868 86.8923 34.4653 86.88 34.5258C86.8678 34.5862 86.8494 34.6224 86.8311 34.6406C86.8127 34.6587 86.7759 34.6829 86.7331 34.701C86.6902 34.7191 86.6412 34.7312 86.5861 34.7493C86.531 34.7674 86.4697 34.7735 86.4024 34.7795C86.335 34.7856 86.2677 34.7916 86.2003 34.7916C86.0227 34.7916 85.8635 34.7674 85.7349 34.7252C85.6063 34.6829 85.496 34.6103 85.4103 34.5197C85.3246 34.4291 85.2633 34.3082 85.2205 34.1693C85.1776 34.0303 85.1592 33.8611 85.1592 33.6678V32.0484H84.7734C84.7305 32.0484 84.6938 32.0182 84.6693 31.9638C84.6448 31.9094 84.6326 31.8128 84.6326 31.6859C84.6326 31.6194 84.6326 31.559 84.6387 31.5107C84.6448 31.4623 84.6509 31.4261 84.6632 31.4019C84.6754 31.3777 84.6877 31.3535 84.7061 31.3415C84.7244 31.3294 84.7428 31.3233 84.7673 31.3233H85.147V30.6164C85.147 30.5922 85.1531 30.5741 85.1654 30.5499C85.1776 30.5258 85.2021 30.5137 85.2388 30.5016C85.2756 30.4895 85.3184 30.4774 85.3797 30.4714C85.4409 30.4653 85.5083 30.4653 85.594 30.4653C85.6798 30.4653 85.7533 30.4653 85.8145 30.4714C85.8757 30.4774 85.9186 30.4895 85.9553 30.5016C85.9921 30.5137 86.0104 30.5318 86.0288 30.5499C86.0472 30.5681 86.0533 30.5922 86.0533 30.6164V31.3233H86.7514C86.7759 31.3233 86.7943 31.3294 86.8127 31.3415C86.8311 31.3535 86.8433 31.3717 86.8556 31.4019C86.8678 31.4321 86.8739 31.4684 86.88 31.5107C86.8862 31.5529 86.8862 31.6134 86.8862 31.6859C86.8862 31.8128 86.8739 31.9094 86.8494 31.9638C86.8249 32.0182 86.7882 32.0484 86.7453 32.0484H86.0472V33.5348C86.0472 33.71 86.0717 33.8369 86.1268 33.9215C86.1819 34.0061 86.2799 34.0484 86.4208 34.0484C86.4697 34.0484 86.5126 34.0424 86.5494 34.0363C86.5861 34.0303 86.6228 34.0182 86.6535 34.0061C86.6841 33.994 86.7086 33.988 86.7269 33.9759C86.7453 33.9638 86.7637 33.9638 86.7821 33.9638C86.7943 33.9638 86.8127 33.9699 86.8249 33.9759C86.8372 33.9819 86.8494 34.0001 86.8556 34.0242C86.8617 34.0484 86.8678 34.0847 86.8739 34.127C86.88 34.1693 86.8984 34.2176 86.8984 34.2841Z" fill="#706F6F"/>
<path d="M93.206 32.9245C93.206 33.0333 93.1815 33.1118 93.1325 33.1662C93.0835 33.2206 93.0162 33.2448 92.9304 33.2448H90.983C90.983 33.3777 91.0014 33.4985 91.032 33.6133C91.0626 33.7281 91.1178 33.8188 91.1851 33.8913C91.2525 33.9638 91.3444 34.0242 91.4607 34.0665C91.5771 34.1088 91.7057 34.1269 91.8588 34.1269C92.018 34.1269 92.1527 34.1148 92.2752 34.0907C92.3977 34.0665 92.4956 34.0423 92.5875 34.0182C92.6794 33.994 92.7467 33.9638 92.8018 33.9457C92.857 33.9275 92.9059 33.9094 92.9427 33.9094C92.9672 33.9094 92.9794 33.9154 92.9978 33.9215C93.0162 33.9275 93.0223 33.9457 93.0345 33.9638C93.0468 33.9819 93.0529 34.0121 93.0529 34.0544C93.0529 34.0967 93.059 34.1451 93.059 34.1994C93.059 34.2538 93.059 34.2961 93.0529 34.3324C93.0468 34.3686 93.0468 34.3988 93.0407 34.429C93.0345 34.4593 93.0284 34.4774 93.0162 34.4955C93.0039 34.5136 92.9917 34.5318 92.9794 34.5438C92.9672 34.5559 92.9243 34.5801 92.8508 34.6103C92.7773 34.6405 92.6916 34.6647 92.5875 34.6949C92.4834 34.7251 92.3548 34.7432 92.2201 34.7674C92.0853 34.7916 91.9322 34.7976 91.773 34.7976C91.4913 34.7976 91.2402 34.7614 91.0259 34.6889C90.8116 34.6164 90.634 34.5136 90.487 34.3686C90.34 34.2236 90.2359 34.0423 90.1686 33.8248C90.1012 33.6073 90.0645 33.3475 90.0645 33.0514C90.0645 32.7735 90.1012 32.5197 90.1747 32.2901C90.2482 32.0605 90.3584 31.8732 90.4992 31.7161C90.6401 31.559 90.8116 31.4381 91.0137 31.3596C91.2157 31.281 91.4423 31.2327 91.6995 31.2327C91.969 31.2327 92.1956 31.2689 92.3854 31.3475C92.5753 31.426 92.7345 31.5348 92.8508 31.6738C92.9672 31.8127 93.0652 31.9759 93.1203 32.1632C93.1754 32.3505 93.206 32.5559 93.206 32.7795V32.9245V32.9245ZM92.3303 32.6707C92.3364 32.423 92.2874 32.2236 92.1772 32.0786C92.067 31.9336 91.9016 31.8671 91.675 31.8671C91.5587 31.8671 91.4607 31.8913 91.375 31.9336C91.2892 31.9759 91.2219 32.0363 91.1606 32.1028C91.0994 32.1692 91.0626 32.2599 91.032 32.3565C91.0014 32.4532 90.983 32.5559 90.983 32.6707H92.3303V32.6707Z" fill="#706F6F"/>
<path d="M98.9993 33.704C98.9993 33.8853 98.9625 34.0424 98.8951 34.1814C98.8278 34.3203 98.7298 34.4351 98.6073 34.5258C98.4848 34.6164 98.3379 34.6889 98.1664 34.7312C97.9949 34.7735 97.8112 34.7977 97.6152 34.7977C97.4928 34.7977 97.3825 34.7916 97.2723 34.7735C97.1621 34.7554 97.0641 34.7312 96.9784 34.707C96.8926 34.6829 96.8191 34.6527 96.764 34.6225C96.7089 34.5922 96.666 34.5681 96.6354 34.5439C96.6048 34.5197 96.5864 34.4774 96.5742 34.4291C96.5619 34.3808 96.5497 34.2962 96.5497 34.1935C96.5497 34.127 96.5497 34.0726 96.5558 34.0303C96.5619 33.988 96.5681 33.9578 96.5803 33.9336C96.5926 33.9095 96.6048 33.8913 96.617 33.8853C96.6293 33.8793 96.6477 33.8732 96.6722 33.8732C96.6967 33.8732 96.7395 33.8853 96.7885 33.9155C96.8375 33.9457 96.9049 33.9759 96.9784 34.0122C97.0518 34.0484 97.1437 34.0786 97.2478 34.1089C97.3519 34.1391 97.4621 34.1572 97.5969 34.1572C97.6765 34.1572 97.75 34.1512 97.8112 34.133C97.8724 34.1149 97.9276 34.0907 97.9766 34.0605C98.0255 34.0303 98.0562 33.988 98.0807 33.9457C98.1052 33.9034 98.1174 33.843 98.1174 33.7826C98.1174 33.7101 98.0929 33.6496 98.05 33.6013C98.0072 33.553 97.9459 33.5046 97.8725 33.4684C97.799 33.4321 97.7193 33.3959 97.6275 33.3596C97.5356 33.3234 97.4438 33.2871 97.3458 33.2509C97.2478 33.2146 97.1559 33.1663 97.0641 33.1119C96.9722 33.0575 96.8865 32.9971 96.8191 32.9185C96.7518 32.84 96.6905 32.7493 96.6415 32.6466C96.5925 32.5439 96.5742 32.411 96.5742 32.266C96.5742 32.1149 96.6048 31.9759 96.666 31.849C96.7273 31.7222 96.813 31.6134 96.9232 31.5228C97.0335 31.4321 97.1743 31.3657 97.3335 31.3113C97.4928 31.2569 97.6765 31.2388 97.8786 31.2388C97.9766 31.2388 98.0745 31.2448 98.1725 31.2629C98.2705 31.2811 98.3501 31.2932 98.4297 31.3173C98.5093 31.3415 98.5706 31.3596 98.6257 31.3838C98.6808 31.408 98.7175 31.4321 98.7359 31.4502C98.7543 31.4684 98.7727 31.4865 98.7849 31.5046C98.7972 31.5228 98.8033 31.5409 98.8094 31.5711C98.8155 31.6013 98.8155 31.6255 98.8217 31.6617C98.8278 31.698 98.8278 31.7463 98.8278 31.8007C98.8278 31.8672 98.8278 31.9155 98.8217 31.9578C98.8155 32.0001 98.8094 32.0303 98.8033 32.0545C98.7972 32.0786 98.7849 32.0968 98.7665 32.1028C98.7482 32.1089 98.7359 32.1149 98.7175 32.1149C98.6931 32.1149 98.6624 32.1028 98.6196 32.0786C98.5767 32.0545 98.5155 32.0303 98.4481 32.0001C98.3807 31.9699 98.3011 31.9457 98.2093 31.9215C98.1174 31.8974 98.0194 31.8853 97.9031 31.8853C97.8235 31.8853 97.75 31.8913 97.6887 31.9095C97.6275 31.9276 97.5785 31.9518 97.5418 31.982C97.505 32.0122 97.4744 32.0484 97.456 32.0907C97.4376 32.133 97.4254 32.1753 97.4254 32.2237C97.4254 32.2962 97.4499 32.3566 97.4928 32.4049C97.5356 32.4533 97.5969 32.4956 97.6704 32.5379C97.7438 32.5802 97.8296 32.6104 97.9214 32.6466C98.0133 32.6829 98.1113 32.7131 98.2093 32.7554C98.3072 32.7977 98.3991 32.84 98.4971 32.8944C98.5951 32.9487 98.6747 33.0092 98.7482 33.0877C98.8217 33.1663 98.8829 33.2509 98.9258 33.3596C98.9686 33.4684 98.9993 33.559 98.9993 33.704Z" fill="#706F6F"/>
</g>
<defs>
<clipPath id="clip0_52_2672">
<rect width="102" height="36" fill="white"/>
</clipPath>
</defs>
</svg>
