<svg width="101" height="40" viewBox="0 0 101 40" fill="none" xmlns="http://www.w3.org/2000/svg">
<g clip-path="url(#clip0_108_2830)">
<path d="M57.0658 14.8397C56.5261 15.5479 56.0202 16.1887 55.5143 16.7621C55.2783 16.9982 55.0759 17.2343 54.8061 17.4703C54.57 17.7064 54.3002 17.9088 54.0641 18.0774C53.828 18.2461 53.5582 18.4147 53.3221 18.5159C53.086 18.6171 52.8499 18.6845 52.6138 18.6845C52.3103 18.6845 52.1417 18.5496 52.0405 18.2798C51.9393 18.01 51.9056 17.6052 51.9056 17.1331C51.9056 16.5597 51.973 15.9526 52.0742 15.3118C52.1754 14.671 52.2766 14.0302 52.4115 13.3557C52.5464 12.7149 52.6476 12.0741 52.7487 11.467C52.8499 10.8599 52.9174 10.2865 52.9174 9.78063C52.9174 9.44336 52.8836 9.20727 52.8162 9.00491C52.7487 8.80255 52.6813 8.66764 52.5801 8.56646C52.4789 8.46528 52.344 8.39783 52.2091 8.3641C52.0742 8.33038 51.9056 8.33038 51.7707 8.33038C51.6695 8.33038 51.5346 8.33038 51.4334 8.33038C51.2985 8.33038 51.1973 8.33038 51.0624 8.33038C50.9275 8.33038 50.7926 8.33038 50.6577 8.29665C50.5228 8.26292 50.3879 8.26292 50.2867 8.19547C50.1518 8.12801 50.0506 8.06056 49.9831 7.95938C49.9157 7.8582 49.8145 7.72329 49.7133 7.58839C49.6121 7.45348 49.511 7.3523 49.3761 7.25112C49.2411 7.14994 49.0388 7.11621 48.8027 7.11621C48.0607 7.11621 47.3524 7.28484 46.6779 7.58839C45.9696 7.89193 45.2951 8.33038 44.688 8.83628C44.0472 9.37591 43.4739 9.98299 42.9342 10.6913C42.3946 11.3995 41.9562 12.1415 41.5514 12.9509C41.1467 13.7267 40.8432 14.5698 40.6408 15.3793C40.4385 16.0875 40.3373 16.7958 40.3035 17.5041C40.1349 17.639 40 17.7402 39.8314 17.8751C39.3592 18.2461 38.887 18.5833 38.4148 18.8194C37.9427 19.0892 37.5379 19.2241 37.1669 19.2241C36.8297 19.2241 36.6273 19.0892 36.5261 18.8194C36.425 18.5496 36.3575 18.1786 36.3575 17.7064C36.3575 17.2343 36.425 16.6946 36.5261 16.0875C36.6273 15.4805 36.7622 14.8734 36.9309 14.2326C37.0995 13.5918 37.2681 12.9509 37.4368 12.3439C37.6054 11.7031 37.774 11.096 37.9427 10.5563C38.1113 10.0167 38.2462 9.51081 38.3474 9.07237C38.4486 8.63392 38.516 8.29665 38.516 8.06056C38.516 7.79075 38.4486 7.55466 38.2799 7.41975C38.1113 7.25112 37.8078 7.18366 37.3693 7.18366C37.1332 7.18366 36.8634 7.21739 36.5599 7.25112C36.2563 7.31857 35.9865 7.38603 35.683 7.52093C35.4132 7.65584 35.1433 7.79075 34.941 7.99311C34.7049 8.19547 34.57 8.43156 34.5025 8.70137C34.3002 9.47709 34.0978 10.354 33.828 11.2983C33.5582 12.2427 33.3558 13.187 33.1197 14.0977C32.9174 15.042 32.715 15.9526 32.5464 16.8295C32.5126 16.9307 32.5127 17.0656 32.4789 17.1668C32.3103 17.268 32.1417 17.3692 31.973 17.5041C31.602 17.7402 31.1973 17.9762 30.8263 18.1786C30.4553 18.381 30.118 18.5159 29.7808 18.6508C29.4435 18.752 29.1737 18.8194 28.9376 18.8194C28.7352 18.8194 28.5666 18.7857 28.4654 18.6845C28.3643 18.5833 28.2631 18.4484 28.2293 18.2461C28.1956 18.0774 28.1619 17.8413 28.1282 17.6052C28.1282 17.3692 28.1282 17.0993 28.1282 16.7958C28.1282 16.6272 28.1619 16.3574 28.2293 15.9526C28.2968 15.5479 28.3643 15.0757 28.4654 14.5361C28.5666 13.9965 28.6678 13.4231 28.8027 12.7823C28.9039 12.1752 29.0388 11.5681 29.14 10.9611C29.2411 10.3877 29.3086 9.84808 29.3761 9.34218C29.4435 8.83628 29.4772 8.46528 29.4772 8.19547C29.4772 7.89193 29.3086 7.65584 29.0051 7.45348C28.7015 7.25112 28.2631 7.18366 27.7234 7.18366C27.2513 7.18366 26.8128 7.25112 26.4418 7.45348C26.0708 7.62211 25.8685 7.82447 25.801 8.09429L24.2496 16.1213C24.1484 16.526 24.0472 16.9307 23.8786 17.2343C23.71 17.5715 23.5076 17.8413 23.3052 18.0774C23.1029 18.3135 22.8668 18.4821 22.6307 18.5833C22.3946 18.7182 22.1585 18.752 21.9224 18.752C21.7538 18.752 21.6189 18.7182 21.5177 18.6171C21.4165 18.5159 21.3153 18.4147 21.2479 18.2798C21.1804 18.1449 21.113 17.9762 21.0793 17.8076C21.0455 17.639 21.0118 17.4366 21.0118 17.268C21.0118 17.268 21.0455 17.0993 21.0793 16.7621C21.113 16.4585 21.1804 16.0201 21.2816 15.5142C21.3491 15.0083 21.4503 14.4012 21.5852 13.7604C21.6863 13.0859 21.7875 12.445 21.9224 11.7368C22.0573 11.0285 22.1585 10.354 22.2597 9.67945C22.3609 9.00491 22.4621 8.3641 22.5632 7.82447C22.5632 7.65584 22.4283 7.48721 22.1922 7.38603C21.9562 7.25112 21.5514 7.18366 20.9781 7.18366C20.6408 7.18366 20.3373 7.28484 20.0675 7.45348C19.7976 7.62211 19.5616 7.82447 19.3592 8.09429C19.1568 8.3641 18.9882 8.63392 18.8533 8.97119C18.7184 9.30845 18.5835 9.61199 18.4823 9.94926C18.3811 10.2528 18.3137 10.5563 18.2462 10.8262C18.1788 11.096 18.145 11.2983 18.1113 11.467C17.8078 13.0859 17.5717 14.5024 17.403 15.7503C17.3356 16.2225 17.2681 16.6609 17.2344 17.0656C17.1332 17.2005 17.032 17.3354 16.9309 17.4366C16.3912 18.1112 15.8853 18.6508 15.4132 19.0892C14.9747 19.5277 14.5363 19.8649 14.199 20.1348C13.828 20.4046 13.4907 20.6069 13.1535 20.8093C13.457 19.1567 13.6931 17.6052 13.8954 16.155C13.9966 15.5479 14.0978 14.9071 14.1653 14.3C14.2664 13.6592 14.3339 13.0521 14.4014 12.4788C14.4688 11.9054 14.5363 11.3995 14.57 10.9273C14.6037 10.4552 14.6374 10.0842 14.6374 9.81436C14.6374 9.47709 14.6037 9.241 14.5363 9.03864C14.4688 8.83628 14.4014 8.70137 14.3002 8.60019C14.199 8.49901 14.0641 8.43156 13.9292 8.39783C13.7943 8.3641 13.6594 8.3641 13.4907 8.3641C13.3895 8.3641 13.2546 8.3641 13.1197 8.3641C12.9848 8.3641 12.8836 8.3641 12.7825 8.3641C12.6476 8.3641 12.5126 8.3641 12.3777 8.33038C12.2428 8.29665 12.1079 8.29665 12.0067 8.2292C11.8718 8.16174 11.7707 8.09429 11.7032 7.99311C11.602 7.89193 11.5346 7.75702 11.4334 7.62211C11.3322 7.48721 11.231 7.38603 11.0961 7.28484C10.9612 7.18366 10.7589 7.14994 10.5228 7.14994C9.78078 7.14994 9.07251 7.31857 8.39798 7.62211C7.68971 7.92565 7.01518 8.3641 6.40809 8.87C5.76729 9.40963 5.19393 10.0167 4.6543 10.725C4.11467 11.4332 3.67622 12.1752 3.2715 12.9847C2.86678 13.6929 2.56324 14.5024 2.36088 15.3456C2.15852 16.1887 2.02361 16.9982 2.02361 17.7739C2.02361 18.4821 2.12479 19.0892 2.36088 19.6289C2.59696 20.1685 2.86678 20.6407 3.23777 21.0454C3.60877 21.4164 4.01349 21.7199 4.51939 21.9223C4.99157 22.1246 5.49747 22.2258 6.00337 22.2258C6.57673 22.2258 7.18381 22.0572 7.79089 21.7536C8.39798 21.4501 9.00506 21.0454 9.57842 20.5395L9.10624 22.0235C8.36425 22.6305 7.58853 23.3051 6.84654 23.9796C6.10455 24.6542 5.39629 25.3624 4.72175 26.0707C4.04722 26.7789 3.40641 27.4872 2.83305 28.1955C2.2597 28.9037 1.75379 29.5783 1.34907 30.2528C0.944351 30.9273 0.607083 31.5344 0.370995 32.1415C0.134907 32.7149 0 33.2545 0 33.7267C0 34.4012 0.134907 34.9408 0.337268 35.3793C0.573356 35.784 0.876897 36.1213 1.21417 36.3236C1.58516 36.5597 1.95616 36.6946 2.36088 36.7621C2.7656 36.8295 3.17032 36.8633 3.50759 36.8633C4.41821 36.8633 5.22766 36.6946 6.00337 36.3911C6.74536 36.0875 7.4199 35.6491 8.02698 35.0757C8.63406 34.5024 9.17369 33.8616 9.64587 33.0859C10.118 32.3101 10.5565 31.467 10.9275 30.5226C11.2985 29.5783 11.6358 28.6002 11.9056 27.5209C12.1754 26.4417 12.4115 25.3624 12.6138 24.2157C13.6594 23.5749 14.6037 22.9341 15.5143 22.2595C15.8853 21.956 16.2901 21.6862 16.661 21.3489C16.8971 21.1466 17.1669 20.9442 17.403 20.7081C17.5379 21.0117 17.6729 21.2477 17.8415 21.4501C18.0776 21.7199 18.3474 21.9223 18.6509 22.0235C18.9545 22.1584 19.2917 22.1921 19.629 22.1921C20.0337 22.1921 20.4722 22.1246 20.9444 21.9223C21.4165 21.7199 21.8212 21.5176 22.2597 21.214C22.6981 20.9105 23.1366 20.5395 23.5413 20.1348C23.946 19.73 24.3508 19.2579 24.7555 18.7857C24.8567 19.2579 24.9916 19.6963 25.1265 20.101C25.2614 20.5058 25.43 20.843 25.6324 21.1128C25.8347 21.4164 26.0708 21.6187 26.3744 21.7874C26.6779 21.956 27.0152 22.0235 27.3862 22.0235C27.7909 22.0235 28.2293 21.956 28.6678 21.8548C29.14 21.7536 29.6121 21.585 30.0843 21.4164C30.5565 21.2477 31.0287 21.0117 31.5008 20.7756C31.8381 20.6069 32.1417 20.4383 32.4452 20.2359C32.4452 20.2697 32.4452 20.2697 32.4452 20.3034C32.5464 20.7081 32.715 21.0454 32.9511 21.3152C33.1872 21.585 33.4907 21.7874 33.8617 21.956C34.2327 22.1246 34.7049 22.1921 35.2445 22.1921C35.8516 22.1921 36.4924 22.0909 37.1669 21.8548C37.8415 21.6187 38.516 21.3489 39.1568 21.0117C39.7302 20.7081 40.2698 20.4046 40.8094 20.0336C41.0118 20.4046 41.2142 20.7081 41.484 21.0117C41.855 21.3827 42.2597 21.6862 42.7656 21.8886C43.2378 22.0909 43.7437 22.1921 44.2496 22.1921C44.7218 22.1921 45.1939 22.1246 45.6661 21.956C46.1383 21.7874 46.5767 21.585 47.0489 21.3489C47.4874 21.1128 47.8921 20.8093 48.2631 20.5058C48.6341 20.2022 48.9376 19.8987 49.2074 19.5951C49.5447 20.4383 49.9494 21.0791 50.4216 21.5513C50.8938 21.9897 51.4671 22.2258 52.1417 22.2258C52.715 22.2258 53.2884 22.0909 53.8617 21.7874C54.4351 21.4838 54.9747 21.1466 55.4806 20.7418C55.9865 20.3371 56.425 19.8987 56.8634 19.4602C57.2681 19.0218 57.6054 18.6171 57.8415 18.2798L57.0658 14.8397ZM8.22934 27.6896C8.09444 28.2292 7.89207 28.7688 7.68971 29.3422C7.48735 29.9155 7.25127 30.4552 6.94772 30.9948C6.67791 31.5344 6.37437 32.0066 6.0371 32.445C5.69983 32.8835 5.32884 33.2208 4.95784 33.4569C4.55312 33.7267 4.1484 33.8278 3.70995 33.8278C3.30523 33.8278 3.06914 33.6255 3.06914 33.2545C3.06914 33.0184 3.13659 32.7149 3.30523 32.3439C3.47386 31.9729 3.67622 31.5682 3.94604 31.1634C4.21585 30.725 4.51939 30.2865 4.89039 29.8144C5.26138 29.3422 5.63238 28.9037 6.0371 28.4653C6.44182 28.0268 6.84654 27.6221 7.28499 27.2511C7.72344 26.8801 8.12816 26.5429 8.53288 26.273C8.49916 26.6778 8.39798 27.1499 8.22934 27.6896ZM10.0169 14.7385C9.98314 15.0757 9.88196 15.4805 9.74705 15.9864C9.61214 16.4923 9.40978 16.9982 9.17369 17.4366C8.93761 17.9088 8.66779 18.3135 8.36425 18.6508C8.06071 18.988 7.68971 19.1567 7.31872 19.1567C7.08263 19.1567 6.88027 19.0892 6.71164 18.988C6.543 18.8531 6.44182 18.7182 6.34064 18.5159C6.23946 18.3135 6.17201 18.1112 6.13828 17.8413C6.07083 17.6052 6.07083 17.3692 6.07083 17.0993C6.07083 16.6272 6.13828 16.155 6.23946 15.6154C6.37437 15.0757 6.543 14.5698 6.74536 14.0302C6.94772 13.5243 7.21754 13.0184 7.52108 12.5462C7.82462 12.0741 8.16189 11.6356 8.53288 11.2983C8.90388 10.9273 9.27487 10.6238 9.6796 10.4214C10.0843 10.2191 10.5228 10.0842 10.9275 10.0842L10.0169 14.7385ZM48.2968 14.7385C48.2631 15.0757 48.1619 15.4805 48.027 15.9864C47.8921 16.4923 47.6897 16.9982 47.4536 17.4366C47.2175 17.9088 46.9477 18.3135 46.6442 18.6508C46.3406 18.988 45.9696 19.1567 45.5987 19.1567C45.3626 19.1567 45.1602 19.0892 44.9916 18.988C44.8229 18.8531 44.7218 18.7182 44.6206 18.5159C44.5194 18.3135 44.4519 18.1112 44.4182 17.8413C44.3845 17.6052 44.3508 17.3354 44.3508 17.0656C44.3508 16.5934 44.4182 16.1213 44.5194 15.5816C44.6543 15.042 44.8229 14.5361 45.0253 13.9965C45.2614 13.4906 45.4975 12.9847 45.801 12.5125C46.1046 12.0403 46.4418 11.6019 46.8128 11.2646C47.1838 10.8936 47.5548 10.5901 47.9595 10.3877C48.3643 10.1854 48.8027 10.0504 49.2074 10.0504L48.2968 14.7385Z" fill="#E41A23"/>
<path d="M40.9443 1.21413C40.8094 0.944315 40.607 0.708228 40.371 0.539594C40.1349 0.37096 39.8313 0.236052 39.5278 0.168599C39.1905 0.0674182 38.8533 0.0336914 38.4823 0.0336914C37.9089 0.0336914 37.403 0.134872 36.9983 0.303506C36.5936 0.505867 36.29 0.708228 36.0539 0.978042C35.8178 1.24786 35.6492 1.51767 35.548 1.82121C35.4468 2.12475 35.3794 2.39457 35.3794 2.63066C35.3794 3.37265 35.6155 3.946 36.0539 4.38445C36.4924 4.8229 37.1669 5.05899 38.1113 5.05899C38.6509 5.05899 39.1231 4.99153 39.4941 4.8229C39.8651 4.65426 40.2023 4.4519 40.4384 4.18209C40.6745 3.91227 40.8769 3.60873 40.978 3.27147C41.0792 2.9342 41.1467 2.59693 41.1467 2.22593C41.1804 1.82121 41.0792 1.48394 40.9443 1.21413Z" fill="#FCC509"/>
<path d="M26.5768 38.8194C26.2058 38.8194 25.8686 38.6845 25.5987 38.4147C25.3289 38.1449 25.194 37.7402 25.194 37.2343V32.0066C25.194 31.9392 25.194 31.838 25.194 31.7705C25.1266 30.7587 24.7556 29.9156 24.0136 29.2073C23.2716 28.3979 22.3272 27.9931 21.2143 27.9931H21.1468C20.0338 27.9931 19.0895 28.3979 18.28 29.1736C17.5718 29.8818 17.167 30.7587 17.0996 31.7368C17.0996 31.8043 17.0996 31.9054 17.0996 31.9729V37.2006C17.0996 37.7065 16.9647 38.1112 16.6949 38.381C16.425 38.6508 16.0878 38.7857 15.7168 38.7857C15.3458 38.7857 15.0085 38.6508 14.7387 38.381C14.4689 38.1112 14.334 37.7065 14.334 37.2006V31.9729C14.3677 30.1179 15.0085 28.5328 16.3239 27.2511C17.5718 26.0033 19.1232 25.3624 21.0456 25.2275H21.248C23.1704 25.3287 24.7218 26.0033 25.9697 27.2511C26.2058 27.4872 26.4082 27.7233 26.5768 27.9594C26.7455 27.7233 26.9478 27.4872 27.1839 27.2511C28.4318 26.0033 29.9832 25.3624 31.9057 25.2275H32.108C34.0304 25.3287 35.5819 26.0033 36.8298 27.2511C38.1451 28.5665 38.7859 30.1179 38.8197 31.9729V37.2006C38.8197 37.7402 38.6847 38.1112 38.4149 38.381C38.1451 38.6508 37.8078 38.7857 37.4369 38.7857C37.0659 38.7857 36.7286 38.6508 36.4588 38.381C36.189 38.1112 36.0541 37.7065 36.0541 37.2006V32.0066C36.0541 31.9392 36.0541 31.838 36.0541 31.7705C35.9866 30.7587 35.6156 29.9156 34.8736 29.2073C34.0979 28.4316 33.1198 28.0269 32.0068 28.0269H31.9394C30.8264 28.0269 29.882 28.4316 29.0726 29.2073C28.3643 29.9156 27.9596 30.7925 27.8922 31.7705C27.8922 31.838 27.8922 31.9392 27.8922 32.0066V37.2343C27.8922 37.7402 27.7573 38.1449 27.4874 38.4147C27.3188 38.6845 27.0153 38.8194 26.5768 38.8194Z" fill="#FCC509"/>
<path d="M47.4538 38.8194C45.5314 38.7183 43.98 38.0437 42.7321 36.7958C41.4167 35.4805 40.7759 33.9291 40.7422 32.0741V26.8464C40.7422 26.3068 40.8771 25.9358 41.1469 25.666C41.4167 25.3962 41.754 25.2613 42.125 25.2613C42.496 25.2613 42.8332 25.3962 43.1031 25.666C43.3729 25.9358 43.5078 26.3405 43.5078 26.8464V32.0404C43.5078 32.1078 43.5078 32.209 43.5078 32.2764C43.5752 33.2882 43.9462 34.1314 44.6882 34.8397C45.4639 35.6154 46.442 36.0201 47.555 36.0201H47.6225C48.7354 36.0201 49.6798 35.6154 50.4892 34.8397C51.1975 34.1314 51.6022 33.2545 51.6697 32.2764C51.6697 32.209 51.6697 32.1078 51.6697 32.0404V26.8127C51.6697 26.3068 51.8046 25.9021 52.0744 25.6323C52.3442 25.3624 52.6815 25.2275 53.0525 25.2275C53.4235 25.2275 53.7607 25.3624 54.0306 25.6323C54.3004 25.9021 54.4353 26.3068 54.4353 26.8127V32.0404C54.4015 33.8953 53.7607 35.4805 52.4454 36.7621C51.1975 38.01 49.6461 38.6508 47.7236 38.7857H47.4538V38.8194Z" fill="#FCC509"/>
<path d="M57.6391 38.8194C57.2681 38.8194 56.9309 38.6845 56.6611 38.4147C56.3913 38.1449 56.2563 37.8076 56.2563 37.4366V26.6103C56.2563 26.2393 56.3913 25.9021 56.6611 25.6323C56.9309 25.3624 57.2681 25.2275 57.6391 25.2275C58.0101 25.2275 58.3474 25.3624 58.6172 25.6323C58.887 25.9021 59.0219 26.2393 59.0219 26.6103V37.4366C59.0219 37.8076 58.887 38.1449 58.6172 38.4147C58.3474 38.6845 58.0101 38.8194 57.6391 38.8194Z" fill="#FCC509"/>
<path d="M64.081 25.1939V22.5969C64.081 22.2259 64.2159 21.8886 64.4857 21.6188C64.7555 21.349 65.0928 21.2141 65.4638 21.2141C65.8348 21.2141 66.172 21.349 66.4418 21.6188C66.7117 21.8886 66.8466 22.2259 66.8466 22.5969V25.1939H68.3643C68.7353 25.1939 69.0725 25.3288 69.3423 25.5986C69.6122 25.8684 69.7471 26.2057 69.7471 26.5767C69.7471 26.9477 69.6122 27.2849 69.3423 27.5548C69.0725 27.8246 68.7353 27.9595 68.3643 27.9595H66.8466V37.403C66.8466 37.774 66.7117 38.1112 66.4418 38.3811C66.172 38.6509 65.8348 38.7858 65.4638 38.7858C65.0928 38.7858 64.7555 38.6509 64.4857 38.3811C64.2159 38.1112 64.081 37.774 64.081 37.403V27.9595H62.5295C62.1585 27.9595 61.8213 27.8246 61.5514 27.5548C61.2816 27.2849 61.1467 26.9477 61.1467 26.5767C61.1467 26.2057 61.2816 25.8684 61.5514 25.5986C61.8213 25.3288 62.1585 25.1939 62.5295 25.1939H64.081Z" fill="#FCC509"/>
<path d="M81.0119 27.2511C82.3272 28.5665 83.0018 30.1853 83.0018 32.0403C83.0018 33.929 82.3272 35.5142 81.0119 36.8295C79.6966 38.1449 78.0777 38.8194 76.2227 38.8194C74.334 38.8194 72.7488 38.1449 71.4335 36.8295C70.1181 35.5142 69.4436 33.8953 69.4436 32.0403C69.4436 30.1516 70.1181 28.5665 71.4335 27.2511C72.7488 25.9358 74.3677 25.2612 76.2227 25.2612C78.0777 25.2612 79.6966 25.902 81.0119 27.2511ZM76.2227 27.9931C75.1097 27.9931 74.1654 28.3978 73.3559 29.1735C72.5802 29.9493 72.1755 30.8936 72.1755 32.0066C72.1755 33.1196 72.5802 34.0639 73.3559 34.8734C74.1316 35.6491 75.1097 36.0538 76.2227 36.0538C77.3357 36.0538 78.28 35.6491 79.0557 34.8734C79.8315 34.0977 80.2362 33.1196 80.2362 32.0066C80.2362 30.8936 79.8315 29.9493 79.0557 29.1735C78.28 28.3978 77.3357 27.9931 76.2227 27.9931Z" fill="#FCC509"/>
<path d="M99.9325 30.0842C99.3929 29.5446 98.7858 29.3085 98.0438 29.3085H95.4468V26.7115C95.4468 25.9695 95.177 25.3287 94.6374 24.8228C94.0978 24.2832 93.4907 24.0471 92.7487 24.0471C92.0067 24.0471 91.3659 24.3169 90.8262 24.8228C90.3203 25.3625 90.0505 25.9695 90.0505 26.7115V34.6711H98.0101C98.7521 34.6711 99.3929 34.4013 99.8988 33.8616C100.438 33.322 100.674 32.7149 100.674 31.9729C100.742 31.2647 100.472 30.6238 99.9325 30.0842Z" fill="#FCC509"/>
<path d="M85.5313 33.9629C86.0709 34.5025 86.678 34.7386 87.42 34.7386H90.0169V37.3355C90.0169 38.0775 90.2868 38.7183 90.8264 39.2242C91.366 39.7639 91.9731 40.0337 92.7151 40.0337C93.4571 40.0337 94.0979 39.7639 94.6375 39.2242C95.1434 38.6846 95.4132 38.0775 95.4132 37.3355V29.3423H87.4537C86.7117 29.3423 86.0709 29.6121 85.565 30.1517C85.0254 30.6914 84.7893 31.2984 84.7893 32.0404C84.7556 32.7824 84.9917 33.4232 85.5313 33.9629Z" fill="#E41A23"/>
</g>
<defs>
<clipPath id="clip0_108_2830">
<rect width="100.742" height="40" fill="white"/>
</clipPath>
</defs>
</svg>
