<svg width="95" height="38" viewBox="0 0 95 38" fill="none" xmlns="http://www.w3.org/2000/svg">
<g clip-path="url(#clip0_52_2576)">
<path d="M16.836 11.1859C18.3231 12.1493 19.4384 13.4873 20.2882 15.1465C21.138 16.8592 21.5628 18.7324 21.5628 20.8197C21.5628 22.907 21.138 24.7803 20.2882 26.493C19.4384 28.2056 18.27 29.4901 16.836 30.4535C15.3489 31.4169 13.7556 31.8986 12.003 31.8986C10.8345 31.8986 9.71921 31.6845 8.60389 31.2028C7.54168 30.7747 6.58569 30.1324 5.73593 29.3296C5.62971 29.9718 5.31104 30.507 4.72683 30.9352C4.19572 31.3634 3.61151 31.5775 2.92107 31.5775C2.12442 31.5775 1.43398 31.3099 0.849767 30.7211C0.265552 30.1324 0 29.4366 0 28.6338V2.94366C0 2.14085 0.265552 1.44507 0.849767 0.856338C1.43398 0.267606 2.12442 0 2.92107 0C3.71773 0 4.40817 0.267606 4.99238 0.856338C5.5766 1.44507 5.84215 2.14085 5.84215 2.94366V12.2563C6.69192 11.4535 7.59479 10.8113 8.657 10.3831C9.71921 9.95493 10.8345 9.74085 12.003 9.74085C13.8087 9.74085 15.402 10.2225 16.836 11.1859ZM14.1805 24.8873C15.1365 23.8169 15.6145 22.4789 15.6145 20.8197C15.6145 19.1606 15.1365 17.8225 14.1805 16.7521C13.2245 15.6817 12.0561 15.1465 10.6752 15.1465C9.29433 15.1465 8.1259 15.6817 7.16991 16.7521C6.21392 17.8225 5.73593 19.1606 5.73593 20.8197C5.73593 22.4789 6.21392 23.8169 7.16991 24.8873C8.1259 25.9577 9.29433 26.493 10.6752 26.493C12.0561 26.493 13.2245 25.9577 14.1805 24.8873Z" fill="#6B00E0"/>
<path d="M38.1864 10.5973C38.7707 11.186 39.0362 11.8283 39.0362 12.6311C39.0362 13.4339 38.7707 14.1297 38.1864 14.6649C37.6022 15.2536 36.9649 15.5212 36.1682 15.5212C33.9907 15.5212 32.3974 16.0565 31.3883 17.1804C30.3792 18.3043 29.9012 20.2311 29.9012 23.0142V28.6339C29.9012 29.4367 29.6357 30.079 29.0514 30.6677C28.4672 31.2565 27.8299 31.5241 27.0332 31.5241C26.2366 31.5241 25.5462 31.2565 25.015 30.6677C24.4308 30.079 24.1653 29.4367 24.1653 28.6339V12.9522C24.1653 12.1494 24.4308 11.4536 25.015 10.9184C25.5993 10.3297 26.2366 10.0621 27.0332 10.0621C27.7768 10.0621 28.4141 10.2762 28.9452 10.7579C29.4763 11.2396 29.795 11.8283 29.9012 12.5241C31.4414 10.6508 33.5658 9.74097 36.2745 9.74097C36.9649 9.74097 37.6553 10.0621 38.1864 10.5973Z" fill="#6B00E0"/>
<path d="M55.0224 30.4536C53.376 29.4903 52.0482 28.1522 51.0922 26.4931C50.1362 24.8339 49.6051 22.9072 49.6051 20.8198C49.6051 18.7325 50.0831 16.8593 51.0922 15.1466C52.0482 13.4874 53.376 12.1494 55.0224 11.186C56.6688 10.2227 58.5277 9.74097 60.5459 9.74097C62.9359 9.74097 65.1134 10.4367 67.0785 11.8283C67.4503 12.0424 67.7158 12.3635 67.8751 12.7917C68.0876 13.2198 68.1407 13.5945 68.1407 14.0762C68.1407 14.8255 67.8751 15.4677 67.344 16.0029C66.8129 16.5381 66.1756 16.8058 65.4321 16.8058C64.7947 16.8058 64.2636 16.5917 63.7856 16.217C62.7765 15.4677 61.6612 15.0931 60.4928 15.0931C59.1119 15.0931 57.9435 15.6283 56.9875 16.6987C56.0315 17.7691 55.5535 19.1072 55.5535 20.7663C55.5535 22.4255 56.0315 23.7635 56.9875 24.8339C57.9435 25.9043 59.1119 26.4396 60.4928 26.4396C61.6612 26.4396 62.7765 26.0649 63.7856 25.3156C64.2636 24.941 64.7947 24.7269 65.4321 24.7269C66.1756 24.7269 66.8129 24.9945 67.344 25.5297C67.8751 26.0649 68.1407 26.7072 68.1407 27.4565C68.1407 27.8846 68.0345 28.3128 67.8751 28.741C67.6627 29.1691 67.3972 29.4903 67.0785 29.7043C65.1134 31.0959 62.9359 31.7917 60.5459 31.7917C58.5277 31.8452 56.6688 31.417 55.0224 30.4536Z" fill="#6B00E0"/>
<path d="M94.3241 34.9493C94.3241 35.3774 94.2179 35.8056 94.0054 36.2338C93.793 36.6619 93.5274 37.0366 93.1025 37.3042C92.6246 37.6253 92.0934 37.7859 91.4561 37.7859C91.0312 37.7859 90.6064 37.6788 90.1815 37.4647C89.7566 37.2507 89.3848 36.9831 89.1193 36.5549L79.1345 22.5859L76.5321 24.7802V28.6873C76.5321 29.4901 76.2665 30.1859 75.6823 30.7746C75.0981 31.3633 74.4077 31.6309 73.611 31.6309C72.8144 31.6309 72.1239 31.3633 71.5397 30.7746C70.9555 30.1859 70.6899 29.4901 70.6899 28.6873V2.99713C70.6899 2.19431 70.9555 1.49854 71.5397 0.909807C72.1239 0.321073 72.8144 0.0534668 73.611 0.0534668C74.4077 0.0534668 75.0981 0.321073 75.6823 0.909807C76.2665 1.49854 76.5321 2.19431 76.5321 2.99713V17.3408L84.3393 10.6507C84.8173 10.169 85.4546 9.95489 86.1982 9.95489C86.6231 9.95489 86.9948 10.0619 87.4197 10.2225C87.7915 10.3831 88.1102 10.6507 88.3757 11.0253C88.8537 11.507 89.0661 12.1493 89.0661 12.845C89.0661 13.7549 88.6944 14.5042 88.0039 15.0929L83.5427 18.8929L93.7399 33.3436C94.1116 33.7718 94.3241 34.307 94.3241 34.9493Z" fill="#6B00E0"/>
<path d="M46.0467 10.9183C45.4625 10.3296 44.7721 10.062 43.9754 10.062C43.1787 10.062 42.4883 10.3296 41.9041 10.9183C41.3199 11.5071 41.0543 12.2029 41.0543 13.0057V28.6874C41.0543 29.4902 41.3199 30.186 41.9041 30.7747C42.4883 31.3634 43.1787 31.631 43.9754 31.631C44.7721 31.631 45.4625 31.3634 46.0467 30.7747C46.6309 30.186 46.8965 29.4902 46.8965 28.6874V13.0057C46.8965 12.1493 46.6309 11.5071 46.0467 10.9183Z" fill="#6B00E0"/>
<path d="M45.4095 2.94363C44.2942 1.92672 44.8253 0.695738 45.3564 0.107009C43.7631 -0.107076 42.2229 1.49856 41.5324 2.72954C41.5324 2.78306 41.4793 2.83658 41.4793 2.83658C41.0544 3.6394 40.7358 4.6563 40.7889 5.56617V5.61969C40.7889 5.67321 40.7889 5.67321 40.7889 5.72673C40.7889 6.36898 40.9482 6.95772 41.2669 7.49293C41.8511 8.40279 42.8602 9.04504 43.9755 9.04504C44.1879 9.04504 44.4535 9.04504 44.6659 8.99152C46.0999 8.67039 47.2152 7.38588 47.2152 5.83377C47.1621 4.60278 46.4717 3.47884 45.4095 2.94363Z" fill="#6B00E0"/>
</g>
<defs>
<clipPath id="clip0_52_2576">
<rect width="94.5366" height="38" fill="white"/>
</clipPath>
</defs>
</svg>
