<svg width="181" height="28" viewBox="0 0 181 28" fill="none" xmlns="http://www.w3.org/2000/svg">
<g clip-path="url(#clip0_52_2594)">
<path d="M3.81449 17.2868C3.81449 21.1013 6.89855 24.1042 10.6319 24.1042H21.2638V27.9187H10.6319C4.78841 27.9187 0 23.1303 0 17.2868C0 11.3621 4.78841 6.57373 10.6319 6.57373H21.2638V10.3882H10.6319C6.89855 10.3882 3.81449 13.4723 3.81449 17.2868Z" fill="black"/>
<path d="M45.287 27.9187H40.9855L39.0377 24.1042L34.3304 15.0143L29.7044 24.1042L27.7565 27.9187H23.4551L25.4029 24.1042L34.3304 6.57373L43.258 24.1042L45.287 27.9187Z" fill="black"/>
<path d="M68.742 6.57373V27.9187H64.9275V14.365L61.113 17.2056L58.029 19.6404L54.9449 17.2056L51.2116 14.365V27.9187H47.3971V6.57373L51.2116 9.49547L58.029 14.7708L64.9275 9.49547L68.742 6.57373Z" fill="black"/>
<path d="M92.6029 27.9187H88.3826L86.4348 24.1042L81.7275 15.0143L77.1014 24.1042L75.1536 27.9187H70.8522L72.8 24.1042L81.7275 6.57373L90.6551 24.1042L92.6029 27.9187Z" fill="black"/>
<path d="M111.513 24.1855V28H100.719C99.6638 28 98.6087 27.7565 97.716 27.2695C96.3363 26.6202 95.2812 25.484 94.6319 24.1855C94.145 23.2927 93.9015 22.2376 93.9015 21.1826V6.65503H97.716V21.5884C97.8783 22.9681 98.9334 24.0231 100.313 24.1855H111.513Z" fill="black"/>
<path d="M118.736 12.336V14.2839H132.452V18.0984H118.736V22.1563C118.736 23.2114 119.629 24.1042 120.684 24.1042H136.267V27.9187H120.684C117.519 27.9187 114.922 25.3216 114.922 22.1563V12.336C114.922 9.17083 117.519 6.57373 120.684 6.57373H136.267V10.3882H120.684C119.629 10.3882 118.736 11.281 118.736 12.336Z" fill="black"/>
<path d="M160.128 27.9187H155.907L153.959 24.1042L149.252 15.0143L144.626 24.1042L142.678 27.9187H138.377L140.325 24.1042L149.252 6.57373L158.18 24.1042L160.128 27.9187Z" fill="black"/>
<path d="M180.174 17.287C180.174 23.1304 175.386 27.9188 169.542 27.9188C163.699 27.9188 158.91 23.1304 158.91 17.287C158.91 11.4435 163.699 6.65507 169.542 6.65507C175.386 6.57391 180.174 11.3623 180.174 17.287ZM176.359 17.287C176.359 13.4725 173.275 10.4696 169.542 10.4696C165.728 10.4696 162.725 13.5536 162.725 17.287C162.725 21.1014 165.809 24.1043 169.542 24.1043C173.275 24.1043 176.359 21.0203 176.359 17.287Z" fill="black"/>
<path d="M143.328 4.62598V1.62308C144.301 0.568011 145.438 0.0810547 146.655 0.0810547C147.142 0.0810547 147.548 0.162214 147.954 0.243374C148.359 0.324533 149.09 0.568011 150.145 1.05497C151.2 1.46076 151.93 1.70424 152.255 1.70424C152.661 1.70424 153.148 1.54192 153.716 1.29845C154.284 1.05497 154.852 0.649171 155.339 0.0810547V3.16511C155.014 3.48975 154.528 3.89555 153.878 4.22018C153.229 4.54482 152.58 4.70714 151.93 4.70714C151.525 4.70714 151.2 4.62598 150.794 4.54482C150.47 4.46366 149.901 4.22019 149.09 3.89555C147.954 3.40859 146.98 3.16511 146.33 3.16511C145.356 3.00279 144.301 3.57091 143.328 4.62598Z" fill="#D30676"/>
</g>
<defs>
<clipPath id="clip0_52_2594">
<rect width="180.174" height="28" fill="white"/>
</clipPath>
</defs>
</svg>
