<svg width="251" height="42" viewBox="0 0 251 42" fill="none" xmlns="http://www.w3.org/2000/svg">
<path d="M76.2 32.2441L78 32.3441V34.9441H70.3V32.4441L71.4 32.3441C72 32.2441 72.3 32.0441 72.3 31.3441V15.3441C72.3 14.7441 72 14.6441 71.5 14.5441L70.4 14.4441V11.7441H76.2V32.2441Z" fill="#6D4615"/>
<path d="M93.3 31.344C93.3 32.044 93.5 32.244 94.1 32.244L95.1 32.344V34.944H90V33.044H89.9C88.9 34.544 87.2 35.344 85.5 35.344C80.9 35.344 79 32.144 79 27.444C79 21.744 81.7 18.144 87.6 18.144C88.7 18.144 91 18.444 93.4 19.244V31.344H93.3ZM89.6 21.344C89.1 21.144 88.1 20.944 87.1 20.944C84 20.944 83 23.844 83 27.344C83 30.044 83.6 32.544 86.4 32.544C88.4 32.544 89.6 31.144 89.6 29.744V21.344Z" fill="#6D4615"/>
<path d="M96.9 18.644H102.4V20.744C103.5 19.144 105.5 18.144 107.6 18.144C110.8 18.144 112.8 19.944 112.8 23.744V32.244L114.6 32.344V34.944H106.9V32.444L108 32.344C108.6 32.244 108.9 32.044 108.9 31.244V24.544C108.9 22.444 108.4 21.044 106.2 21.044C104.1 21.044 102.9 22.644 102.9 24.344V32.144L104.7 32.244V34.844H97V32.344L98.1 32.244C98.7 32.144 99 31.944 99 31.144V22.144C99 21.444 98.8 21.144 98.2 21.144L96.8 21.044V18.644H96.9Z" fill="#C81617"/>
<path d="M129.8 31.344C129.8 32.044 130 32.244 130.6 32.244L131.6 32.344V34.944H126.4V33.044H126.3C125.3 34.544 123.6 35.344 121.9 35.344C117.3 35.344 115.4 32.144 115.4 27.444C115.4 21.744 118.1 18.144 124 18.144C125.1 18.144 127.4 18.444 129.8 19.244V31.344ZM126.1 21.344C125.6 21.144 124.6 20.944 123.6 20.944C120.5 20.944 119.5 23.844 119.5 27.344C119.5 30.044 120.1 32.544 122.9 32.544C124.9 32.544 126.1 31.144 126.1 29.744V21.344Z" fill="#C81617"/>
<path d="M133.9 22.2442C133.9 21.5442 133.7 21.2442 133.1 21.2442L131.7 21.1442V18.5442H137.2V20.6442C137.8 19.5442 139.6 18.0442 142.3 18.0442C145.9 18.0442 148.2 20.4442 148.2 26.2442C148.2 32.2442 145.4 35.2442 141.1 35.2442C139.8 35.2442 138.5 34.8442 137.6 34.3442V38.8442L140.2 38.9442V41.5442H131.8V39.0442H133C133.6 38.9442 133.9 38.7442 133.9 37.9442V22.2442ZM140.9 21.2442C139 21.2442 137.6 22.5442 137.6 24.0442V31.5442C138.4 32.0442 139.6 32.3442 140.5 32.3442C143.3 32.3442 144.2 29.5442 144.2 26.7442C144.2 22.3442 142.6 21.2442 140.9 21.2442Z" fill="#C81617"/>
<path d="M157.3 18.144C159.7 18.144 164.5 18.844 164.5 26.344C164.5 32.544 161 35.444 156.8 35.444C152.5 35.444 149.6 32.644 149.6 26.744C149.6 20.044 153.9 18.144 157.3 18.144ZM160.6 26.844C160.6 23.244 159.7 20.944 157.1 20.944C154.5 20.944 153.5 23.144 153.5 26.244C153.5 29.244 153.9 32.544 157 32.544C159.6 32.544 160.6 30.244 160.6 26.844Z" fill="#C81617"/>
<path d="M170.6 32.2441L172.4 32.3441V34.9441H164.7V32.4441L165.8 32.3441C166.4 32.2441 166.7 32.0441 166.7 31.3441V15.3441C166.7 14.7441 166.4 14.6441 165.9 14.5441L164.8 14.4441V11.7441H170.6V32.2441Z" fill="#C81617"/>
<path d="M186.6 22.644C186.6 27.644 181.2 28.444 177.4 28.544C177.5 30.644 178.6 32.344 181.4 32.344C183.3 32.344 184.7 31.444 185.5 30.944L186.7 33.544C186.2 34.044 184 35.344 181 35.344C175.5 35.344 173.4 31.944 173.4 27.144C173.4 22.344 176.1 18.144 181.4 18.144C184.5 18.144 186.6 19.744 186.6 22.644ZM181.1 20.844C178.5 20.844 177.3 23.344 177.2 25.744C179.6 25.744 183 25.144 183 22.644C183.1 21.444 182.3 20.844 181.1 20.844Z" fill="#C81617"/>
<path d="M193.7 15.1442V18.5442H198L197.7 21.2442H193.7V29.7442C193.7 31.7442 194.5 32.3442 195.8 32.3442C196.7 32.3442 197.5 31.9442 198 31.6442L199 34.1442C198 34.8442 196.4 35.2442 194.9 35.2442C189.8 35.2442 189.9 32.1442 189.9 29.8442V21.2442H187.6L187.9 18.8442C190.2 18.6442 190.9 16.9442 191.6 15.0442H193.7V15.1442Z" fill="#C81617"/>
<path d="M213.4 31.344C213.4 32.044 213.6 32.244 214.2 32.244L215.2 32.344V34.944H210V33.044H209.9C208.9 34.544 207.2 35.344 205.5 35.344C200.9 35.344 199 32.144 199 27.444C199 21.744 201.7 18.144 207.6 18.144C208.7 18.144 211 18.444 213.4 19.244V31.344ZM209.6 21.344C209.1 21.144 208.1 20.944 207.1 20.944C204 20.944 203 23.844 203 27.344C203 30.044 203.6 32.544 206.4 32.544C208.4 32.544 209.6 31.144 209.6 29.744V21.344Z" fill="#C81617"/>
<path d="M216.4 18.644H221.9V20.744C223 19.144 225 18.144 227.1 18.144C230.3 18.144 232.3 19.944 232.3 23.744V32.244L234.1 32.344V34.944H226.4V32.444L227.5 32.344C228.1 32.244 228.4 32.044 228.4 31.244V24.544C228.4 22.444 227.9 21.044 225.7 21.044C223.6 21.044 222.4 22.644 222.4 24.344V32.144L224.2 32.244V34.844H216.5V32.344L217.6 32.244C218.2 32.144 218.5 31.944 218.5 31.144V22.144C218.5 21.444 218.3 21.144 217.7 21.144L216.3 21.044V18.644H216.4Z" fill="#C81617"/>
<path d="M249 31.344C249 32.044 249.2 32.244 249.8 32.244L250.8 32.344V34.944H245.7V33.044H245.6C244.6 34.544 242.9 35.344 241.2 35.344C236.6 35.344 234.7 32.144 234.7 27.444C234.7 21.744 237.4 18.144 243.3 18.144C244.4 18.144 246.7 18.444 249.1 19.244V31.344H249ZM245.3 21.344C244.8 21.144 243.8 20.944 242.8 20.944C239.7 20.944 238.7 23.844 238.7 27.344C238.7 30.044 239.3 32.544 242.1 32.544C244.1 32.544 245.3 31.144 245.3 29.744V21.344Z" fill="#C81617"/>
<path d="M43.4001 3.8441C42.6001 3.6441 41.9001 4.1441 41.7001 4.9441C41.7001 5.1441 41.7001 5.2441 41.7001 5.4441C41.1001 5.7441 40.6001 5.4441 40.6001 5.4441C40.2001 5.1441 40.3001 4.7441 40.3001 4.5441C40.9001 4.5441 41.4001 4.0441 41.6001 3.4441C41.8001 2.6441 41.3001 1.9441 40.5001 1.7441C39.7001 1.5441 39.0001 2.0441 38.8001 2.8441C38.7001 3.1441 38.7001 3.3441 38.8001 3.6441C38.4001 4.1441 37.8001 3.8441 37.7001 3.7441C37.3001 3.5441 37.3001 3.1441 37.4001 2.9441C37.9001 2.8441 38.3001 2.4441 38.4001 1.9441C38.5001 1.0441 38.0001 0.244101 37.3001 0.0441012C36.5001 -0.155899 35.8001 0.344101 35.6001 1.1441C35.5001 1.6441 35.7001 2.1441 36.0001 2.4441C36.0001 2.6441 35.9001 3.0441 35.3001 3.0441C35.2001 3.0441 34.6001 3.0441 34.4001 2.4441C34.6001 2.2441 34.7001 2.0441 34.7001 1.7441C34.9001 0.944101 34.4001 0.244101 33.6001 0.0441012C32.8001 -0.155899 32.1001 0.344101 31.9001 1.1441C31.8001 1.7441 32.1001 2.3441 32.6001 2.6441C32.6001 2.8441 32.4001 3.3441 32.0001 3.3441C32.0001 3.3441 31.4001 3.4441 31.0001 2.8441C31.1001 2.7441 31.1001 2.5441 31.2001 2.4441C31.4001 1.6441 30.9001 0.944101 30.1001 0.744101C29.3001 0.544101 28.6001 1.0441 28.4001 1.8441C28.2001 2.6441 28.7001 3.3441 29.5001 3.5441H29.6001C29.7001 3.8441 29.9001 4.9441 29.1001 7.6441C29.1001 7.7441 29.1001 7.8441 29.1001 7.8441L29.2001 7.9441H29.3001C29.3001 7.9441 32.0001 7.6441 35.3001 8.3441C38.5001 9.1441 40.9001 10.5441 40.9001 10.5441C40.9001 10.5441 40.9001 10.5441 41.0001 10.5441C41.1001 10.5441 41.1001 10.5441 41.2001 10.5441C41.3001 10.5441 41.3001 10.4441 41.3001 10.3441C41.7001 7.6441 42.4001 6.6441 42.6001 6.4441H42.7001C43.5001 6.6441 44.2001 6.1441 44.4001 5.3441C44.7001 4.7441 44.2001 4.0441 43.4001 3.8441Z" fill="#6D4615"/>
<path d="M31.1999 40.8441C39.8999 40.8441 46.8999 33.8441 46.8999 25.1441C46.8999 16.4441 39.8999 9.44409 31.1999 9.44409C22.4999 9.44409 15.4999 16.4441 15.4999 25.1441C15.3999 33.8441 22.4999 40.8441 31.1999 40.8441Z" fill="#C81617"/>
<path d="M31.2 41.244C22.4 41.244 15.1 34.044 15.1 25.244C15.1 16.444 22.3 9.14404 31.1 9.14404C39.9 9.14404 47.2 16.344 47.2 25.144C47.2 34.044 40 41.244 31.2 41.244ZM31.2 9.74404C22.7 9.74404 15.8 16.644 15.8 25.144C15.8 33.644 22.7 40.544 31.2 40.544C39.7 40.544 46.6 33.644 46.6 25.144C46.6 16.644 39.7 9.74404 31.2 9.74404Z" fill="#6D4615"/>
<path d="M4.09998 17.444C4.49998 18.944 5.59998 19.244 6.39998 19.244V19.344C6.39998 19.344 6.39998 19.344 6.49998 19.244H6.59998V19.144C7.19998 18.644 7.69998 17.644 6.99998 16.244C6.99998 16.244 6.69998 16.544 6.29998 16.944C6.09998 16.444 5.69998 16.044 4.89998 15.644C4.89998 15.644 4.69998 16.444 4.89998 17.344C4.39998 17.444 4.09998 17.444 4.09998 17.444Z" fill="white"/>
<path d="M6.99998 20.8442C7.09998 20.8442 7.09998 20.8442 7.09998 20.8442C7.89998 20.3442 9.09998 19.1442 8.29998 17.0442C8.29998 17.0442 7.89998 17.3442 7.39998 17.8442C7.29998 18.5442 6.89998 19.1442 6.49998 19.4442C5.99998 19.4442 5.29998 19.3442 4.79998 18.8442C4.09998 18.7442 3.59998 18.8442 3.59998 18.8442C4.29998 20.9442 5.99998 21.0442 6.99998 20.8442Z" fill="white"/>
<path d="M7.69998 22.6442C7.79998 22.6442 7.79998 22.6442 7.79998 22.6442C8.69998 22.2442 10.4 21.0442 9.59998 18.5442C9.59998 18.5442 9.19998 18.7442 8.69998 19.2442C8.49998 20.0442 7.89998 20.6442 7.39998 21.0442C7.39998 21.1442 7.29998 21.3442 7.29998 21.4442C7.19998 21.3442 7.09998 21.2442 6.89998 21.2442C6.29998 21.3442 5.39998 21.2442 4.69998 20.8442C3.99998 20.8442 3.59998 20.9442 3.59998 20.9442C4.69998 23.2442 6.69998 22.9442 7.69998 22.6442Z" fill="white"/>
<path d="M8.49995 24.5441C9.49995 24.2441 11.5 23.2441 11.1 20.4441C11.1 20.4441 10.5 20.6441 9.79995 21.1441C9.39995 22.0441 8.69995 22.6441 8.09995 22.9441C8.09995 23.0441 7.99995 23.1441 7.99995 23.3441C7.89995 23.2441 7.69995 23.2441 7.59995 23.1441C6.99995 23.2441 5.99995 23.3441 5.09995 22.9441C4.29995 23.0441 3.69995 23.2441 3.69995 23.2441C5.39995 25.6441 7.49995 24.9441 8.49995 24.5441Z" fill="white"/>
<path d="M19.1 38.1441C18.8 37.8441 18.5 37.7441 18.3 37.5441C18.2 37.5441 18.2 37.4441 18.2 37.4441C18 37.2441 17.8 37.1441 17.6 36.9441C17.5 36.9441 17.5 36.8441 17.4 36.8441C17.2 36.6441 17 36.5441 16.9 36.3441C16.8 36.2441 16.8 36.2441 16.7 36.1441C16.5 36.0441 16.4 35.8441 16.2 35.7441C16.1 35.6441 16.1 35.6441 16 35.5441C15.8 35.4441 15.7 35.2441 15.6 35.1441C15.5 35.0441 15.5 35.0441 15.4 34.9441C15.3 34.8441 15.1 34.6441 15 34.5441C14.9 34.4441 14.9 34.4441 14.9 34.3441C14.8 34.1441 14.6 34.0441 14.5 33.9441L14.4 33.8441C14.3 33.6441 14.1 33.5441 14 33.3441L13.9 33.2441C13.8 33.0441 13.6 32.9441 13.5 32.7441C13.5 32.7441 13.5 32.7441 13.5 32.6441C13 32.0441 12.6 31.5441 12.3 31.0441C12.3 31.0441 12.3 30.9441 12.2 30.9441C12.1 30.8441 12 30.6441 11.9 30.5441C11.9 30.4441 11.8 30.4441 11.8 30.4441C11.7 30.3441 11.7 30.2441 11.6 30.1441C11.6 30.0441 11.5 30.0441 11.5 29.9441C11.4 29.8441 11.4 29.7441 11.3 29.6441C11.3 29.5441 11.2 29.5441 11.2 29.4441C11.1 29.3441 11.1 29.2441 11 29.1441C11 29.0441 10.9 29.0441 10.9 28.9441C10.9 28.8441 10.8 28.7441 10.8 28.6441C10.8 28.5441 10.7 28.5441 10.7 28.4441C10.7 28.3441 10.6 28.2441 10.6 28.2441C10.6 28.1441 10.6 28.1441 10.5 28.0441C10.5 27.9441 10.4 27.9441 10.4 27.8441C10.4 27.8441 10.4 27.7441 10.3 27.7441C10.3 27.6441 10.2 27.6441 10.2 27.5441C10.2 27.5441 10.2 27.4441 10.1 27.4441C10.1 27.3441 10.1 27.3441 10 27.2441V27.1441C10 27.0441 10 27.0441 9.9 26.9441V26.8441C9.9 26.7441 9.8 26.6441 9.8 26.6441C11 26.1441 12.6 24.9441 12.2 22.2441C12.2 22.2441 11.6 22.4441 10.9 22.9441C10.5 23.8441 9.8 24.3441 9.2 24.6441C9 24.9441 8.8 25.2441 8.7 25.6441C8.4 25.4441 8 25.2441 7.7 25.2441C7 25.4441 6.2 25.5441 5.3 25.1441C4.6 25.2441 4 25.4441 4 25.4441C5.7 27.8441 7.8 27.4441 9 26.9441C9.2 27.3441 9.3 27.6441 9.5 28.0441C9.5 28.1441 9.6 28.1441 9.6 28.2441C9.8 28.5441 9.9 28.9441 10.1 29.2441C10.1 29.3441 10.2 29.3441 10.2 29.4441C10.4 29.7441 10.6 30.0441 10.7 30.3441L10.8 30.4441C11 30.7441 11.2 31.0441 11.4 31.3441C11.6 31.6441 11.8 31.9441 12 32.2441L12.1 32.3441C12.3 32.6441 12.5 32.8441 12.7 33.1441C12.7 33.2441 12.8 33.2441 12.8 33.3441C13 33.6441 13.2 33.8441 13.4 34.1441L13.5 34.2441C13.7 34.4441 13.9 34.7441 14.1 34.9441C14.1 34.9441 14.1 34.9441 14.2 35.0441C14.4 35.2441 14.6 35.5441 14.9 35.7441L15 35.8441C15.2 36.0441 15.4 36.2441 15.6 36.4441L15.7 36.5441C15.9 36.7441 16.1 36.9441 16.4 37.1441L16.5 37.2441C16.7 37.4441 16.9 37.6441 17.1 37.8441L17.2 37.9441C17.4 38.1441 17.6 38.3441 17.9 38.4441C18 38.4441 18 38.5441 18 38.5441C18.2 38.7441 18.4 38.8441 18.7 39.0441L18.8 39.1441C19 39.3441 19.3 39.4441 19.5 39.6441C19.5 39.6441 19.6 39.6441 19.6 39.7441C19.8 39.8441 20 40.0441 20.2 40.1441L20.3 40.2441C22.8 41.7441 22.6 40.4441 22.6 40.4441C21.4 39.8441 20.2 38.9441 19.1 38.1441Z" fill="white"/>
<path d="M23.2001 40.5442L22.8 40.6442L23.2001 40.4442L23 40.1442C21.7 39.4442 20.5 38.5442 19.4 37.7442L19.3 37.6442C19.1 37.4442 18.8 37.2442 18.6 37.1442L18.5 37.0442C18.3 36.8442 18.1 36.7442 17.9 36.5442L17.7 36.4442C17.5 36.2442 17.4 36.1442 17.2 35.9442L17 35.8442C16.8 35.7442 16.7 35.5442 16.5 35.4442L16.4 35.3442C16.3 35.2442 16.1 35.0442 16 34.9442L15.8 34.7442C15.7 34.6442 15.5 34.4442 15.4 34.3442L15.2 34.0442C15.1 33.9442 14.9 33.7442 14.8 33.6442L14.7 33.5442C14.6 33.3442 14.4 33.2442 14.3 33.0442L14.2 32.9442C14.1 32.7442 13.9 32.6442 13.8 32.4442C13.4 31.9442 13 31.3442 12.6 30.8442L12.5 30.7442C12.4 30.6442 12.3 30.4442 12.2 30.3442V30.0442C12.1 29.9442 12.1 29.8442 12 29.7442L11.9 29.5442C11.8 29.4442 11.8 29.3442 11.7 29.2442L11.6 29.0442C11.5 28.9442 11.5 28.8442 11.5 28.7442L11.4 28.5442C11.4 28.4442 11.3 28.3442 11.3 28.3442L11 27.8442C11 27.7442 10.9 27.7442 10.9 27.6442L10.6 26.9442V26.8442C11.8 26.2442 13.3 24.8442 12.9 22.1442L12.8 21.5442L12.2 21.7442C12.2 21.7442 11.9 21.8442 11.5 22.0442C11.6 21.5442 11.6 21.0442 11.6 20.3442L11.5 19.7442L10.9 20.0442C10.9 20.0442 10.6 20.1442 10.2 20.3442C10.3 19.7442 10.3 19.1442 10 18.4442L9.80005 17.8442L9.30005 18.1442C9.30005 18.1442 9.20005 18.2442 9.00005 18.3442C9.00005 17.9442 8.90005 17.4442 8.70005 16.8442L8.50005 16.2442L8.00005 16.6442C8.00005 16.6442 7.90005 16.7442 7.70005 16.9442C7.60005 16.6442 7.50005 16.4442 7.40005 16.1442L7.10005 15.6442L6.60005 16.0442C6.60005 16.0442 6.50005 16.1442 6.30005 16.3442C6.00005 15.9442 5.60005 15.6442 5.10005 15.4442L4.50005 15.0442L4.40005 15.6442C4.40005 15.6442 4.30005 16.2442 4.30005 16.9442C4.10005 16.9442 4.00005 16.9442 4.00005 16.9442H3.40005L3.60005 17.5442C3.70005 17.8442 3.80005 18.0442 3.90005 18.3442C3.60005 18.3442 3.50005 18.3442 3.50005 18.3442L2.90005 18.4442L3.10005 19.0442C3.30005 19.5442 3.60005 20.0442 3.80005 20.3442C3.60005 20.3442 3.40005 20.4442 3.40005 20.4442L2.80005 20.5442L3.10005 21.0442C3.40005 21.7442 3.90005 22.2442 4.30005 22.5442C3.90005 22.6442 3.60005 22.7442 3.60005 22.7442L3.00005 23.0442L3.30005 23.5442C3.60005 24.0442 4.00005 24.4442 4.50005 24.7442C4.10005 24.8442 3.80005 25.0442 3.80005 25.0442L3.20005 25.2442L3.50005 25.7442C5.20005 28.2442 7.40005 27.9442 8.70005 27.6442C8.80005 27.8442 8.90005 28.0442 9.00005 28.2442L9.10005 28.4442C9.30005 28.7442 9.40005 29.1442 9.60005 29.4442C9.60005 29.5442 9.70005 29.5442 9.70005 29.6442C9.90005 29.9442 10.1 30.2442 10.2 30.6442L10.3 30.7442C10.5 31.0442 10.7 31.3442 10.9 31.6442C11.1 31.9442 11.3 32.2442 11.5 32.5442L11.6 32.7442C11.8 33.0442 12 33.3442 12.2 33.5442L12.3 33.7442C12.5 34.0442 12.7 34.2442 12.9 34.5442L13 34.6442C13.2 34.9442 13.4 35.1442 13.6 35.3442L13.7 35.4442C13.9 35.6442 14.1 35.9442 14.4 36.1442L14.5 36.2442C14.7 36.4442 14.9 36.6442 15.2 36.9442L15.3 37.0442C15.5 37.2442 15.7 37.4442 16 37.6442L16.1 37.7442C16.3 37.9442 16.5 38.1442 16.8 38.3442L16.9 38.4442C17.1 38.6442 17.4 38.8442 17.6 39.0442L17.7 39.1442C17.9 39.3442 18.1 39.4442 18.4 39.6442L18.5 39.7442C18.7 39.9442 19.0001 40.0442 19.2001 40.2442L19.3 40.3442C19.5 40.5442 19.7 40.6442 20 40.7442C20 40.7442 20.1 40.7442 20.1 40.8442C20.9 41.3442 21.5 41.5442 22 41.6442C22.3 41.6442 22.6 41.6442 22.8 41.4442C23.2 41.1442 23.2001 40.7442 23.2001 40.5442ZM4.90005 17.4442C4.70005 16.5442 4.90005 15.7442 4.90005 15.7442C5.60005 16.1442 6.00005 16.5442 6.20005 17.0442C6.50005 16.6442 6.90005 16.3442 6.90005 16.3442C7.60005 17.7442 7.00005 18.6442 6.50005 19.2442V19.3442H6.40005C6.40005 19.3442 6.40005 19.3442 6.30005 19.4442V19.3442C5.50005 19.3442 4.50005 18.9442 4.00005 17.5442C4.10005 17.4442 4.40005 17.4442 4.90005 17.4442ZM3.60005 18.8442C3.60005 18.8442 4.10005 18.7442 4.80005 18.8442C5.30005 19.3442 6.00005 19.4442 6.50005 19.4442C6.90005 19.1442 7.30005 18.5442 7.40005 17.8442C7.80005 17.3442 8.20005 17.0442 8.20005 17.0442C9.10005 19.1442 7.80005 20.3442 7.00005 20.8442C7.00005 20.8442 7.00005 20.8442 6.90005 20.8442C6.90005 20.8442 6.90005 20.8442 6.80005 20.8442C6.00005 21.0442 4.30005 20.9442 3.60005 18.8442ZM3.60005 20.8442C3.60005 20.8442 4.10005 20.7442 4.70005 20.7442C5.50005 21.2442 6.30005 21.2442 6.90005 21.1442C7.00005 21.2442 7.10005 21.2442 7.30005 21.3442C7.30005 21.2442 7.40005 21.0442 7.40005 20.9442C7.90005 20.6442 8.50005 20.0442 8.70005 19.1442C9.20005 18.7442 9.60005 18.4442 9.60005 18.4442C10.4 20.9442 8.70005 22.1442 7.80005 22.5442C7.80005 22.5442 7.80005 22.5442 7.70005 22.5442C7.70005 22.5442 7.70005 22.5442 7.60005 22.5442C6.70005 22.9442 4.70005 23.2442 3.60005 20.8442ZM3.80005 23.2442C3.80005 23.2442 4.40005 23.0442 5.20005 22.9442C6.00005 23.3442 7.00005 23.2442 7.60005 23.1442C7.70005 23.2442 7.90005 23.2442 8.00005 23.3442C8.00005 23.2442 8.10005 23.0442 8.20005 22.9442C8.80005 22.6442 9.50005 22.0442 9.90005 21.1442C10.6 20.7442 11.2 20.4442 11.2 20.4442C11.6 23.2442 9.60005 24.2442 8.60005 24.5442C7.50005 24.9442 5.40005 25.6442 3.80005 23.2442ZM20.4 40.3442L20.3 40.2442C20.1 40.1442 19.9001 39.9442 19.7001 39.8442C19.7001 39.8442 19.6 39.8442 19.6 39.7442C19.4 39.5442 19.1 39.4442 18.9 39.2442L18.8 39.1442C18.6 38.9442 18.4 38.8442 18.1 38.6442L18 38.5442C17.8 38.3442 17.6 38.1442 17.3 38.0442L17.2 37.9442C17 37.7442 16.8 37.5442 16.6 37.3442L16.5 37.2442C16.3 37.0442 16.1 36.8442 15.8 36.6442L15.7 36.5442C15.5 36.3442 15.3 36.1442 15.1 35.9442L15 35.8442C14.8 35.6442 14.6 35.3442 14.3 35.1442C14.3 35.1442 14.3 35.1442 14.2 35.0442C14 34.8442 13.8 34.5442 13.6 34.3442L13.5 34.2442C13.3 33.9442 13.1 33.7442 12.9 33.4442C12.9 33.3442 12.8 33.3442 12.8 33.2442C12.6 32.9442 12.4 32.7442 12.2 32.4442L12.1 32.3442C11.9 32.0442 11.7 31.7442 11.5 31.4442C11.3 31.1442 11.1 30.8442 10.9 30.5442L10.8 30.4442C10.6 30.1442 10.4 29.8442 10.3 29.5442C10.3 29.4442 10.2 29.4442 10.2 29.3442C10 29.0442 9.90005 28.7442 9.70005 28.3442C9.70005 28.2442 9.60005 28.2442 9.60005 28.1442C9.40005 27.7442 9.30005 27.4442 9.10005 27.0442C7.90005 27.5442 5.70005 27.9442 4.10005 25.5442C4.10005 25.5442 4.70005 25.3442 5.60005 25.1442C6.50005 25.5442 7.40005 25.4442 8.00005 25.2442C8.40005 25.3442 8.70005 25.4442 9.00005 25.6442C9.10005 25.2442 9.30005 24.9442 9.50005 24.6442C10.1 24.3442 10.8 23.8442 11.2 22.9442C11.9 22.4442 12.5 22.2442 12.5 22.2442C12.9 24.9442 11.3 26.1442 10.1 26.6442C10.1 26.7442 10.1 26.7442 10.2 26.8442V26.9442C10.2 27.0442 10.2 27.0442 10.3 27.1442V27.2442C10.3 27.3442 10.3 27.3442 10.4 27.4442C10.4 27.4442 10.4 27.5442 10.5 27.5442C10.5 27.6442 10.6 27.6442 10.6 27.7442C10.6 27.7442 10.6 27.8442 10.7 27.8442C10.7 27.9442 10.8 27.9442 10.8 28.0442C10.8 28.1442 10.8 28.1442 10.9 28.2442C10.9 28.3442 11 28.4442 11 28.4442C11 28.5442 11.1 28.5442 11.1 28.6442C11.1 28.7442 11.2 28.8442 11.2 28.9442C11 28.9442 11 29.0442 11 29.0442C11 29.1442 11.1 29.2442 11.2 29.3442C11.2 29.4442 11.3 29.4442 11.3 29.5442C11.4 29.6442 11.4 29.7442 11.5 29.8442C11.5 29.9442 11.6 29.9442 11.6 30.0442C11.7 30.1442 11.7 30.2442 11.8 30.3442L11.9 30.4442C12 30.5442 12.1 30.7442 12.2 30.8442C12.2 30.8442 12.2 30.9442 12.3 30.9442C12.7 31.4442 13.1 32.0442 13.5 32.5442C13.5 32.5442 13.5 32.5442 13.5 32.6442C13.6 32.8442 13.8 32.9442 13.9 33.1442L14 33.2442C14.1 33.4442 14.3 33.5442 14.4 33.7442L14.5 33.8442C14.6 33.9442 14.8 34.1442 14.9 34.2442C14.9 34.3442 15 34.3442 15 34.4442C15.1 34.5442 15.3 34.7442 15.4 34.8442C15.5 34.9442 15.5 34.9442 15.6 35.0442C15.7 35.1442 15.9 35.3442 16 35.4442C16.1 35.5442 16.1 35.5442 16.2 35.6442C16.4 35.7442 16.5 35.9442 16.7 36.0442C16.8 36.1442 16.8 36.1442 16.9 36.2442C17.1 36.4442 17.2 36.5442 17.4 36.7442C17.5 36.7442 17.5 36.8442 17.6 36.8442C17.8 37.0442 18 37.1442 18.2 37.3442L18.3 37.4442C18.5 37.6442 18.7 37.8442 19 37.9442L19.1 38.0442C20.2 38.8442 21.4001 39.6442 22.7001 40.4442C22.7001 40.6442 22.9 41.8442 20.4 40.3442Z" fill="#6D4615"/>
<path d="M0.599976 30.544C1.49998 31.444 2.39998 31.344 2.99998 31.044C2.99998 31.044 2.99998 31.044 2.99998 30.944C2.99998 30.944 2.99998 30.944 3.09998 30.944C3.29998 30.344 3.39998 29.444 2.29998 28.644C2.29998 28.644 2.19998 28.944 2.09998 29.444C1.79998 29.144 1.29998 28.944 0.599976 29.044C0.599976 29.044 0.799976 29.744 1.29998 30.244C0.899976 30.444 0.599976 30.544 0.599976 30.544Z" fill="white"/>
<path d="M4.00005 31.944C4.10005 31.944 4.10005 31.944 4.00005 31.944C4.50005 31.144 4.90005 29.844 3.50005 28.644C3.50005 28.644 3.30005 29.044 3.20005 29.544C3.40005 30.144 3.30005 30.644 3.20005 31.044C2.80005 31.244 2.30005 31.444 1.70005 31.244C1.20005 31.444 0.800049 31.644 0.800049 31.644C2.10005 33.044 3.40005 32.444 4.00005 31.944Z" fill="white"/>
<path d="M5.19998 33.0441C5.29998 33.0441 5.29998 32.9441 5.19998 33.0441C5.79998 32.3441 6.59998 30.8441 5.09998 29.2441C5.09998 29.2441 4.89998 29.5441 4.69998 30.0441C4.89998 30.7441 4.59998 31.4441 4.39998 31.8441C4.39998 31.9441 4.39998 32.0441 4.49998 32.1441C4.39998 32.1441 4.29998 32.1441 4.19998 32.1441C3.79998 32.4441 3.19998 32.7441 2.39998 32.6441C1.89998 32.9441 1.59998 33.1441 1.59998 33.1441C3.19998 34.5441 4.59998 33.6441 5.19998 33.0441Z" fill="white"/>
<path d="M6.50002 34.144C7.10002 33.544 8.20002 32.044 6.90002 30.144C6.90002 30.144 6.60002 30.544 6.20002 31.144C6.30002 31.944 5.90002 32.644 5.60002 33.044C5.60002 33.144 5.60002 33.344 5.60002 33.444C5.50002 33.444 5.30002 33.444 5.20002 33.444C4.80002 33.744 4.20002 34.244 3.30002 34.244C2.80002 34.644 2.40002 35.044 2.40002 35.044C4.60002 36.044 5.90002 34.844 6.50002 34.144Z" fill="white"/>
<path d="M19.3 40.1441H19.2C19 40.1441 18.7 40.0441 18.5 40.0441C18.4 40.0441 18.4 40.0441 18.3 40.0441C18.1 40.0441 17.9 39.9441 17.7 39.9441C17.6 39.9441 17.6 39.9441 17.5 39.9441C17.3 39.9441 17.1 39.8441 16.9 39.8441C16.8 39.8441 16.8 39.8441 16.7 39.7441C16.5 39.7441 16.4 39.6441 16.2 39.6441C16.1 39.6441 16.1 39.6441 16 39.5441C15.8 39.4441 15.7 39.4441 15.5 39.3441C15.4 39.3441 15.4 39.3441 15.3 39.2441C15.3 39.0441 15.1 39.0441 15 38.9441C14.9 38.9441 14.9 38.9441 14.8 38.8441C14.6 38.7441 14.5 38.7441 14.3 38.6441C14.2 38.6441 14.2 38.6441 14.2 38.5441C14 38.4441 13.9 38.4441 13.7 38.3441H13.6C13.4 38.2441 13.3 38.2441 13.1 38.1441C12.6 37.8441 12.1 37.6441 11.6 37.3441C11.6 37.3441 11.5 37.3441 11.5 37.2441C11.4 37.1441 11.3 37.1441 11.2 37.0441C11.2 37.0441 11.1 37.0441 11.1 36.9441C11 36.8441 10.9 36.8441 10.8 36.7441L10.7 36.6441C10.6 36.5441 10.5 36.5441 10.5 36.4441L10.4 36.3441C10.3 36.3441 10.3 36.2441 10.2 36.2441L10.1 36.1441C9.99995 36.1441 9.99995 36.0441 9.89995 36.0441L9.79995 35.9441C9.69995 35.9441 9.69995 35.8441 9.59995 35.8441L9.49995 35.7441C9.39995 35.7441 9.39995 35.6441 9.29995 35.6441L9.19995 35.5441L9.09995 35.4441L8.99995 35.3441L8.89995 35.2441C8.89995 35.2441 8.79995 35.2441 8.79995 35.1441L8.69995 35.0441C8.69995 35.0441 8.69995 35.0441 8.59995 34.9441C8.49995 34.8441 8.49995 34.8441 8.49995 34.8441C9.19995 34.0441 9.89995 32.5441 8.69995 30.7441C8.69995 30.7441 8.29995 31.1441 7.99995 31.7441C7.99995 32.5441 7.69995 33.1441 7.29995 33.6441C7.29995 33.9441 7.29995 34.2441 7.29995 34.5441C6.99995 34.5441 6.69995 34.5441 6.39995 34.6441C5.99995 35.0441 5.39995 35.4441 4.59995 35.5441C3.99995 35.9441 3.69995 36.3441 3.69995 36.3441C5.79995 37.4441 7.19995 36.3441 7.89995 35.6441C8.19995 35.8441 8.39995 36.0441 8.69995 36.2441L8.79995 36.3441C8.99995 36.5441 9.29995 36.7441 9.49995 36.8441L9.59995 36.9441C9.79995 37.1441 10.1 37.2441 10.3 37.4441C10.3 37.4441 10.4 37.4441 10.4 37.5441C10.6 37.7441 10.9 37.8441 11.1 38.0441C11.4 38.1441 11.6 38.3441 11.9 38.4441C11.9 38.4441 12 38.4441 12 38.5441C12.2 38.6441 12.5 38.8441 12.7 38.9441C12.7 38.9441 12.8 38.9441 12.8 39.0441C13 39.1441 13.3 39.2441 13.5 39.3441H13.6C13.8 39.4441 14.1 39.5441 14.3 39.6441C14.3 39.6441 14.3 39.6441 14.4 39.6441C14.6 39.7441 14.9 39.8441 15.1 39.9441C15.1 39.9441 15.2 39.9441 15.2 40.0441C15.4 40.1441 15.7 40.2441 15.9 40.2441H16C16.2 40.3441 16.5 40.3441 16.7 40.4441H16.8C17 40.5441 17.3 40.5441 17.5 40.6441H17.6C17.8 40.7441 18.1 40.7441 18.3 40.8441C18.4 40.8441 18.4 40.8441 18.5 40.8441C18.7 40.8441 19 40.9441 19.2 40.9441H19.3C19.5 40.9441 19.8 41.0441 20 41.0441C20 41.0441 20 41.0441 20.1 41.0441C20.3 41.0441 20.5 41.1441 20.7 41.1441H20.7999C23.1999 41.3441 22.6 40.4441 22.6 40.4441C21.6 40.4441 20.4 40.3441 19.3 40.1441Z" fill="white"/>
<path d="M23.2 40.3442L22.9 40.1442C21.7 40.0442 20.5 39.9442 19.4 39.7442H19.3C19.1 39.7442 18.8 39.6442 18.6 39.6442H18.4C18.2 39.6442 18 39.5442 17.8 39.5442H17.6C17.4 39.5442 17.2 39.4442 17.1 39.4442L16.9 39.3442C16.7 39.3442 16.6 39.2442 16.4 39.2442H16.3H16.2C16 39.1442 15.9 39.1442 15.7 39.0442L15.5 38.9442C15.3 38.8442 15.2 38.8442 15 38.7442L14.8 38.6442C14.6 38.5442 14.5 38.5442 14.3 38.4442L14.2 38.3442C14 38.2442 13.9 38.2442 13.7 38.1442H13.6C13.4 38.0442 13.3 38.0442 13.1 37.9442C12.6 37.7442 12.1 37.4442 11.6 37.2442L11.7 37.0442C11.6 36.9442 11.5 36.9442 11.4 36.8442L11.3 36.7442C11.2 36.6442 11.1 36.6442 11 36.5442L10.9 36.4442C10.8 36.3442 10.7 36.3442 10.7 36.2442L10.6 36.1442C10.5 36.1442 10.5 36.0442 10.4 36.0442H10.1C10 36.0442 10 35.9442 9.9 35.9442L9.5 35.6442L9.4 35.5442L8.9 35.0442C8.9 35.0442 8.9 35.0442 8.8 35.0442C9.4 34.1442 10 32.6442 8.7 30.7442L8.4 30.3442L8.1 30.7442C8.1 30.7442 7.9 30.9442 7.7 31.2442C7.6 30.8442 7.4 30.4442 7.1 30.0442L6.8 29.6442L6.5 30.0442C6.5 30.0442 6.3 30.2442 6.1 30.5442C6 30.1442 5.7 29.6442 5.3 29.1442L5 28.6442L4.8 29.0442C4.8 29.0442 4.7 29.1442 4.6 29.3442C4.4 29.0442 4.2 28.7442 3.8 28.3442L3.4 28.0442L3.2 28.4442C3.2 28.4442 3.1 28.5442 3.1 28.7442C3 28.5442 2.8 28.4442 2.6 28.2442L2.1 28.0442L1.9 28.5442C1.9 28.5442 1.8 28.6442 1.8 28.8442C1.4 28.6442 1 28.6442 0.6 28.6442H0.1L0.2 29.1442C0.2 29.1442 0.3 29.6442 0.6 30.0442C0.5 30.1442 0.4 30.1442 0.4 30.1442L0 30.4442L0.3 30.8442C0.5 31.0442 0.6 31.1442 0.8 31.3442C0.6 31.4442 0.5 31.5442 0.5 31.5442L0.1 31.8442L0.5 32.0442C0.8 32.3442 1.2 32.5442 1.5 32.7442C1.3 32.8442 1.2 32.9442 1.2 32.9442L0.8 33.2442L1.2 33.5442C1.7 33.9442 2.2 34.1442 2.6 34.2442C2.3 34.4442 2.2 34.6442 2.2 34.6442L1.9 35.0442L2.3 35.2442C2.7 35.4442 3.2 35.6442 3.6 35.6442C3.3 35.9442 3.1 36.0442 3.1 36.1442L2.8 36.5442L3.2 36.7442C5.4 37.9442 6.9 36.9442 7.7 36.1442C7.9 36.2442 8 36.4442 8.2 36.5442L8.3 36.6442C8.5 36.8442 8.8 37.0442 9 37.1442L9.1 37.2442C9.4 37.4442 9.6 37.5442 9.9 37.7442L10 37.8442C10.3 38.0442 10.5 38.1442 10.8 38.3442C11.1 38.5442 11.3 38.6442 11.6 38.7442L11.7 38.8442C11.9 38.9442 12.2 39.1442 12.4 39.2442L12.5 39.3442C12.8 39.4442 13 39.5442 13.3 39.6442H13.4C13.6 39.7442 13.9 39.8442 14.1 39.9442H14.2C14.5 40.0442 14.7 40.1442 15 40.2442L15.1 40.3442C15.3 40.4442 15.6 40.5442 15.8 40.5442H15.9C16.1 40.6442 16.4 40.6442 16.6 40.7442H16.7C16.9 40.8442 17.2 40.8442 17.4 40.9442H17.5C17.7 41.0442 18 41.0442 18.2 41.1442H18.4C18.6 41.1442 18.9 41.2442 19.1 41.2442H19.3C19.5 41.2442 19.8 41.3442 20 41.3442H20.1C20.3 41.3442 20.5 41.4442 20.7 41.4442H20.8C21.6 41.4442 22.1 41.4442 22.5 41.3442C22.7 41.2442 22.9 41.1442 23 40.9442C23.4 40.8442 23.3 40.5442 23.2 40.3442ZM1.3 30.2442C0.8 29.7442 0.6 29.0442 0.6 29.0442C1.3 29.0442 1.7 29.2442 2.1 29.4442C2.2 29.0442 2.3 28.6442 2.3 28.6442C3.3 29.4442 3.2 30.3442 3 30.9442C3 30.9442 3 30.9442 2.9 30.9442C2.9 30.9442 2.9 30.9442 2.9 31.0442C2.3 31.3442 1.4 31.4442 0.6 30.5442C0.6 30.5442 0.9 30.3442 1.3 30.2442ZM0.8 31.7442C0.8 31.7442 1.2 31.5442 1.7 31.3442C2.3 31.5442 2.8 31.3442 3.2 31.1442C3.4 30.7442 3.5 30.2442 3.2 29.6442C3.3 29.1442 3.5 28.7442 3.5 28.7442C4.9 29.9442 4.4 31.2442 4.1 31.9442C4.1 31.9442 4.1 31.9442 4.1 32.0442C3.4 32.4442 2.1 33.0442 0.8 31.7442ZM1.5 33.2442C1.5 33.2442 1.8 32.9442 2.3 32.7442C3 32.8442 3.7 32.5442 4.1 32.2442C4.2 32.2442 4.3 32.2442 4.4 32.2442C4.4 32.1442 4.3 32.0442 4.3 31.9442C4.5 31.5442 4.8 30.8442 4.6 30.1442C4.8 29.6442 5 29.3442 5 29.3442C6.5 30.8442 5.7 32.3442 5.2 33.0442C4.6 33.6442 3.2 34.5442 1.5 33.2442ZM2.6 34.9442C2.6 34.9442 2.9 34.5442 3.5 34.1442C4.3 34.1442 5 33.7442 5.4 33.3442C5.5 33.3442 5.7 33.3442 5.8 33.3442C5.8 33.2442 5.8 33.0442 5.8 32.9442C6.1 32.5442 6.4 31.8442 6.4 31.0442C6.7 30.4442 7.1 30.0442 7.1 30.0442C8.4 31.9442 7.3 33.3442 6.7 34.0442C5.9 34.8442 4.6 36.0442 2.6 34.9442ZM21.1 41.2442H21C20.8 41.2442 20.6 41.2442 20.4 41.1442H20.3C20.1 41.1442 19.8 41.0442 19.6 41.0442H19.5C19.3 41.0442 19.1 40.9442 18.8 40.9442C18.7 40.9442 18.7 40.9442 18.6 40.9442C18.4 40.9442 18.1 40.8442 17.9 40.7442H17.8C17.6 40.6442 17.3 40.6442 17.1 40.5442H17C16.8 40.4442 16.5 40.4442 16.3 40.3442H16.2C16 40.2442 15.7 40.1442 15.5 40.1442C15.5 40.1442 15.4 40.1442 15.4 40.0442C15.2 39.9442 14.9 39.8442 14.7 39.7442C14.7 39.7442 14.7 39.7442 14.6 39.7442C14.4 39.6442 14.1 39.5442 13.9 39.4442H13.8C13.6 39.3442 13.3 39.2442 13.1 39.1442C13.1 39.1442 13 39.1442 13 39.0442C12.8 38.9442 12.5 38.8442 12.3 38.6442C12.3 38.6442 12.2 38.6442 12.2 38.5442C11.9 38.4442 11.7 38.2442 11.4 38.1442C11.1 38.0442 10.9 37.8442 10.6 37.6442C10.6 37.6442 10.5 37.6442 10.5 37.5442C10 37.3442 9.8 37.2442 9.5 37.0442L9.4 36.9442C9.2 36.7442 8.9 36.6442 8.7 36.4442L8.6 36.3442C8.3 36.1442 8.1 35.9442 7.8 35.7442C7.1 36.5442 5.7 37.6442 3.6 36.4442C3.6 36.4442 4 36.0442 4.5 35.6442C5.3 35.5442 5.9 35.1442 6.3 34.7442C6.6 34.6442 6.9 34.6442 7.2 34.6442C7.1 34.3442 7.1 34.0442 7.2 33.7442C7.5 33.2442 7.9 32.6442 7.9 31.8442C8.3 31.2442 8.6 30.8442 8.6 30.8442C9.8 32.7442 9 34.2442 8.3 35.0442L8.4 35.1442C8.4 35.1442 8.4 35.1442 8.5 35.2442L8.6 35.3442C8.6 35.3442 8.6 35.3442 8.7 35.4442L8.8 35.5442L8.9 35.6442L9 35.7442L9.1 35.8442C9.1 35.8442 9.2 35.9442 9.3 35.9442L9.4 36.0442C9.5 36.0442 9.5 36.1442 9.6 36.1442L9.7 36.2442C9.8 36.2442 9.8 36.3442 9.9 36.3442L10 36.4442C10.1 36.4442 10.1 36.5442 10.2 36.5442L10.3 36.6442C10.4 36.7442 10.5 36.7442 10.5 36.8442L10.6 36.9442C10.7 37.0442 10.8 37.0442 10.9 37.1442C10.9 37.1442 11 37.1442 11 37.2442C11.1 37.3442 11.2 37.3442 11.3 37.4442C11.3 37.4442 11.4 37.4442 11.4 37.5442C11.9 37.8442 12.3 38.0442 12.9 38.3442C12.9 38.3442 12.9 38.3442 13 38.3442C13.2 38.4442 13.3 38.4442 13.5 38.5442H13.6C13.8 38.6442 13.9 38.6442 14.1 38.7442C14.1 38.7442 14.2 38.7442 14.2 38.8442C14.4 38.9442 14.5 38.9442 14.7 39.0442C14.8 39.0442 14.8 39.0442 14.9 39.1442C15.1 39.2442 15.2 39.2442 15.4 39.3442C15.5 39.3442 15.5 39.3442 15.6 39.4442C15.8 39.5442 15.9 39.5442 16.1 39.6442C16.2 39.6442 16.2 39.6442 16.3 39.7442C16.5 39.8442 16.6 39.8442 16.8 39.8442C16.9 39.8442 16.9 39.8442 17 39.9442C17.2 39.9442 17.4 40.0442 17.6 40.0442C17.7 40.0442 17.7 40.0442 17.8 40.0442C18 40.0442 18.2 40.1442 18.4 40.1442C18.5 40.1442 18.5 40.1442 18.6 40.1442C18.8 40.1442 19.1 40.2442 19.3 40.2442H19.4C20.5 40.4442 21.7 40.6442 23 40.6442C22.9 40.5442 23.5 41.4442 21.1 41.2442Z" fill="#6D4615"/>
<path d="M19.2 39.5441C19.2 39.5441 20.5 40.5441 21.1 40.6441L22.9 40.5441C22.9 40.5441 23.1 40.7441 21 39.4441L19.2 39.5441Z" fill="white"/>
<path d="M58.6 17.444C58.2 18.944 57.1 19.244 56.3 19.244V19.344C56.3 19.344 56.3 19.344 56.2 19.244H56.1V19.144C55.5 18.644 55 17.644 55.7 16.244C55.7 16.244 56 16.544 56.4 16.944C56.6 16.444 57 16.044 57.8 15.644C57.8 15.644 58 16.444 57.8 17.344C58.3 17.444 58.6 17.444 58.6 17.444Z" fill="white"/>
<path d="M55.8 20.8442C55.7 20.8442 55.7 20.8442 55.8 20.8442C55.7 20.8442 55.7 20.8442 55.7 20.8442C54.9 20.3442 53.7 19.1442 54.5 17.0442C54.5 17.0442 54.9 17.3442 55.4 17.8442C55.5 18.5442 55.9 19.1442 56.3 19.4442C56.8 19.4442 57.5 19.3442 58 18.8442C58.7 18.7442 59.2 18.8442 59.2 18.8442C58.4 20.9442 56.7 21.0442 55.8 20.8442Z" fill="white"/>
<path d="M55.1 22.6442C55 22.6442 55 22.6442 55.1 22.6442C55 22.6442 55 22.6442 55 22.6442C54.1 22.2442 52.4 21.0442 53.2 18.5442C53.2 18.5442 53.6 18.7442 54.1 19.2442C54.3 20.1442 54.9 20.7442 55.4 21.0442C55.4 21.1442 55.5 21.3442 55.5 21.4442C55.6 21.3442 55.7 21.2442 55.9 21.2442C56.5 21.3442 57.3 21.2442 58.1 20.8442C58.8 20.8442 59.2 20.9442 59.2 20.9442C58 23.2442 56 22.9442 55.1 22.6442Z" fill="white"/>
<path d="M54.3 24.5441C53.3 24.2441 51.3 23.2441 51.7 20.4441C51.7 20.4441 52.3 20.6441 53 21.1441C53.4 22.0441 54.1 22.6441 54.7 22.9441C54.8 23.0441 54.8 23.2441 54.9 23.3441C55 23.2441 55.2 23.2441 55.3 23.1441C55.9 23.3441 56.9 23.3441 57.7 22.9441C58.5 23.0441 59.1 23.2441 59.1 23.2441C57.4 25.5441 55.2 24.9441 54.3 24.5441Z" fill="white"/>
<path d="M43.5999 38.1441C43.6999 38.1441 43.6999 38.1441 43.5999 38.1441C43.8999 37.8441 44.2 37.7441 44.4 37.5441C44.5 37.5441 44.4999 37.4441 44.4999 37.4441C44.6999 37.2441 44.8999 37.1441 45.0999 36.9441C45.1999 36.9441 45.1999 36.8441 45.2999 36.8441C45.4999 36.6441 45.6999 36.5441 45.7999 36.3441C45.8999 36.2441 45.8999 36.2441 45.9999 36.1441C46.1999 36.0441 46.2999 35.8441 46.4999 35.7441C46.5999 35.6441 46.5999 35.6441 46.6999 35.5441C46.8999 35.4441 46.9999 35.2441 47.0999 35.1441C47.1999 35.0441 47.1999 35.0441 47.2999 34.9441C47.3999 34.8441 47.5999 34.6441 47.6999 34.5441C47.7999 34.4441 47.7999 34.4441 47.7999 34.3441C47.8999 34.1441 48.0999 34.0441 48.1999 33.9441L48.2999 33.8441C48.3999 33.6441 48.5999 33.5441 48.6999 33.3441L48.7999 33.2441C48.8999 33.0441 49.0999 32.9441 49.1999 32.7441C49.1999 32.7441 49.1999 32.7441 49.1999 32.6441C49.5999 32.0441 50 31.5441 50.4 31.0441C50.4 31.0441 50.3999 30.9441 50.4999 30.9441C50.5999 30.8441 50.6999 30.6441 50.7999 30.5441C50.7999 30.4441 50.9 30.4441 50.9 30.4441C51 30.3441 50.9999 30.2441 51.0999 30.1441C51.0999 30.0441 51.1999 30.0441 51.1999 29.9441C51.2999 29.8441 51.3 29.7441 51.4 29.6441C51.4 29.5441 51.4999 29.5441 51.4999 29.4441C51.5999 29.3441 51.5999 29.2441 51.5999 29.1441C51.5999 29.0441 51.6999 29.0441 51.6999 28.9441C51.6999 28.8441 51.7999 28.7441 51.7999 28.6441C51.7999 28.5441 51.9 28.5441 51.9 28.4441C51.9 28.3441 51.9999 28.2441 51.9999 28.2441C51.9999 28.1441 51.9999 28.1441 52.0999 28.0441C52.0999 27.9441 52.1999 27.9441 52.1999 27.8441C52.1999 27.8441 52.1999 27.7441 52.2999 27.7441C52.2999 27.6441 52.4 27.6441 52.4 27.5441C52.4 27.5441 52.3999 27.4441 52.4999 27.4441C52.4999 27.3441 52.4999 27.3441 52.5999 27.2441V27.1441C52.5999 27.0441 52.5999 27.0441 52.6999 26.9441V26.8441C52.6999 26.7441 52.7999 26.6441 52.7999 26.6441C51.5999 26.1441 50 24.9441 50.4 22.2441C50.4 22.2441 50.9999 22.4441 51.6999 22.9441C52.0999 23.8441 52.7999 24.3441 53.4999 24.6441C53.6999 24.9441 53.8999 25.2441 53.9999 25.6441C54.2999 25.4441 54.6999 25.2441 54.9999 25.2441C55.6999 25.4441 56.6 25.5441 57.4 25.1441C58.3 25.2441 58.9 25.5441 58.9 25.5441C57.1999 27.9441 55.1 27.5441 53.9 27.0441C53.7 27.4441 53.6 27.7441 53.4 28.1441C53.4 28.2441 53.2999 28.2441 53.2999 28.3441C53.0999 28.6441 52.9999 29.0441 52.7999 29.3441C52.7999 29.4441 52.6999 29.4441 52.6999 29.5441C52.4999 29.8441 52.2999 30.1441 52.1999 30.4441L52.0999 30.5441C51.8999 30.8441 51.6999 31.1441 51.4999 31.4441C51.2999 31.7441 51.1 32.0441 50.9 32.3441L50.7999 32.4441C50.5999 32.7441 50.3999 32.9441 50.1999 33.2441C50.1999 33.3441 50.0999 33.3441 50.0999 33.4441C49.8999 33.7441 49.6999 33.9441 49.4999 34.2441L49.4 34.3441C49.2 34.5441 48.9999 34.8441 48.7999 35.0441C48.7999 35.0441 48.7999 35.0441 48.6999 35.1441C48.4999 35.3441 48.2999 35.6441 47.9999 35.8441L47.9 35.9441C47.7 36.1441 47.4999 36.3441 47.2999 36.5441L47.1999 36.6441C46.9999 36.8441 46.7999 37.0441 46.4999 37.2441L46.4 37.3441C46.2 37.5441 45.9999 37.7441 45.7999 37.9441L45.6999 38.0441C45.4999 38.2441 45.2999 38.4441 44.9999 38.5441C44.8999 38.5441 44.9 38.6441 44.9 38.6441C44.7 38.8441 44.4999 38.9441 44.1999 39.1441L44.0999 39.2441C43.8999 39.4441 43.5999 39.5441 43.3999 39.7441C43.3999 39.7441 43.3999 39.7441 43.2999 39.8441C43.0999 39.9441 42.8999 40.1441 42.6999 40.2441L42.5999 40.3441C40.0999 41.8441 40.2999 40.5441 40.2999 40.5441C41.2999 39.8441 42.4999 38.9441 43.5999 38.1441Z" fill="white"/>
<path d="M39.9 41.4442C40.1 41.5442 40.4 41.6442 40.7 41.6442C41.2 41.6442 41.8 41.3442 42.6 40.8442C42.6 40.8442 42.7 40.8442 42.7 40.7442C42.9 40.6442 43.1 40.4442 43.4 40.3442L43.5 40.2442C43.7 40.0442 44 39.9442 44.2 39.7442L44.3 39.6442C44.5 39.4442 44.7 39.3442 45 39.1442L45.1 39.0442C45.3 38.8442 45.6 38.6442 45.8 38.4442L45.9 38.3442C46.1 38.1442 46.3 37.9442 46.6 37.7442L46.7 37.6442C46.9 37.4442 47.2 37.2442 47.4 37.0442L47.5 36.9442C47.7 36.7442 47.9 36.5442 48.2 36.2442L48.3 36.1442C48.5 35.9442 48.7 35.6442 49 35.4442L49.1 35.3442C49.3 35.1442 49.5 34.8442 49.7 34.6442L49.8 34.5442C50 34.2442 50.2 34.0442 50.4 33.7442L50.5 33.5442C50.7 33.2442 50.9 33.0442 51.1 32.7442L51.2 32.5442C51.4 32.2442 51.6 31.9442 51.8 31.6442C52 31.3442 52.2 31.0442 52.4 30.7442L52.5 30.6442C52.7 30.3442 52.9 30.0442 53 29.6442C53 29.5442 53.1 29.5442 53.1 29.4442C53.3 29.1442 53.4 28.7442 53.6 28.4442L53.7 28.2442C53.8 28.0442 53.9 27.7442 54 27.5442C55.2 27.9442 57.5 28.1442 59.2 25.6442L59.5 25.1442L58.9 24.9442C58.9 24.9442 58.6 24.8442 58.1 24.7442C58.5 24.4442 58.9 24.0442 59.3 23.5442L59.6 23.0442L59 22.8442C59 22.8442 58.7 22.7442 58.3 22.6442C58.7 22.3442 59.2 21.8442 59.5 21.1442L59.8 20.5442L59.2 20.4442C59.2 20.4442 59 20.4442 58.8 20.3442C59.1 20.0442 59.3 19.5442 59.5 19.0442L59.7 18.4442L59.1 18.3442C59.1 18.3442 58.9 18.3442 58.7 18.3442C58.8 18.1442 58.9 17.8442 59 17.5442L59.2 16.9442H58.6C58.6 16.9442 58.5 16.9442 58.3 16.9442C58.4 16.2442 58.3 15.7442 58.2 15.6442V15.0442L57.6 15.2442C57.1 15.4442 56.7 15.7442 56.4 16.1442C56.2 15.9442 56.1 15.8442 56.1 15.8442L55.6 15.4442L55.3 15.9442C55.2 16.2442 55.1 16.4442 55 16.7442C54.8 16.5442 54.7 16.4442 54.7 16.4442L54.2 16.0442L54 16.8442C53.8 17.3442 53.7 17.8442 53.7 18.3442C53.5 18.2442 53.4 18.1442 53.4 18.1442L52.9 17.8442L52.7 18.4442C52.5 19.1442 52.4 19.8442 52.5 20.3442C52.1 20.1442 51.8 20.0442 51.8 20.0442L51.2 19.8442L51.1 20.4442C51 21.0442 51 21.6442 51.2 22.1442C50.8 21.9442 50.5 21.8442 50.5 21.8442L49.9 21.6442L49.8 22.2442C49.4 25.0442 50.9 26.3442 52.1 26.9442V27.0442L51.8 27.7442C51.8 27.8442 51.7 27.8442 51.7 27.9442L51.4 28.4442C51.4 28.5442 51.3 28.6442 51.3 28.6442L51.2 28.8442C51.2 28.9442 51.1 29.0442 51.1 29.1442L51 29.2442C50.9 29.3442 50.9 29.4442 50.8 29.5442L50.7 29.7442C50.6 29.8442 50.6 29.9442 50.5 30.0442L50.4 30.1442C50.3 30.2442 50.2 30.4442 50.1 30.5442L50 30.6442C49.6 31.1442 49.2 31.7442 48.8 32.2442C48.7 32.4442 48.5 32.5442 48.4 32.7442L48.3 32.8442C48.2 32.9442 48 33.1442 47.9 33.3442L47.8 33.4442C47.7 33.5442 47.5 33.7442 47.4 33.8442L47.3 34.0442C47.2 34.1442 47 34.3442 46.9 34.4442L46.7 34.6442C46.6 34.7442 46.4 34.9442 46.3 35.0442L46.2 35.1442C46 35.3442 45.9 35.4442 45.7 35.5442L45.5 35.7442C45.3 35.9442 45.2 36.0442 45 36.2442L44.8 36.3442C44.6 36.5442 44.4 36.6442 44.2 36.8442L44.1 36.9442C43.9 37.1442 43.7 37.3442 43.4 37.4442L43.3 37.5442C42.2 38.4442 41 39.2442 39.7 39.9442L39.5 40.1442L39.9 40.3442L39.5 40.2442C39.5 40.7442 39.6 41.1442 39.9 41.4442ZM58.6 17.4442C58.2 18.9442 57.1 19.2442 56.3 19.2442V19.3442C56.3 19.3442 56.3 19.3442 56.2 19.2442H56.1V19.1442C55.5 18.6442 55 17.6442 55.7 16.2442C55.7 16.2442 56 16.5442 56.4 16.9442C56.6 16.4442 57 16.0442 57.8 15.6442C57.8 15.6442 58 16.4442 57.8 17.3442C58.3 17.4442 58.6 17.4442 58.6 17.4442ZM55.8 20.8442C55.7 20.8442 55.7 20.8442 55.8 20.8442C55.7 20.8442 55.7 20.8442 55.7 20.8442C54.9 20.3442 53.7 19.1442 54.5 17.0442C54.5 17.0442 54.9 17.3442 55.4 17.8442C55.5 18.5442 55.9 19.1442 56.3 19.4442C56.8 19.4442 57.5 19.3442 58 18.8442C58.7 18.7442 59.2 18.8442 59.2 18.8442C58.4 20.9442 56.7 21.0442 55.8 20.8442ZM55.1 22.6442C55 22.6442 55 22.6442 55.1 22.6442C55 22.6442 55 22.6442 55 22.6442C54.1 22.2442 52.4 21.0442 53.2 18.5442C53.2 18.5442 53.6 18.7442 54.1 19.2442C54.3 20.1442 54.9 20.7442 55.4 21.0442C55.4 21.1442 55.5 21.3442 55.5 21.4442C55.6 21.3442 55.7 21.2442 55.9 21.2442C56.5 21.3442 57.3 21.2442 58.1 20.8442C58.8 20.8442 59.2 20.9442 59.2 20.9442C58 23.2442 56 22.9442 55.1 22.6442ZM54.3 24.5442C53.3 24.2442 51.3 23.2442 51.7 20.4442C51.7 20.4442 52.3 20.6442 53 21.1442C53.4 22.0442 54.1 22.6442 54.7 22.9442C54.8 23.0442 54.8 23.2442 54.9 23.3442C55 23.2442 55.2 23.2442 55.3 23.1442C55.9 23.3442 56.9 23.3442 57.7 22.9442C58.5 23.0442 59.1 23.2442 59.1 23.2442C57.4 25.5442 55.2 24.9442 54.3 24.5442ZM40 40.5442C41.3 39.7442 42.5 38.9442 43.6 38.1442L43.7 38.0442C43.9 37.8442 44.2 37.6442 44.4 37.5442C44.5 37.5442 44.5 37.4442 44.5 37.4442C44.7 37.2442 44.9 37.1442 45.1 36.9442C45.2 36.9442 45.2 36.8442 45.3 36.8442C45.5 36.6442 45.7 36.5442 45.8 36.3442C45.9 36.2442 45.9 36.2442 46 36.1442C46.2 36.0442 46.3 35.8442 46.5 35.7442C46.6 35.6442 46.6 35.6442 46.7 35.5442C46.9 35.4442 47 35.2442 47.1 35.1442C47.2 35.0442 47.2 35.0442 47.3 34.9442C47.4 34.8442 47.6 34.6442 47.7 34.5442C47.7 34.4442 47.8 34.4442 47.8 34.3442C47.9 34.2442 48.1 34.0442 48.2 33.9442L48.3 33.8442C48.4 33.6442 48.6 33.5442 48.7 33.3442L48.8 33.2442C48.9 33.0442 49.1 32.9442 49.2 32.7442C49.2 32.7442 49.2 32.7442 49.2 32.6442C49.6 32.0442 50 31.5442 50.4 31.0442C50.4 31.0442 50.4 30.9442 50.5 30.9442C50.6 30.8442 50.7 30.6442 50.8 30.5442C50.8 30.4442 50.9 30.4442 50.9 30.4442C51 30.3442 51 30.2442 51.1 30.1442C51.1 30.0442 51.2 30.0442 51.2 29.9442C51.3 29.8442 51.3 29.7442 51.4 29.6442C51.4 29.5442 51.5 29.5442 51.5 29.4442C51.6 29.3442 51.6 29.2442 51.6 29.1442C51.6 29.0442 51.7 29.0442 51.7 28.9442C51.7 28.8442 51.8 28.7442 51.8 28.6442C51.8 28.5442 51.9 28.5442 51.9 28.4442C51.9 28.3442 52 28.2442 52 28.2442C52 28.1442 52 28.1442 52.1 28.0442C52.1 27.9442 52.2 27.9442 52.2 27.8442C52.2 27.8442 52.2 27.7442 52.3 27.7442C52.3 27.6442 52.4 27.6442 52.4 27.5442C52.4 27.5442 52.4 27.4442 52.5 27.4442C52.5 27.3442 52.5 27.3442 52.6 27.2442V27.1442C52.6 27.0442 52.6 27.0442 52.7 26.9442V26.8442C52.7 26.7442 52.8 26.6442 52.8 26.6442C51.6 26.1442 50 24.9442 50.4 22.2442C50.4 22.2442 51 22.4442 51.7 22.9442C52.1 23.8442 52.8 24.3442 53.5 24.6442C53.7 24.9442 53.9 25.2442 54 25.6442C54.3 25.4442 54.7 25.2442 55 25.2442C55.7 25.4442 56.6 25.5442 57.4 25.1442C58.3 25.2442 58.9 25.5442 58.9 25.5442C57.2 27.9442 55.1 27.5442 53.9 27.0442C53.7 27.4442 53.6 27.7442 53.4 28.1442C53.4 28.2442 53.3 28.2442 53.3 28.3442C53.1 28.6442 53 29.0442 52.8 29.3442C52.8 29.4442 52.7 29.4442 52.7 29.5442C52.5 29.8442 52.3 30.1442 52.2 30.4442L52.1 30.5442C51.9 30.8442 51.7 31.1442 51.5 31.4442C51.3 31.7442 51.1 32.0442 50.9 32.3442L50.8 32.4442C50.6 32.7442 50.4 32.9442 50.2 33.2442C50.2 33.3442 50.1 33.3442 50.1 33.4442C49.9 33.7442 49.7 33.9442 49.5 34.2442L49.4 34.3442C49.2 34.5442 49 34.8442 48.8 35.0442C48.8 35.0442 48.8 35.0442 48.7 35.1442C48.5 35.3442 48.3 35.6442 48 35.8442L47.9 35.9442C47.7 36.1442 47.5 36.3442 47.3 36.5442L47.2 36.6442C47 36.8442 46.8 37.0442 46.5 37.2442L46.4 37.3442C46.2 37.5442 46 37.7442 45.8 37.9442L45.7 38.0442C45.5 38.2442 45.3 38.4442 45 38.5442C44.9 38.5442 44.9 38.6442 44.9 38.6442C44.7 38.8442 44.5 38.9442 44.2 39.1442L44.1 39.2442C43.9 39.4442 43.6 39.5442 43.4 39.7442C43.4 39.7442 43.4 39.7442 43.3 39.8442C43.1 39.9442 42.9 40.1442 42.7 40.2442L42.6 40.3442C39.8 41.8442 40 40.5442 40 40.5442Z" fill="#6D4615"/>
<path d="M62.1 30.544C61.2 31.444 60.3 31.344 59.8 31.044C59.8 31.044 59.8 31.044 59.8 30.944C59.8 30.944 59.8 30.944 59.7 30.944C59.5 30.344 59.4 29.444 60.4 28.644C60.4 28.644 60.5 28.944 60.6 29.444C60.9 29.144 61.4 28.944 62.1 29.044C62.1 29.044 61.9 29.744 61.4 30.244C61.8 30.344 62.1 30.544 62.1 30.544Z" fill="white"/>
<path d="M58.7001 31.944C58.6001 31.944 58.6001 31.944 58.7001 31.944C58.2001 31.144 57.8001 29.844 59.2001 28.644C59.2001 28.644 59.4001 29.044 59.5001 29.544C59.3001 30.144 59.4001 30.644 59.5001 31.044C59.9001 31.244 60.4001 31.444 61.0001 31.244C61.5001 31.444 61.9001 31.644 61.9001 31.644C60.6001 33.044 59.3001 32.444 58.7001 31.944Z" fill="white"/>
<path d="M57.5001 33.0441C57.5001 32.9441 57.5001 32.9441 57.5001 33.0441C56.9001 32.3441 56.1001 30.8441 57.6001 29.2441C57.6001 29.2441 57.8001 29.5441 58.0001 30.0441C57.8001 30.7441 58.1001 31.4441 58.3001 31.8441C58.3001 31.9441 58.3001 32.0441 58.2001 32.1441C58.3001 32.1441 58.4001 32.1441 58.5001 32.1441C58.9001 32.4441 59.5001 32.7441 60.3001 32.6441C60.8001 32.9441 61.1001 33.1441 61.1001 33.1441C59.5001 34.5441 58.1001 33.5441 57.5001 33.0441Z" fill="white"/>
<path d="M56.3 34.0442C55.7 33.4442 54.6 31.9442 55.9 30.0442C55.9 30.0442 56.2 30.4442 56.6 31.0442C56.5 31.8442 56.9 32.5442 57.2 32.9442C57.2 33.0442 57.2 33.2442 57.2 33.3442C57.3 33.3442 57.5 33.3442 57.6 33.3442C58 33.6442 58.6 34.1442 59.5 34.1442C60 34.5442 60.4 34.9442 60.4 34.9442C58.1 36.0442 56.8 34.7442 56.3 34.0442Z" fill="white"/>
<path d="M43.3999 40.1441H43.4999C43.6999 40.1441 43.9999 40.0441 44.1999 40.0441C44.2999 40.0441 44.2999 40.0441 44.3999 40.0441C44.5999 40.0441 44.7999 39.9441 44.9999 39.9441C45.0999 39.9441 45.0999 39.9441 45.1999 39.9441C45.3999 39.9441 45.5999 39.8441 45.7999 39.8441L45.9999 39.7441C46.1999 39.7441 46.2999 39.6441 46.4999 39.5441C46.5999 39.5441 46.5999 39.5441 46.6999 39.4441C46.8999 39.3441 46.9999 39.3441 47.1999 39.2441C47.2999 39.2441 47.2999 39.2441 47.3999 39.1441C47.5999 39.0441 47.6999 39.0441 47.8999 38.9441C47.9999 38.9441 47.9999 38.9441 48.0999 38.8441C48.2999 38.7441 48.3999 38.7441 48.5999 38.6441C48.6999 38.6441 48.6999 38.6441 48.6999 38.5441C48.8999 38.4441 48.9999 38.4441 49.1999 38.3441H49.2999C49.4999 38.2441 49.5999 38.2441 49.7999 38.1441C50.2999 37.8441 50.7999 37.6441 51.2999 37.3441C51.2999 37.3441 51.3999 37.3441 51.3999 37.2441C51.4999 37.1441 51.5999 37.1441 51.6999 37.0441L51.7999 36.9441C51.8999 36.8441 51.9999 36.8441 52.0999 36.7441L52.1999 36.6441C52.2999 36.5441 52.3999 36.5441 52.3999 36.4441L52.4999 36.3441C52.5999 36.3441 52.5999 36.2441 52.6999 36.2441L52.7999 36.1441C52.8999 36.1441 52.8999 36.0441 52.9999 36.0441L53.0999 35.9441C53.1999 35.9441 53.1999 35.8441 53.2999 35.8441L53.3999 35.7441C53.4999 35.7441 53.4999 35.6441 53.5999 35.6441L53.6999 35.5441L53.7999 35.4441L53.8999 35.3441L53.9999 35.2441C53.9999 35.2441 54.0999 35.2441 54.0999 35.1441L54.1999 35.0441C54.1999 35.0441 54.1999 35.0441 54.2999 34.9441C54.3999 34.8441 54.3999 34.8441 54.3999 34.8441C53.6999 34.0441 52.9999 32.5441 54.1999 30.7441C54.1999 30.7441 54.5999 31.1441 54.8999 31.7441C54.8999 32.5441 55.1999 33.1441 55.5999 33.6441C55.5999 33.9441 55.5999 34.2441 55.5999 34.5441C55.8999 34.5441 56.1999 34.5441 56.4999 34.6441C56.8999 35.0441 57.4999 35.4441 58.2999 35.4441C58.8999 35.8441 59.1999 36.2441 59.1999 36.2441C57.0999 37.3441 55.6999 36.3441 54.9999 35.5441C54.6999 35.7441 54.4999 35.9441 54.1999 36.1441L54.0999 36.2441C53.8999 36.4441 53.5999 36.6441 53.3999 36.7441L53.2999 36.8441C53.0999 37.0441 52.7999 37.1441 52.5999 37.3441C52.5999 37.3441 52.4999 37.3441 52.4999 37.4441C52.2999 37.6441 51.9999 37.7441 51.7999 37.9441C51.4999 38.0441 51.2999 38.2441 50.9999 38.3441C50.9999 38.3441 50.8999 38.3441 50.8999 38.4441C50.6999 38.5441 50.3999 38.7441 50.1999 38.8441C50.1999 38.8441 50.0999 38.8441 50.0999 38.9441C49.8999 39.0441 49.5999 39.1441 49.3999 39.2441H49.2999C49.0999 39.3441 48.7999 39.4441 48.5999 39.5441C48.5999 39.5441 48.5999 39.5441 48.4999 39.5441C48.2999 39.6441 47.9999 39.7441 47.7999 39.8441C47.7999 39.8441 47.6999 39.8441 47.6999 39.9441C47.4999 40.0441 47.1999 40.1441 46.9999 40.1441H46.8999C46.6999 40.2441 46.3999 40.2441 46.1999 40.3441H46.0999C45.8999 40.4441 45.5999 40.4441 45.3999 40.5441H45.2999C45.0999 40.6441 44.7999 40.6441 44.5999 40.7441C44.4999 40.7441 44.4999 40.7441 44.3999 40.7441C44.1999 40.7441 43.8999 40.8441 43.6999 40.8441H43.5999C43.3999 40.8441 43.0999 40.9441 42.8999 40.9441C42.8999 40.9441 42.8999 40.9441 42.7999 40.9441C42.5999 40.9441 42.3999 41.0441 42.1999 41.0441H42.0999C39.6999 41.2441 40.2999 40.3441 40.2999 40.3441C41.0999 40.4441 42.2999 40.3441 43.3999 40.1441Z" fill="white"/>
<path d="M39.5 41.1442C39.6 41.3442 39.8 41.4442 40 41.5442C40.4 41.6442 40.9 41.7442 41.7 41.6442H41.8C42 41.6442 42.2 41.6442 42.4 41.5442H42.5C42.7 41.5442 43 41.4442 43.2 41.4442H43.3C43.5 41.4442 43.8 41.3442 44 41.3442H44.2C44.4 41.3442 44.7 41.2442 44.9 41.1442H45C45.2 41.0442 45.5 41.0442 45.7 40.9442H45.8C46.1 40.8442 46.3 40.8442 46.5 40.7442H46.6C46.8 40.6442 47.1 40.5442 47.3 40.5442L47.4 40.4442C47.7 40.3442 47.9 40.2442 48.2 40.1442H48.3C48.6 40.0442 48.8 39.9442 49 39.8442H49.1C49.4 39.7442 49.6 39.6442 49.9 39.5442L50 39.4442C50.2 39.3442 50.5 39.2442 50.7 39.0442L50.8 38.9442C51.1 38.8442 51.3 38.6442 51.6 38.5442C51.9 38.3442 52.1 38.2442 52.4 38.0442L52.5 37.9442C52.8 37.7442 53 37.6442 53.3 37.4442L53.4 37.3442C53.6 37.1442 53.9 36.9442 54.1 36.8442L54.2 36.7442C54.4 36.6442 54.5 36.4442 54.7 36.3442C55.5 37.0442 57 38.0442 59.2 36.8442L59.6 36.6442L59.3 36.2442C59.3 36.2442 59.1 36.0442 58.8 35.8442C59.2 35.7442 59.7 35.6442 60.1 35.3442L60.5 35.1442L60.2 34.7442C60.2 34.7442 60 34.5442 59.8 34.3442C60.2 34.2442 60.7 34.0442 61.2 33.6442L61.6 33.3442L61.2 33.0442C61.2 33.0442 61.1 32.9442 60.9 32.8442C61.2 32.7442 61.6 32.4442 61.9 32.1442L62.3 31.8442L61.9 31.5442C61.9 31.5442 61.8 31.4442 61.6 31.3442C61.8 31.2442 62 31.0442 62.1 30.8442L62.4 30.4442L62 30.2442C62 30.2442 61.9 30.2442 61.8 30.1442C62.1 29.6442 62.2 29.2442 62.2 29.2442L62.3 28.7442H61.8C61.3 28.7442 60.9 28.7442 60.6 28.9442C60.5 28.7442 60.5 28.6442 60.5 28.6442L60.6 28.0442L60.2 28.3442C60 28.4442 59.8 28.6442 59.7 28.8442C59.6 28.6442 59.6 28.5442 59.6 28.5442L59.3 28.0442L58.9 28.3442C58.5 28.6442 58.3 28.9442 58.1 29.3442C58 29.1442 58 29.0442 58 29.0442L57.7 28.6442L57.4 29.0442C57 29.5442 56.7 29.9442 56.6 30.4442C56.4 30.1442 56.2 29.9442 56.2 29.9442L55.9 29.5442L55.6 29.9442C55.3 30.3442 55.1 30.8442 55 31.2442C54.8 30.9442 54.6 30.7442 54.6 30.7442L54.3 30.3442L54 30.7442C52.7 32.6442 53.3 34.1442 54 35.0442C54 35.0442 54 35.0442 53.9 35.0442L53.4 35.4442L53.3 35.5442L52.9 35.8442C52.8 35.8442 52.8 35.9442 52.7 35.9442L52.6 36.0442C52.5 36.0442 52.5 36.1442 52.4 36.1442L52.3 36.2442C52.2 36.3442 52.1 36.3442 52.1 36.4442L52 36.5442C51.9 36.6442 51.8 36.6442 51.7 36.7442L51.6 36.8442C51.5 36.9442 51.4 36.9442 51.3 37.0442H51C50.5 37.3442 50 37.5442 49.5 37.7442C49.3 37.8442 49.2 37.9442 49 37.9442H48.9C48.8 38.0442 48.6 38.0442 48.4 38.1442L48.3 38.2442C48.2 38.3442 48 38.3442 47.8 38.4442L47.6 38.5442C47.4 38.6442 47.3 38.6442 47.1 38.7442L47 38.8442C46.8 38.9442 46.7 38.9442 46.5 39.0442H46.4H46.3C46.1 39.1442 46 39.1442 45.8 39.1442L45.6 39.2442C45.4 39.2442 45.2 39.3442 45.1 39.3442H44.9C44.7 39.3442 44.5 39.4442 44.3 39.4442H44.1C43.9 39.4442 43.6 39.5442 43.4 39.5442H43.3C42.2 39.7442 41 39.9442 39.8 39.9442L39.5 40.1442C39.4 40.5442 39.3 40.8442 39.5 41.1442ZM62.1 30.5442C61.2 31.4442 60.3 31.3442 59.8 31.0442C59.8 31.0442 59.8 31.0442 59.8 30.9442C59.8 30.9442 59.8 30.9442 59.7 30.9442C59.5 30.3442 59.4 29.4442 60.4 28.6442C60.4 28.6442 60.5 28.9442 60.6 29.4442C60.9 29.1442 61.4 28.9442 62.1 29.0442C62.1 29.0442 61.9 29.7442 61.4 30.2442C61.8 30.3442 62.1 30.5442 62.1 30.5442ZM58.7 31.9442C58.6 31.9442 58.6 31.9442 58.7 31.9442C58.2 31.1442 57.8 29.8442 59.2 28.6442C59.2 28.6442 59.4 29.0442 59.5 29.5442C59.3 30.1442 59.4 30.6442 59.5 31.0442C59.9 31.2442 60.4 31.4442 61 31.2442C61.5 31.4442 61.9 31.6442 61.9 31.6442C60.6 33.0442 59.3 32.4442 58.7 31.9442ZM57.5 33.0442C57.5 32.9442 57.5 32.9442 57.5 33.0442C56.9 32.3442 56.1 30.8442 57.6 29.2442C57.6 29.2442 57.8 29.5442 58 30.0442C57.8 30.7442 58.1 31.4442 58.3 31.8442C58.3 31.9442 58.3 32.0442 58.2 32.1442C58.3 32.1442 58.4 32.1442 58.5 32.1442C58.9 32.4442 59.5 32.7442 60.3 32.6442C60.8 32.9442 61.1 33.1442 61.1 33.1442C59.5 34.5442 58.1 33.5442 57.5 33.0442ZM56.3 34.0442C55.7 33.4442 54.6 31.9442 55.9 30.0442C55.9 30.0442 56.2 30.4442 56.6 31.0442C56.5 31.8442 56.9 32.5442 57.2 32.9442C57.2 33.0442 57.2 33.2442 57.2 33.3442C57.3 33.3442 57.5 33.3442 57.6 33.3442C58 33.6442 58.6 34.1442 59.5 34.1442C60 34.5442 60.4 34.9442 60.4 34.9442C58.1 36.0442 56.8 34.7442 56.3 34.0442ZM39.9 40.5442C41.2 40.4442 42.4 40.3442 43.5 40.1442H43.6C43.8 40.1442 44.1 40.0442 44.3 40.0442C44.4 40.0442 44.4 40.0442 44.5 40.0442C44.7 40.0442 44.9 39.9442 45.1 39.9442C45.2 39.9442 45.2 39.9442 45.3 39.9442C45.5 39.9442 45.7 39.8442 45.9 39.8442L46.1 39.7442C46.3 39.7442 46.4 39.6442 46.6 39.5442C46.7 39.5442 46.7 39.5442 46.8 39.4442C47 39.3442 47.1 39.3442 47.3 39.2442C47.4 39.2442 47.4 39.2442 47.5 39.1442C47.7 39.0442 47.8 39.0442 48 38.9442C48.1 38.9442 48.1 38.9442 48.2 38.8442C48.4 38.7442 48.5 38.7442 48.7 38.6442C48.7 38.6442 48.8 38.6442 48.8 38.5442C49 38.4442 49.1 38.4442 49.3 38.3442H49.4C49.6 38.2442 49.7 38.2442 49.9 38.1442C50.4 37.8442 50.9 37.6442 51.4 37.3442C51.4 37.3442 51.5 37.3442 51.5 37.2442C51.6 37.1442 51.7 37.1442 51.8 37.0442C51.8 37.0442 51.9 37.0442 51.9 36.9442C52 36.8442 52.1 36.8442 52.2 36.7442L52.3 36.6442C52.4 36.5442 52.5 36.5442 52.5 36.4442L52.6 36.3442C52.7 36.3442 52.7 36.2442 52.8 36.2442L52.9 36.1442C53 36.1442 53 36.0442 53.1 36.0442L53.2 35.9442C53.3 35.9442 53.3 35.8442 53.4 35.8442L53.5 35.7442C53.6 35.7442 53.6 35.6442 53.7 35.6442L53.8 35.5442L53.9 35.4442L54 35.3442L54.1 35.2442C54.1 35.2442 54.2 35.2442 54.2 35.1442L54.3 35.0442C54.3 35.0442 54.3 35.0442 54.4 34.9442C54.5 34.8442 54.5 34.8442 54.5 34.8442C53.8 34.0442 53.1 32.5442 54.3 30.7442C54.3 30.7442 54.7 31.1442 55 31.7442C55 32.5442 55.3 33.1442 55.7 33.6442C55.7 33.9442 55.7 34.2442 55.7 34.5442C56 34.5442 56.3 34.5442 56.6 34.6442C57 35.0442 57.6 35.4442 58.4 35.4442C59 35.8442 59.3 36.2442 59.3 36.2442C57.2 37.3442 55.8 36.3442 55.1 35.5442C54.8 35.7442 54.6 35.9442 54.3 36.1442L54.2 36.2442C54 36.4442 53.7 36.6442 53.5 36.7442L53.4 36.8442C53.2 37.0442 52.9 37.1442 52.7 37.3442C52.7 37.3442 52.6 37.3442 52.6 37.4442C52.4 37.6442 52.1 37.7442 51.9 37.9442C51.6 38.0442 51.4 38.2442 51.1 38.3442C51.1 38.3442 51 38.3442 51 38.4442C50.8 38.5442 50.5 38.7442 50.3 38.8442C50.3 38.8442 50.2 38.8442 50.2 38.9442C50 39.0442 49.7 39.1442 49.5 39.2442H49.4C49.2 39.3442 48.9 39.4442 48.7 39.5442C48.7 39.5442 48.7 39.5442 48.6 39.5442C48.4 39.6442 48.1 39.7442 47.9 39.8442C47.9 39.8442 47.8 39.8442 47.8 39.9442C47.6 40.0442 47.3 40.1442 47.1 40.1442H47C46.8 40.2442 46.5 40.2442 46.3 40.3442H46.2C46 40.4442 45.7 40.4442 45.5 40.5442H45.4C45.2 40.6442 44.9 40.6442 44.7 40.7442C44.6 40.7442 44.6 40.7442 44.5 40.7442C44.3 40.7442 44.1 40.8442 43.8 40.8442H43.7C43.5 40.8442 43.2 40.9442 43 40.9442C43 40.9442 43 40.9442 42.9 40.9442C42.7 40.9442 42.5 41.0442 42.3 41.0442H42.2C39.2 41.4442 39.9 40.5442 39.9 40.5442Z" fill="#6D4615"/>
<path d="M43.5 39.5441C43.5 39.5441 42.2 40.5441 41.6 40.6441L39.8 40.5441C39.8 40.5441 39.6 40.7441 41.7 39.4441L43.5 39.5441Z" fill="white"/>
<path d="M27.1 15.6442C27.1 15.6442 26.5999 13.1442 28.2999 12.5442C28.2999 12.5442 30.2 13.7442 30.1 15.3442C30.1 15.3442 31.7 13.3442 34.9 14.2442C34.9 14.2442 34.1999 16.4442 31.2999 16.6442C31.2999 16.6442 34.2 17.6442 34.7 19.9442C34.7 19.9442 30.8 19.9442 29.4 17.5442C29.4 17.5442 28.8 20.9442 26.1 21.3442C26.1 21.3442 25.3 18.9442 27 17.6442C27 17.6442 24.8 19.1442 22.7 17.5442C22.7 17.3442 23.4 15.3442 27.1 15.6442Z" fill="white"/>
<path d="M25.8 21.8442L25.7 21.4442C25.7 21.3442 25.2 19.9442 25.7 18.6442C25.4 18.6442 25.2 18.7442 24.9 18.7442C24 18.7442 23.2 18.4442 22.5 17.9442C22.4 17.8442 22.2 17.6442 22.4 17.2442C22.7 16.5442 23.8 15.2442 26.5 15.2442H26.6C26.5 14.1442 26.8 12.6442 28.2 12.1442L28.4 12.0442L28.6 12.1442C28.7 12.1442 30 13.1442 30.5 14.4442C31.1 14.0442 32 13.5442 33.4 13.5442C34 13.5442 34.6 13.6442 35.2 13.8442L35.7 13.9442L35.6 14.4442C35.6 14.5442 35 16.1442 33.1 16.8442C34 17.4442 35.2 18.3442 35.5 19.8442L35.6 20.4442H35C34.8 20.4442 31.7 20.3442 29.9 18.6442C29.5 19.7442 28.5 21.5442 26.4 21.8442H25.8ZM26.8 17.1442L27.4 17.9442C26.3 18.7442 26.4 20.0442 26.6 20.6442C28.6 20.0442 29.1 17.3442 29.1 17.3442L29.3 16.3442L29 16.2442H29.3V16.0442L29.4 16.2442H29.7V15.3442C29.7 14.3442 28.7 13.4442 28.3 13.1442C27.2 13.7442 27.6 15.6442 27.6 15.6442L27.7 16.2442H27.1C26.9 16.2442 26.7 16.2442 26.5 16.2442C24.5 16.2442 23.7 17.0442 23.5 17.4442C24 17.7442 24.5 17.8442 25 17.8442C26 17.7442 26.8 17.1442 26.8 17.1442ZM29.4 16.4442L29.9 17.2442C30.8 18.7442 33 19.2442 34.1 19.3442C33.3 17.8442 31.2 17.0442 31.2 17.0442L29.7 16.5442L29.6 16.6442V16.4442H29.4ZM33.3 14.4442C31.4 14.4442 30.5 15.5442 30.5 15.5442L30 16.2442L31.3 16.1442C33 16.0442 33.8 15.1442 34.2 14.5442C33.9 14.4442 33.6 14.4442 33.3 14.4442Z" fill="#6D4615"/>
<path d="M27.1 15.6442C27.1 15.6442 26.5999 13.1442 28.2999 12.5442C28.2999 12.5442 30.2 13.7442 30.1 15.3442C30.1 15.3442 31.7 13.3442 34.9 14.2442C34.9 14.2442 34.1999 16.4442 31.2999 16.6442C31.2999 16.6442 34.2 17.6442 34.7 19.9442C34.7 19.9442 30.8 19.9442 29.4 17.5442C29.4 17.5442 28.8 20.9442 26.1 21.3442C26.1 21.3442 25.3 18.9442 27 17.6442C27 17.6442 24.8 19.1442 22.7 17.5442C22.7 17.3442 23.4 15.3442 27.1 15.6442Z" fill="white"/>
</svg>
