<svg width="120" height="36" viewBox="0 0 120 36" fill="none" xmlns="http://www.w3.org/2000/svg">
<g clip-path="url(#clip0_52_2661)">
<path d="M21.2122 13.4545C21.2122 15.1515 20.3031 18.1818 18.9697 20.7878C18.0607 19.5757 17.4546 17.8787 17.4546 15.8787C17.4546 12.9696 18.6667 11.3939 19.8788 11.3939C20.7273 11.3333 21.2122 12.1212 21.2122 13.4545Z" fill="#E30613"/>
<path d="M21.4545 0C11.5152 0 3.45455 8.06061 3.45455 18C3.45455 20.303 3.87879 22.5455 4.66667 24.5455C2 25.0909 0 27.3939 0 30.2424C0 33.4545 2.60606 36 5.75758 36C8.06061 36 10.0606 34.6061 10.9697 32.6667C13.9394 34.7879 17.5152 36 21.3939 36C31.3333 36 39.3939 27.9394 39.3939 18C39.4545 8.06061 31.3939 0 21.4545 0ZM29.1515 10.6667C29.5152 10.2424 30.0606 9.93939 30.6667 9.93939C31.697 9.93939 32.6667 10.7879 32.6667 11.8788C32.6667 12.9091 31.7576 13.8788 30.6667 13.8788C30.0606 13.8788 29.5152 13.5758 29.1515 13.0909C28.8485 12.7273 28.7273 12.303 28.7273 11.8788C28.7273 11.3939 28.9091 10.9697 29.1515 10.6667ZM27.0909 26.6667C26.6667 26.6667 26.303 26.6061 26 26.4848C25.0303 26.1212 24.4242 25.1515 24.6061 23.5151C23.5758 24.1818 22.303 24.5455 20.8485 24.2424C19.697 25.8182 18.303 27.0909 16.6667 27.7576C15.7576 28.1212 14.8485 28.3636 13.8788 28.3636C10.303 28.3636 8.9697 25.6364 8.9697 22.6061C8.9697 19.697 10.2424 15.6364 12.6061 12.7273C12.6667 14.7879 12.8485 16.7273 13.1515 18.6061C12.6061 20.1212 12.2424 21.697 12.2424 22.9091C12.2424 24.3636 12.7273 25.697 14.0606 25.697C14.4242 25.697 14.8485 25.5758 15.2121 25.3939C16.0606 24.9697 16.9697 24.0606 17.7576 22.9091C17.7576 22.9091 14.4848 20.6667 14.7273 15.0303C14.8485 12.4848 16.2424 9.93939 16.6061 9.63636C16.7273 9.45454 16.9091 9.27273 17.0909 9.09091C17.9394 8.24242 19.0303 7.75758 20.3636 7.75758C22.5455 7.75758 24.7273 9.21212 24.7273 13.1515C24.7273 15.8788 23.8182 19.4545 22.1212 22.4242C24 22.5455 25.0909 21.2121 25.6364 20.3636L27.8788 14.7879H31.4545L28.7273 21.6364C27.697 24.1818 28.1212 24.4848 28.4848 24.4848C29.3939 24.4848 30.9091 22.9091 32.4848 20.1818C32.9697 20.2424 33.5758 20.6667 33.7576 21.0909C31.8788 24.1212 29.6364 26.6667 27.0909 26.6667Z" fill="#E30613"/>
<path d="M52.4848 23.8181V7.81812H47.5151V28.2424H59.0303V23.8181H52.4848Z" fill="#121E6F"/>
<path d="M67.5758 19.0908V28.2423H62.6061V19.0908H67.5758Z" fill="#121E6F"/>
<path d="M96.7273 13.6969C97.9394 14.909 98.5454 16.606 98.5454 18.7878V28.303H93.5757V19.4545C93.5757 18.4242 93.2727 17.5757 92.7272 17.0302C92.1818 16.4848 91.3939 16.1818 90.4242 16.1818C89.4545 16.1818 88.6666 16.4848 88.1212 17.0302C87.5757 17.5757 87.2727 18.4242 87.2727 19.4545V28.2424H82.4242V19.4545C82.4242 18.4242 82.1212 17.5757 81.5757 17.0302C81.0303 16.4848 80.2424 16.1818 79.2727 16.1818C78.303 16.1818 77.5151 16.4848 76.9697 17.0302C76.4242 17.5757 76.1212 18.4242 76.1212 19.4545V28.2424H71.1515V11.9999H76.1212V14.0605C76.606 13.3939 77.2727 12.8484 78.1212 12.4242C78.9091 11.9999 79.8788 11.8181 80.9091 11.8181C82.1212 11.8181 83.2121 12.0605 84.1818 12.606C85.1515 13.1514 85.8788 13.8787 86.4242 14.8484C86.9697 13.9393 87.7575 13.2121 88.7272 12.6666C89.6969 12.1211 90.7273 11.8181 91.8788 11.8181C93.9394 11.8787 95.5151 12.4848 96.7273 13.6969Z" fill="#121E6F"/>
<path d="M118.303 15.697C117.697 14.4242 116.788 13.4545 115.758 12.7879C114.667 12.1212 113.455 11.7576 112.121 11.7576C110.97 11.7576 110 12 109.091 12.4848C108.242 12.9697 107.576 13.5758 107.091 14.303V12H102.121V36H107.091V26C107.576 26.7273 108.242 27.3333 109.091 27.8182C109.939 28.303 110.97 28.4848 112.061 28.4848C113.394 28.4848 114.606 28.1212 115.697 27.4545C116.788 26.7879 117.636 25.7576 118.242 24.4848C118.848 23.2121 119.212 21.7576 119.212 20.0606C119.212 18.3636 118.909 16.9697 118.303 15.697ZM114.182 20.1212C114.182 21.3333 113.818 22.3636 113.152 23.0909C112.485 23.8182 111.636 24.1818 110.606 24.1818C109.576 24.1818 108.788 23.8182 108.061 23.0909C107.394 22.3636 107.03 21.3939 107.03 20.1818C107.03 18.9697 107.394 17.9394 108.061 17.2121C108.727 16.4848 109.576 16.1212 110.606 16.1212C111.03 16.1212 111.394 16.1818 111.697 16.303C111.758 16 111.879 15.7576 112.061 15.5151C112.303 15.2121 112.667 15.0909 113.03 15.0909C113.394 15.0909 113.758 15.2121 114 15.5151C114.242 15.8182 114.364 16.1212 114.364 16.5454C114.364 16.9697 114.242 17.3333 114 17.6364C113.879 17.7576 113.758 17.8182 113.697 17.8788C114 18.5454 114.182 19.2727 114.182 20.1212Z" fill="#121E6F"/>
<path d="M62.9697 16.6666C62.4242 16.1818 62.1212 15.5151 62.1212 14.7878C62.1212 13.9999 62.4242 13.3939 62.9697 12.8484C63.5152 12.3636 64.2424 12.0605 65.0909 12.0605C65.9394 12.0605 66.6667 12.303 67.2121 12.8484C67.7576 13.3939 68.0606 13.9999 68.0606 14.7878C68.0606 15.5151 67.7576 16.1818 67.2121 16.6666C66.6667 17.1515 65.9394 17.4545 65.0909 17.4545C64.2424 17.3939 63.5152 17.1515 62.9697 16.6666Z" fill="#121E6F"/>
</g>
<defs>
<clipPath id="clip0_52_2661">
<rect width="119.273" height="36" fill="white"/>
</clipPath>
</defs>
</svg>
