<svg width="167" height="32" viewBox="0 0 167 32" fill="none" xmlns="http://www.w3.org/2000/svg">
<g clip-path="url(#clip0_52_2652)">
<path d="M19.8429 11.3329C19.7811 12.2395 19.6574 13.2492 19.472 14.3619C19.2865 15.4746 19.0393 16.6079 18.7302 17.7618C18.4211 18.9156 18.0708 20.0695 17.6587 21.1616C17.2466 22.2537 16.8139 23.2634 16.34 24.1494C15.8661 25.056 15.3509 25.8184 14.774 26.3748C14.1558 26.9929 13.5377 27.3432 12.8783 27.405C12.7547 27.4256 12.6516 27.4256 12.528 27.4256C11.7244 27.4256 11.0444 27.1578 10.4675 26.622C9.86993 26.0657 9.39601 25.3033 9.04572 24.3554C8.69543 23.4488 8.46877 22.3979 8.34514 21.2234C8.22151 20.0695 8.15969 18.895 8.2009 17.6793C8.2009 16.8963 8.22151 15.9897 8.28332 15.0006C8.32453 14.0116 8.38635 13.0019 8.42756 11.9511C8.46877 10.9002 8.53059 9.86993 8.5718 8.86027C8.61301 7.85061 8.65422 6.92337 8.69543 6.07856C8.71603 5.21314 8.73664 4.51256 8.75724 3.915C8.77785 3.15261 8.73664 2.90534 8.71603 2.82292C8.65422 2.61687 8.55119 2.45203 8.38635 2.28719C8.22151 2.14295 8.01545 2.06053 7.70638 2.06053C7.37669 2.03992 6.96458 2.12234 6.49066 2.30779C5.99614 2.51384 5.39858 2.86413 4.73921 3.35866C4.12106 3.83258 3.62653 4.36832 3.31745 4.90406C2.98777 5.4604 2.7405 5.99614 2.61687 6.47006C2.47263 6.96458 2.39021 7.3973 2.39021 7.74758C2.36961 8.13909 2.36961 8.42756 2.36961 8.61301C2.36961 9.66388 2.55505 10.4057 2.88474 10.859C3.23503 11.3123 3.62653 11.6214 4.03864 11.7862C4.47135 11.9511 4.86285 12.0335 5.23374 12.0335C5.58403 12.0335 6.2434 12.0335 6.36703 12.5486V12.5692C6.40824 12.7547 6.40824 13.208 5.66645 13.4346C5.35737 13.5171 4.94527 13.5583 4.49195 13.5377C4.03863 13.5171 3.54411 13.3934 3.02898 13.1874C2.49324 12.9813 1.99871 12.631 1.5454 12.1365C1.09208 11.6626 0.721185 11.0444 0.432711 10.282C0.144237 9.56085 0 8.61301 0 7.47972C0 6.49066 0.226658 5.54282 0.679974 4.65679C1.11269 3.79137 1.68963 2.98777 2.41082 2.28719C3.1114 1.58661 3.93561 1.03026 4.86285 0.618158C5.76948 0.206053 6.73793 0 7.70638 0C9.70509 0 11.0856 0.721185 11.7656 2.12234C12.425 3.44108 12.631 5.39858 12.425 8.09787C12.3426 8.94269 12.2807 9.97296 12.2395 11.1681C12.1983 12.3426 12.1571 13.5995 12.1571 14.8976C12.1365 16.1958 12.1365 17.4939 12.1571 18.7714C12.1777 20.0489 12.1983 21.2028 12.2601 22.2331C12.3014 23.2428 12.3838 24.0876 12.4662 24.7263C12.5074 24.9736 12.528 25.1384 12.5692 25.2621C12.6929 25.159 12.8783 24.9736 13.1256 24.6439C13.6407 23.9845 14.197 23.0779 14.7534 21.924C15.3303 20.7495 15.8455 19.3896 16.34 17.8648C16.8139 16.3606 17.123 14.774 17.2466 13.1462C17.3703 11.5184 17.4115 10.0142 17.3496 8.69543C17.2878 7.37669 17.2054 6.2434 17.0818 5.29556C16.9788 4.36832 16.8551 3.64713 16.7727 3.132C16.6285 2.36961 16.6079 2.22537 16.6079 2.14295V2.10174V2.06053C16.6285 1.89569 16.7727 1.48358 17.4321 1.38055C17.803 1.31874 18.1945 1.42176 18.5241 1.68963C18.689 1.81326 18.8538 2.03992 19.0805 2.76111C19.2453 3.27624 19.4102 3.95621 19.5544 4.78043C19.6986 5.60464 19.8017 6.57308 19.8841 7.66516C19.9253 8.77785 19.9253 10.0142 19.8429 11.3329Z" fill="#532F03"/>
<path d="M24.3555 11.4978C24.3555 11.8687 24.2937 12.1366 24.1906 12.3633C24.0876 12.5693 23.9434 12.7136 23.7991 12.8372C23.6549 12.9402 23.5107 13.0226 23.3458 13.0638C23.3046 13.0845 23.2634 13.0845 23.2428 13.0845C23.2016 13.1051 23.1604 13.1257 23.1192 13.1463C23.078 13.1669 23.0161 13.2081 22.9749 13.2287C22.8513 13.3317 22.7071 13.3729 22.5216 13.3729C22.4598 13.3729 22.3774 13.3729 22.3156 13.3523C22.1095 13.3111 21.9035 13.2287 21.6974 13.0845C21.512 12.9608 21.3265 12.796 21.1823 12.6105C20.9968 12.3839 20.8938 12.116 20.8526 11.8275C20.8114 11.5391 20.8526 11.2712 20.9556 11.0651C21.038 10.9209 21.0998 10.7973 21.1617 10.7148L21.1823 10.6942C21.2441 10.6118 21.3265 10.5294 21.4089 10.4676C21.4295 10.4264 21.4501 10.3646 21.4707 10.3233C21.5532 10.1379 21.718 9.89063 22.0683 9.7464L22.1095 9.72579H22.1507C22.3156 9.68458 22.5216 9.68458 22.7689 9.70518C23.0161 9.7464 23.2634 9.82882 23.4901 9.95245C23.7167 10.0967 23.9434 10.2821 24.1082 10.5294C24.2525 10.8179 24.3555 11.1476 24.3555 11.4978Z" fill="#532F03"/>
<path d="M60.0644 16.9169C59.7347 16.7726 59.4669 16.8345 59.3226 16.9169C59.096 17.0199 58.9311 17.226 58.8281 17.535L58.8075 17.5762V17.6175C58.7251 18.112 58.6221 18.6683 58.519 19.2865C58.3954 19.9046 58.1893 20.8319 57.9215 22.027C57.4888 23.8609 57.1179 25.2414 56.7882 26.0862C56.5615 26.6632 56.3143 27.0135 56.1082 27.0753C56.0876 27.0341 56.067 26.9929 56.0258 26.9104C55.9022 26.6426 55.7785 26.2717 55.6755 25.839C55.5725 25.3856 55.4694 24.8911 55.387 24.3554C55.3046 23.8196 55.2222 23.2839 55.181 22.7688C55.1398 22.2536 55.0986 21.8003 55.0779 21.4088C55.0367 20.8937 55.0367 20.7082 55.0367 20.6464C55.0367 20.4198 55.0161 20.1725 54.9749 19.884C54.9337 19.575 54.8307 19.2659 54.7071 18.998C54.5834 18.7713 54.4392 18.5653 54.2743 18.3798C54.398 18.2356 54.4804 18.0296 54.5422 17.6999C54.6246 17.2672 54.604 16.752 54.4804 16.1545C54.3568 15.5775 54.1095 14.9594 53.7386 14.3412C53.3677 13.7024 52.7702 13.1255 52.0078 12.6516C51.1836 12.1364 50.3799 12.0128 49.6176 12.2807C48.9376 12.5279 48.3194 12.9401 47.7837 13.517C47.2685 14.0733 46.8152 14.6915 46.4649 15.3715C46.1147 16.0514 45.8468 16.5872 45.6613 17.0611C45.4759 17.535 45.311 18.0914 45.1256 18.7301C44.9608 19.3689 44.7959 19.9871 44.6723 20.6258C44.528 21.2646 44.425 21.8827 44.322 22.4803C44.2396 23.0779 44.1778 23.6136 44.1778 24.0257C44.1778 24.1081 44.1778 24.1905 44.1778 24.2524C44.0129 24.6851 43.8275 25.1178 43.642 25.5299C43.3329 26.2305 43.0033 26.8692 42.6736 27.4256C42.3851 27.9201 42.0966 28.2704 41.8288 28.4558C41.7875 28.4764 41.7669 28.497 41.7669 28.497C41.7463 28.4764 41.6639 28.4352 41.5609 28.2704C41.293 27.8377 41.0664 27.1577 40.8603 26.2717C40.6543 25.3444 40.4688 24.2317 40.3452 22.9336C40.2215 21.6973 40.1391 20.3786 40.0979 19.0392C40.3658 18.6065 40.6955 18.0296 41.0664 17.3702C41.4785 16.6284 41.8906 15.763 42.3233 14.7945C42.7354 13.8261 43.1475 12.7546 43.539 11.6007C43.9305 10.4262 44.219 9.18989 44.425 7.91236C44.7135 6.18152 44.7753 4.88339 44.6105 3.95615C44.4456 2.9877 44.1778 2.30773 43.8275 1.87502C43.436 1.4011 43.0033 1.15383 42.5087 1.11262C42.1172 1.09202 41.8288 1.09202 41.6433 1.11262H41.6021C41.4785 1.13323 41.3136 1.19504 41.1076 1.27746C40.8603 1.38049 40.5924 1.56594 40.2628 1.87502C39.9743 2.16349 39.6446 2.5756 39.3149 3.13194C38.9852 3.66768 38.6555 4.40947 38.3259 5.3161C37.9962 6.22273 37.6871 7.35602 37.3986 8.71597C37.1101 10.0553 36.8217 11.7037 36.5744 13.5994C36.3065 15.7218 36.2241 17.6793 36.3271 19.3895C36.2035 19.8428 36.0593 20.3373 35.8944 20.8525C35.6678 21.5943 35.3999 22.3979 35.1114 23.2221C34.823 24.0463 34.5139 24.8087 34.2048 25.5299C33.8957 26.2305 33.566 26.8692 33.2364 27.4256C32.9479 27.9201 32.6594 28.2704 32.3915 28.4558C32.3503 28.4764 32.3297 28.497 32.3297 28.497C32.3091 28.4764 32.2267 28.4352 32.1237 28.2704C31.8558 27.8377 31.6291 27.1577 31.4231 26.2717C31.217 25.3444 31.0316 24.2317 30.908 22.9336C30.7843 21.6973 30.7019 20.3786 30.6607 19.0392C30.9286 18.6065 31.2582 18.0296 31.6291 17.3702C32.0412 16.6284 32.4534 15.763 32.8861 14.7945C33.2982 13.8261 33.7103 12.7546 34.1018 11.6007C34.4933 10.4262 34.7817 9.18989 34.9878 7.91236C35.2763 6.18152 35.3381 4.88339 35.1732 3.95615C35.0084 2.9877 34.7405 2.30773 34.3902 1.87502C33.9987 1.4011 33.566 1.15383 33.0715 1.11262C32.68 1.09202 32.3915 1.09202 32.2061 1.11262H32.1649C32.0412 1.13323 31.8764 1.19504 31.6703 1.27746C31.4231 1.38049 31.1552 1.56594 30.8255 1.87502C30.5371 2.16349 30.2074 2.5756 29.8777 3.13194C29.548 3.66768 29.2183 4.40947 28.8886 5.3161C28.559 6.22273 28.2499 7.35602 27.9614 8.71597C27.6729 10.0553 27.3845 11.7037 27.1372 13.5994C26.9311 15.3097 26.8281 16.9169 26.8487 18.3592C26.7251 18.7713 26.6015 19.2041 26.4778 19.6574C26.2512 20.3992 26.0039 21.1616 25.736 21.9034C25.4888 22.6451 25.2003 23.3251 24.9324 23.9433C24.6646 24.5408 24.3967 24.9941 24.1494 25.3444C23.964 25.5917 23.861 25.6329 23.861 25.6329C23.7373 25.6123 23.6549 25.4062 23.6137 25.2826C23.4901 24.9323 23.4282 24.4996 23.387 23.9639C23.3664 23.4075 23.3664 22.7894 23.4076 22.13C23.4488 21.4706 23.5107 20.8113 23.5725 20.1931C23.6549 19.5131 23.7167 18.9774 23.7785 18.5035L23.8403 18.009C23.8816 17.7617 23.9022 17.5762 23.9022 17.4526V17.432C23.9228 17.1023 23.9434 16.8551 23.9228 16.649C23.9022 16.4017 23.861 16.2163 23.7579 16.0721C23.6549 15.9072 23.5107 15.763 23.284 15.6599L22.7895 15.4127C22.6658 15.3509 22.5216 15.2891 22.398 15.2684H22.3774C22.0477 15.2066 21.821 15.186 21.6356 15.2272L21.5944 15.2478C21.3883 15.3097 21.2235 15.4745 21.0792 15.763C20.9762 15.9484 20.8938 16.2369 20.7908 16.649C20.7083 17.0199 20.6053 17.5144 20.5229 18.1532C20.4405 18.7507 20.3374 19.5131 20.2344 20.4816C20.1108 21.4294 20.1314 22.4185 20.3168 23.4075C20.5023 24.3966 20.7908 25.262 21.1617 26.0038C21.5532 26.7662 22.0271 27.3431 22.5834 27.6934C22.8925 27.8995 23.2222 28.0025 23.5725 28.0025C23.9022 28.0025 24.2525 27.8995 24.5821 27.6728C24.953 27.4462 25.3239 27.0341 25.6742 26.4159C26.0039 25.8596 26.313 25.2002 26.6221 24.4996C26.8693 23.9227 27.096 23.3251 27.3226 22.6863C27.6111 24.1287 27.982 25.3856 28.4147 26.4159C29.0329 27.8583 29.6716 28.8885 30.3722 29.5891C31.1346 30.3515 31.7528 30.7224 32.2679 30.7224C32.7624 30.7224 33.2982 30.4133 33.8957 29.754C34.4109 29.177 34.9466 28.3322 35.4823 27.2401C35.9769 26.2305 36.4714 24.9941 36.9659 23.5518C37.2132 24.6439 37.5223 25.6123 37.8725 26.4365C38.4907 27.8789 39.1295 28.9091 39.83 29.6097C40.5924 30.3721 41.2106 30.743 41.7257 30.743C42.2203 30.743 42.756 30.4339 43.3535 29.7746C43.8687 29.1976 44.4044 28.3528 44.9402 27.2607C45.002 27.1371 45.0432 27.0341 45.105 26.9104C45.4553 27.2813 45.9292 27.5492 46.5268 27.6728C46.8358 27.7552 47.1861 27.6728 47.5364 27.4256C47.8043 27.2401 48.0928 26.9929 48.4018 26.6632C48.7109 26.3541 49.02 25.9832 49.3291 25.6123C49.6382 25.2208 49.9472 24.8087 50.2563 24.376C50.689 23.7784 51.1423 23.0985 51.6163 22.3567C51.6781 23.2633 51.7811 24.1081 51.9459 24.8705C52.049 25.3856 52.1932 25.9214 52.3581 26.4159C52.5435 26.931 52.7702 27.405 53.038 27.8171C53.3265 28.2292 53.6562 28.5795 54.0477 28.8473C54.4598 29.1358 54.9543 29.28 55.5107 29.28C56.3761 29.28 57.0973 28.9091 57.6536 28.1674C58.1481 27.508 58.5808 26.6426 58.9105 25.6123C59.2402 24.6026 59.5493 23.4075 59.8172 22.0888C60.0644 20.8525 60.3323 19.4925 60.6208 17.9677C60.7444 17.4526 60.5177 17.0611 60.0644 16.9169ZM40.2628 13.1873C40.3658 11.8686 40.5512 10.6735 40.7573 9.64321C41.1488 8.01539 41.4579 6.75847 41.7051 5.79002C41.9524 4.84218 42.1584 4.1416 42.3233 3.70889C42.3645 3.60586 42.3851 3.54404 42.4263 3.46162C42.4881 3.60586 42.5705 3.89433 42.653 4.43007C42.756 5.11005 42.7354 6.03728 42.5911 7.19118C42.4469 8.36568 42.1172 9.80805 41.5815 11.4565C41.2312 12.5692 40.7573 13.7849 40.1597 15.1036C40.1803 14.4648 40.2215 13.8055 40.2628 13.1873ZM30.8049 13.1873C30.908 11.8686 31.0934 10.6735 31.2995 9.64321C31.6703 8.036 32 6.73786 32.2473 5.81063C32.4946 4.86278 32.7006 4.1622 32.8655 3.72949C32.9067 3.62647 32.9273 3.56465 32.9479 3.48223C33.0097 3.62647 33.0921 3.91494 33.1745 4.45068C33.2776 5.13065 33.257 6.05789 33.1127 7.21178C32.9685 8.38629 32.6182 9.82866 32.1031 11.4771C31.7528 12.5898 31.2788 13.8055 30.6813 15.1242C30.7225 14.4648 30.7637 13.8055 30.8049 13.1873ZM51.5957 18.4623C51.266 18.7713 50.9569 19.2247 50.6478 19.8222C50.5036 20.0901 50.2357 20.5228 49.8648 21.1203C49.4939 21.7179 49.1024 22.3155 48.6903 22.8924C48.3812 23.3457 48.0722 23.7578 47.8043 24.1287C47.8249 23.8815 47.8661 23.6136 47.9073 23.3045C47.9897 22.707 48.134 22.0064 48.2988 21.2646C48.4637 20.5022 48.6697 19.7604 48.917 19.0392C49.1436 18.318 49.4321 17.6381 49.7412 16.9993C50.0503 16.4017 50.3799 15.8866 50.7508 15.4951C51.1217 15.1242 51.3072 15.1036 51.3278 15.1036C51.4102 15.1036 51.5544 15.1242 51.7193 15.2684C51.8841 15.4333 52.049 15.66 52.1726 15.9484C52.3374 16.2781 52.4817 16.6284 52.5847 16.9581C52.7083 17.3084 52.832 17.6175 52.9556 17.8853C52.9556 17.9059 52.9762 17.9059 52.9762 17.9265C52.4199 17.9677 51.9459 18.1532 51.5957 18.4623Z" fill="#532F03"/>
<path d="M95.4436 20.1933L95.4024 20.152L95.3612 20.1314C95.2376 20.049 95.0934 20.0078 94.9285 19.9872C94.6606 19.9666 94.4134 20.0902 94.2898 20.3169C94.0219 20.7496 93.651 21.2029 93.1977 21.6974C92.8268 22.1096 92.3116 22.5217 91.6935 22.9544C91.4256 22.5629 91.1577 22.1714 90.9311 21.7799C90.6632 21.3265 90.519 20.935 90.4778 20.5642C90.4366 20.049 90.4778 19.7605 90.4984 19.5957C90.5602 19.3278 90.622 19.1836 90.6426 19.1012C90.725 18.9363 90.7662 18.8951 90.7662 18.8745C90.9517 18.6067 90.9105 18.2564 90.6426 18.0503C89.9626 17.494 89.4269 17.5764 89.0766 17.7206C88.6439 17.9061 88.3142 18.277 88.067 18.7921C87.8609 19.266 87.7373 19.8224 87.7167 20.4405C87.7167 20.6672 87.7167 20.8938 87.7373 21.0999C87.6136 21.2647 87.49 21.4502 87.3252 21.615C87.0779 21.8829 86.7894 22.1302 86.4597 22.3362C86.2743 22.4392 86.0888 22.5217 85.8828 22.5629C85.9034 22.3362 85.924 22.1302 85.9446 21.9035C85.9858 21.512 86.0064 21.1205 86.0064 20.729C86.0064 19.9666 85.9034 19.2454 85.6973 18.6273C85.4913 18.0091 85.244 17.4734 84.935 17.0407C84.6259 16.5873 84.255 16.2164 83.8429 15.9486C83.4308 15.6807 83.0187 15.5159 82.6272 15.4746H82.6066C82.2975 15.454 81.9678 15.4746 81.6587 15.4953C81.3084 15.5365 80.9993 15.6395 80.6903 15.7837C80.3812 15.9486 80.1133 16.1752 79.9073 16.4843C79.6806 16.7934 79.557 17.1643 79.5158 17.6176C79.4952 17.803 79.4952 18.0297 79.5364 18.3182C79.557 18.5448 79.6188 18.7921 79.6806 19.0394C79.5158 19.3278 79.3715 19.6987 79.2273 20.1314C79.1449 20.2139 79.1037 20.2963 79.0831 20.3787V20.3993C79.0006 20.6466 78.8976 20.9969 78.7328 21.4502C78.5885 21.9035 78.4237 22.3774 78.2382 22.8926C78.0528 23.4077 77.8467 23.9434 77.6407 24.4792C77.4346 25.0149 77.2286 25.4888 77.0225 25.9215C76.8371 26.3336 76.6516 26.6633 76.4868 26.9106C76.4456 26.9724 76.4044 27.0342 76.3838 27.0548C76.3426 27.0136 76.2807 26.9312 76.2189 26.7251C76.0953 26.313 76.0129 25.7361 75.9923 25.0355C75.951 24.2937 75.9511 23.4489 75.9717 22.5217C75.9923 21.615 75.9923 20.6672 75.9923 19.6987C76.1571 19.4103 76.3219 19.06 76.528 18.6479C76.7547 18.1945 76.9813 17.6588 77.208 17.1025C77.4346 16.5461 77.6613 15.928 77.8673 15.3098C78.0734 14.671 78.2382 14.0323 78.3413 13.3729C78.5061 12.4663 78.5267 11.7451 78.4031 11.2094C78.2794 10.653 78.1146 10.2203 77.8467 9.93183C77.5789 9.62275 77.2904 9.4373 76.9813 9.35488C76.6516 9.27246 76.528 9.27246 76.4456 9.27246C75.8068 9.27246 75.3741 9.89062 75.0856 10.3645C74.7353 10.9621 74.4057 11.7451 74.0966 12.6929C73.8081 13.6202 73.5608 14.6916 73.3754 15.8662C73.2312 16.7728 73.1281 17.7 73.1075 18.6273C72.8809 18.5242 72.613 18.483 72.3245 18.4624C71.9536 18.4418 71.5827 18.5242 71.2118 18.7303C70.8822 18.9157 70.5525 19.2042 70.264 19.5957C69.9755 19.9666 69.7283 20.4611 69.5428 21.0381C69.3574 21.615 69.1925 22.295 69.0895 23.1192C69.0071 23.861 69.0277 24.5204 69.1513 25.0355C69.2749 25.5712 69.481 26.0246 69.7695 26.3542C70.0579 26.7045 70.367 26.9518 70.7173 27.096C71.0676 27.2403 71.3561 27.3021 71.6445 27.3021C72.1597 27.3021 72.6542 27.0754 73.1693 26.6427C73.396 26.4367 73.6227 26.1688 73.8287 25.8185C73.9111 26.1894 73.9936 26.4985 74.0966 26.7663C74.3026 27.4051 74.5293 27.8996 74.7765 28.2293C75.0444 28.6208 75.3329 28.8681 75.6626 28.9711C75.9304 29.0741 76.1983 29.1359 76.4662 29.1359C76.8783 29.1359 77.2492 28.8681 77.6407 28.3323C77.9498 27.8996 78.2588 27.3227 78.5885 26.5397C78.8152 26.0039 79.0624 25.3858 79.3303 24.7058C79.4539 25.0561 79.6188 25.3652 79.8042 25.6537C80.1133 26.1276 80.5048 26.4985 80.9581 26.7869C81.4321 27.096 81.9884 27.2403 82.6066 27.2403C83.4514 27.2403 84.1313 26.9106 84.6671 26.2512C85.0792 25.7155 85.4089 25.0355 85.6149 24.1907H85.6973H85.7386C86.2331 24.1495 86.7276 23.9846 87.1603 23.6756C87.5518 23.4077 87.9227 23.078 88.2524 22.7277C88.273 22.7071 88.273 22.6865 88.2936 22.6865C88.4585 22.9338 88.6233 23.2016 88.8294 23.4489C89.0354 23.6962 89.2209 23.9434 89.4269 24.1907C89.056 24.4792 88.7263 24.7882 88.4997 25.1179C88.17 25.5918 87.9433 26.1688 87.8403 26.8488C87.7785 27.1991 87.7785 27.5699 87.8609 27.9614C87.9227 28.3529 88.067 28.7238 88.273 29.0741C88.4791 29.4244 88.7881 29.7129 89.1384 29.9396C89.5093 30.1662 89.9626 30.2898 90.4984 30.2898C90.9929 30.2898 91.4256 30.1662 91.8377 29.9396C92.2292 29.7129 92.5383 29.4244 92.7856 29.0535C93.0328 28.7032 93.2183 28.3117 93.3213 27.8584C93.4243 27.4257 93.4861 26.9724 93.4655 26.5191V26.4985C93.4243 26.0452 93.2801 25.5712 93.0328 25.0767C92.868 24.747 92.6825 24.4173 92.4765 24.0671C92.6825 23.9228 92.8886 23.7786 93.0946 23.6137C93.4037 23.3665 93.7746 23.0368 94.1867 22.6247C94.5782 22.2126 95.0109 21.6974 95.4642 21.0999C95.7733 20.935 95.7527 20.5023 95.4436 20.1933ZM73.2105 23.2222C73.1075 23.5519 72.9839 23.9228 72.819 24.3143C72.6542 24.7058 72.4688 25.0561 72.2627 25.3858C72.1391 25.5712 72.0154 25.6949 71.8712 25.7773C71.8094 25.5094 71.7888 25.1591 71.7888 24.7058C71.7888 24.2319 71.8506 23.7168 71.933 23.1398C72.0154 22.5629 72.1391 22.0477 72.2627 21.5532C72.3863 21.0999 72.5306 20.7084 72.6748 20.4199C72.716 20.3581 72.7366 20.3169 72.7572 20.2757C72.7984 20.2963 72.8603 20.3581 72.9015 20.4405C73.0251 20.626 73.1281 20.8732 73.2105 21.1205C73.2312 21.6562 73.2724 22.192 73.3548 22.6865C73.3342 22.8101 73.293 22.9544 73.2105 23.2222ZM75.6008 18.4212C75.642 17.4528 75.7244 16.5049 75.848 15.5571C75.9923 14.6092 76.1159 13.7644 76.2807 13.0226C76.425 12.2808 76.5898 11.6833 76.7134 11.23C76.8577 10.7766 76.9607 10.55 77.0019 10.55C77.0431 10.55 77.1256 10.7148 77.208 11.0239C77.2904 11.333 77.311 11.8069 77.2698 12.4663C77.2286 13.105 77.0843 13.9293 76.8577 14.9183C76.631 15.9074 76.2189 17.0819 75.6008 18.4212ZM83.2865 25.3034C83.0599 25.6537 82.8332 25.6949 82.6478 25.6949C82.4211 25.6537 82.2563 25.5712 82.1532 25.4064C81.9884 25.1797 81.8854 24.8913 81.8236 24.541C81.7617 24.1701 81.7411 23.758 81.7617 23.3047C81.7617 23.1604 81.7823 22.9956 81.7823 22.8513C81.9678 23.0368 82.1944 23.2222 82.4005 23.4077C82.8126 23.7374 83.2659 23.9846 83.7811 24.1495C83.6574 24.6028 83.4926 24.9943 83.2865 25.3034ZM84.2344 21.409C84.1932 21.7181 84.152 22.0477 84.1107 22.3774C83.6986 22.192 83.3689 21.9653 83.1011 21.6974C82.7508 21.3472 82.5035 20.9763 82.3387 20.5848C82.1738 20.1933 82.0914 19.8018 82.0708 19.3897C82.0502 18.9775 82.0914 18.6067 82.1738 18.277C82.2563 17.9679 82.3593 17.7206 82.5035 17.5352C82.6066 17.4115 82.6684 17.3703 82.689 17.3703C82.8744 17.3703 83.0599 17.4322 83.2247 17.5764C83.4308 17.7412 83.6162 17.9679 83.7811 18.2358C83.9459 18.5242 84.0901 18.8539 84.1932 19.2454C84.2962 19.6163 84.3374 20.0078 84.3374 20.3787C84.2962 20.626 84.2756 20.9763 84.2344 21.409ZM90.519 28.7651C90.4572 28.7651 90.3541 28.7651 90.1893 28.7238C90.1069 28.7032 90.0245 28.662 89.9214 28.6002C89.8596 28.5384 89.7566 28.4148 89.633 28.1469C89.5711 27.9821 89.4887 27.6936 89.4887 27.1166C89.4887 26.7869 89.6124 26.4367 89.839 26.107C90.0039 25.8803 90.1893 25.6743 90.3954 25.4888C90.5396 25.6949 90.6838 25.9009 90.7869 26.107C90.9517 26.3954 91.0135 26.6839 91.0135 26.993C91.0135 27.9614 90.8487 28.3323 90.7662 28.4766C90.622 28.6826 90.5396 28.7445 90.519 28.7651Z" fill="#532F03"/>
<path d="M166.14 17.1023L166.099 17.0611L166.058 17.0405C165.914 16.9374 165.749 16.8962 165.543 16.8756C165.234 16.8344 164.945 16.9787 164.801 17.2465C164.389 17.9059 163.833 18.6065 163.153 19.3483C162.535 20.0076 161.71 20.7082 160.659 21.4088C160.186 20.7494 159.773 20.09 159.382 19.4513C158.949 18.7507 158.723 18.1119 158.681 17.535C158.64 16.8756 158.64 16.3811 158.723 16.0308C158.826 15.5981 158.908 15.3714 158.97 15.2478C159.093 15.0212 159.155 14.9181 159.176 14.8769C159.382 14.5678 159.32 14.1969 159.032 13.9703C158.125 13.2285 157.404 13.3109 156.95 13.517C156.353 13.7848 155.9 14.2794 155.57 15.0005C155.261 15.6805 155.096 16.4841 155.055 17.3908C155.034 17.741 155.055 18.0913 155.096 18.4416C154.911 18.7301 154.684 19.0186 154.416 19.307C154.045 19.7398 153.571 20.1107 153.077 20.4197C152.706 20.6464 152.273 20.7906 151.82 20.8524C151.882 20.4197 151.923 19.987 151.964 19.5337C152.005 18.9568 152.046 18.3798 152.046 17.8029C152.046 16.6696 151.902 15.6393 151.614 14.7327C151.325 13.826 150.954 13.043 150.522 12.4043C150.068 11.7449 149.553 11.2298 148.956 10.8589C148.358 10.488 147.781 10.2613 147.225 10.1995H147.204C146.751 10.1789 146.277 10.1789 145.824 10.2407C145.329 10.3025 144.876 10.4262 144.464 10.6528C144.031 10.8795 143.66 11.2092 143.372 11.6213C143.063 12.0334 142.898 12.5691 142.836 13.2079C142.795 13.4551 142.815 13.7848 142.877 14.1969C142.918 14.5472 143.001 14.9387 143.104 15.3508C142.836 15.8454 142.568 16.4841 142.341 17.2671C142.094 18.1119 141.97 19.0804 141.97 20.1519C141.97 20.2343 141.97 20.3167 141.97 20.3991C141.929 20.564 141.867 20.7288 141.826 20.8937C141.6 21.6354 141.332 22.4391 141.043 23.2633C140.755 24.0875 140.446 24.8499 140.137 25.5711C139.827 26.2716 139.498 26.9104 139.168 27.4667C138.88 27.9613 138.591 28.3116 138.323 28.497C138.282 28.5176 138.261 28.5382 138.261 28.5382C138.241 28.5176 138.158 28.4764 138.055 28.3116C137.788 27.8788 137.561 27.1989 137.355 26.3128C137.149 25.3856 136.963 24.2729 136.84 22.9748C136.716 21.7385 136.634 20.4197 136.592 19.0804C136.86 18.6477 137.19 18.0707 137.561 17.4114C137.973 16.6696 138.385 15.8042 138.818 14.8357C139.23 13.8673 139.642 12.7958 140.034 11.6419C140.425 10.4674 140.714 9.23107 140.92 7.95354C141.208 6.22269 141.27 4.92456 141.105 3.99732C140.94 3.02888 140.672 2.3489 140.322 1.91619C139.931 1.44227 139.498 1.19501 139.003 1.1538C138.612 1.13319 138.323 1.13319 138.138 1.1538H138.097C137.973 1.1744 137.808 1.23622 137.602 1.31864C137.355 1.42167 137.087 1.60711 136.757 1.91619C136.469 2.20467 136.139 2.61677 135.809 3.17311C135.48 3.70885 135.15 4.45064 134.82 5.35727C134.491 6.26391 134.182 7.3972 133.893 8.75714C133.605 10.0965 133.316 11.7449 133.069 13.6406C132.925 14.8357 132.822 15.969 132.801 17.0405C132.677 17.2877 132.513 17.5968 132.327 17.9677C132.08 18.421 131.75 18.8537 131.359 19.307C130.988 19.7398 130.535 20.1107 130.019 20.4197C129.648 20.6464 129.216 20.7906 128.762 20.8524C128.824 20.4197 128.865 19.987 128.907 19.5337C128.969 18.9568 128.989 18.3798 128.989 17.8029C128.989 16.6696 128.845 15.6393 128.556 14.7327C128.268 13.826 127.897 13.043 127.464 12.4043C127.011 11.7449 126.496 11.2298 125.898 10.8589C125.301 10.488 124.724 10.2613 124.167 10.1995H124.147C123.694 10.1789 123.22 10.1789 122.766 10.2407C122.272 10.3025 121.818 10.4262 121.406 10.6528C120.974 10.8795 120.603 11.2092 120.314 11.6213C120.005 12.0334 119.84 12.5691 119.779 13.2079C119.758 13.4551 119.758 13.7848 119.82 14.1969C119.861 14.5472 119.943 14.9387 120.046 15.3508C119.779 15.8454 119.511 16.4841 119.284 17.2671C119.099 17.8853 118.975 18.5859 118.934 19.3483C118.872 19.1216 118.79 18.8949 118.707 18.6889C118.439 17.9883 118.151 17.3702 117.8 16.855C117.471 16.3399 117.1 15.8866 116.708 15.5157C116.317 15.1448 115.925 14.8357 115.513 14.609C114.813 14.1969 114.05 13.9085 113.247 13.7436C114.195 12.3013 114.895 10.8177 115.328 9.29288C115.822 7.54143 115.987 5.93422 115.802 4.51246C115.616 3.04948 115.06 1.89559 114.174 1.05077C113.123 0.185348 111.846 -0.103126 110.259 0.205954C108.734 0.494428 107.477 1.07138 106.488 1.91619C105.54 2.7404 104.757 3.62643 104.222 4.57427C103.665 5.50151 103.294 6.42875 103.109 7.27356C102.923 8.13899 102.841 8.73654 102.862 9.10743V9.14865C102.923 9.60196 103.068 9.89044 103.274 10.0759C103.459 10.2407 103.665 10.3438 103.912 10.385C104.139 10.4262 104.407 10.385 104.716 10.2819L105.108 10.1583L105.046 9.7668C104.902 8.77775 105.046 7.8093 105.458 6.90267C105.891 5.95483 106.447 5.11001 107.106 4.43004C107.601 3.93551 108.116 3.5028 108.631 3.15251C108.363 3.44098 108.137 3.87369 107.951 4.45064C107.663 5.31606 107.436 6.38754 107.23 7.66506C107.045 8.92199 106.88 10.3231 106.777 11.8479C106.653 13.3521 106.571 14.8563 106.529 16.3193C106.488 17.7617 106.447 19.101 106.426 20.3373C106.406 21.4706 106.406 22.4803 106.406 23.2014C106.406 24.2523 106.488 25.0765 106.653 25.7153C106.818 26.3747 107.024 26.8692 107.292 27.2401C107.354 27.3225 107.415 27.4049 107.477 27.4873C107.333 27.4049 107.189 27.3225 107.044 27.2401C106.468 26.8692 105.911 26.3953 105.417 25.7977C104.922 25.2208 104.51 24.479 104.201 23.6136L104.057 23.2014L103.645 23.2839C103.459 23.3251 103.274 23.4281 103.109 23.5929L103.088 23.6136L103.068 23.6342C102.944 23.799 102.862 23.9844 102.82 24.2317C102.759 24.479 102.779 24.7881 102.882 25.2002C102.965 25.5298 103.068 25.8801 103.191 26.2922C103.336 26.7456 103.603 27.2195 103.974 27.714C104.345 28.1879 104.86 28.6824 105.52 29.1564C106.179 29.6303 107.045 30.0836 108.116 30.4751H108.137C108.343 30.5369 108.569 30.6193 108.796 30.7018C109.023 30.7842 109.27 30.846 109.517 30.9078C110.073 31.0315 110.63 31.0933 111.186 31.0933C111.949 31.0933 112.69 30.9696 113.412 30.743C114.668 30.3515 115.761 29.6715 116.688 28.7443C117.594 27.8376 118.316 26.7043 118.81 25.3856C119.057 24.7262 119.222 24.0463 119.284 23.3045C119.49 23.9844 119.779 24.6026 120.129 25.1383C120.562 25.8183 121.118 26.3541 121.777 26.7868C122.437 27.2195 123.22 27.4255 124.106 27.4255C125.301 27.4255 126.269 26.9516 126.99 26.0244C127.629 25.2208 128.103 24.1493 128.412 22.8512H128.721H128.762C129.484 22.7893 130.143 22.5421 130.782 22.13C131.359 21.7385 131.894 21.2645 132.368 20.7494C132.533 20.564 132.698 20.3785 132.863 20.1931C132.904 20.5228 132.925 20.8318 132.966 21.1409C133.275 23.2633 133.728 25.0353 134.326 26.4365C134.944 27.8788 135.583 28.9091 136.283 29.6097C137.046 30.3721 137.664 30.743 138.179 30.743C138.674 30.743 139.209 30.4339 139.807 29.7745C140.322 29.1976 140.858 28.3528 141.394 27.2607C141.826 26.3747 142.259 25.3238 142.692 24.1081C142.856 24.4996 143.042 24.8499 143.269 25.1796C143.701 25.8595 144.258 26.3953 144.917 26.828C145.576 27.2607 146.359 27.4667 147.245 27.4667C148.44 27.4667 149.409 26.9928 150.13 26.0656C150.769 25.262 151.243 24.1905 151.552 22.8924H151.861H151.902C152.623 22.8306 153.283 22.5833 153.922 22.1712C154.498 21.7797 155.034 21.3058 155.508 20.7906C155.611 20.6876 155.694 20.5846 155.797 20.4815C156.064 20.9349 156.374 21.4088 156.744 21.8621C157.095 22.2948 157.445 22.7275 157.795 23.1602C157.157 23.5929 156.641 24.0875 156.25 24.6438C155.776 25.3238 155.446 26.1686 155.323 27.1371C155.24 27.6316 155.24 28.1673 155.343 28.7237C155.446 29.28 155.652 29.8157 155.941 30.2897C156.25 30.7842 156.662 31.1963 157.157 31.5054C157.672 31.8351 158.31 31.9999 159.052 31.9999C159.732 31.9999 160.371 31.8351 160.927 31.526C161.463 31.2169 161.916 30.8048 162.267 30.2897C162.617 29.7951 162.864 29.2182 163.029 28.5794C163.194 27.9613 163.256 27.3019 163.235 26.6631V26.6425C163.173 26.0038 162.967 25.3238 162.617 24.6026C162.349 24.0463 162.04 23.4899 161.69 22.913C162.04 22.6863 162.411 22.4184 162.802 22.1094C163.276 21.7385 163.812 21.2645 164.389 20.6464C164.987 20.0488 165.625 19.2864 166.285 18.3798C166.532 17.9677 166.511 17.4732 166.14 17.1023ZM136.695 13.1873C136.799 11.8685 136.984 10.6734 137.19 9.64317C137.582 8.01535 137.891 6.75843 138.138 5.78998C138.385 4.84214 138.591 4.14156 138.756 3.70885C138.797 3.60582 138.818 3.54401 138.859 3.46159C138.921 3.60582 139.003 3.8943 139.086 4.43004C139.189 5.11001 139.168 6.03725 139.024 7.19114C138.88 8.36564 138.529 9.80801 138.014 11.4564C137.664 12.5691 137.19 13.7848 136.592 15.1036C136.613 14.4648 136.654 13.8054 136.695 13.1873ZM110.939 2.3283C111.557 2.41072 111.949 2.69919 112.134 3.21432C112.361 3.85309 112.422 4.71851 112.34 5.76938C112.278 6.44935 112.072 7.25296 111.763 8.13899C111.433 9.04562 111.083 9.93165 110.712 10.7559C110.383 11.477 110.073 12.1158 109.785 12.6515C109.806 12.4867 109.806 12.3219 109.826 12.1776C109.929 10.7971 110.032 9.54014 110.156 8.40685C110.28 7.29417 110.383 6.38754 110.486 5.74877V5.72817C110.568 5.02759 110.609 4.51246 110.63 4.14156C110.65 3.70885 110.609 3.39977 110.527 3.17311C110.321 2.69919 109.97 2.65798 109.826 2.65798C109.723 2.65798 109.6 2.67859 109.455 2.69919C110.053 2.39011 110.547 2.26648 110.939 2.3283ZM115.575 23.3869C115.534 24.1905 115.369 24.9735 115.101 25.7153C114.854 26.4365 114.462 27.0546 113.968 27.5904C113.494 28.0849 112.917 28.3734 112.175 28.497C112.113 28.497 111.99 28.497 111.66 28.5176C111.351 28.5382 110.939 28.497 110.465 28.4352C110.094 28.3734 109.682 28.2909 109.249 28.1673C109.538 28.1261 109.785 27.9201 109.909 27.611C110.012 27.3637 110.053 26.9722 110.032 26.3953C110.012 25.9007 109.95 25.2002 109.888 24.3141C109.806 23.4487 109.744 22.2742 109.661 20.8524C109.579 19.4513 109.558 17.9883 109.6 16.5047C109.6 16.2575 109.62 16.0102 109.62 15.7629C109.661 15.7835 109.703 15.8042 109.744 15.8248C109.95 15.9072 110.156 15.9484 110.341 15.9484C110.506 15.9484 110.671 15.9278 110.795 15.8866C110.898 15.866 111.001 15.8248 111.124 15.7835C111.186 15.7629 111.289 15.7423 111.392 15.7217C111.475 15.7011 111.619 15.7011 111.887 15.7011C111.907 15.7011 112.113 15.7217 112.608 16.1132C112.999 16.4223 113.412 16.855 113.803 17.3702C114.215 17.9059 114.586 18.5034 114.936 19.1628C115.266 19.8016 115.451 20.4609 115.534 21.1409C115.616 21.8003 115.637 22.5627 115.575 23.3869ZM125.198 24.685C124.765 25.3238 124.332 25.3856 124.023 25.365C123.611 25.3032 123.323 25.1177 123.096 24.8087C122.849 24.4378 122.663 23.9638 122.56 23.4281C122.457 22.8512 122.416 22.2124 122.457 21.5324C122.478 21.1203 122.498 20.7082 122.54 20.3373C122.931 20.7494 123.343 21.1409 123.817 21.5118C124.456 22.0269 125.198 22.4184 126.022 22.6451C125.837 23.4693 125.548 24.1493 125.198 24.685ZM126.64 18.7713C126.578 19.3277 126.496 19.9046 126.413 20.5434C125.651 20.2343 125.012 19.8428 124.538 19.3483C124.003 18.8125 123.591 18.215 123.343 17.6174C123.096 16.9993 122.952 16.3811 122.931 15.7423C122.911 15.1036 122.952 14.506 123.096 14.0115C123.22 13.517 123.384 13.1255 123.611 12.8164C123.735 12.6721 123.9 12.4867 124.064 12.4867C124.415 12.4867 124.724 12.6103 125.012 12.837C125.342 13.1049 125.651 13.4551 125.898 13.8879C126.166 14.3412 126.372 14.8563 126.537 15.4539C126.681 16.0514 126.764 16.6284 126.764 17.2259C126.743 17.5762 126.702 18.0913 126.64 18.7713ZM148.317 24.685C147.884 25.3238 147.451 25.3856 147.142 25.365C146.73 25.3032 146.442 25.1177 146.215 24.8087C145.968 24.4378 145.782 23.9638 145.679 23.4281C145.576 22.8512 145.535 22.2124 145.576 21.5324C145.597 21.1203 145.618 20.7082 145.659 20.3373C146.05 20.7494 146.462 21.1409 146.936 21.5118C147.575 22.0269 148.317 22.4184 149.141 22.6451C148.956 23.4693 148.667 24.1493 148.317 24.685ZM149.759 18.7713C149.697 19.3277 149.615 19.9046 149.533 20.5434C148.77 20.2343 148.131 19.8428 147.657 19.3483C147.122 18.8125 146.71 18.215 146.462 17.6174C146.215 16.9993 146.071 16.3811 146.05 15.7423C146.03 15.1036 146.071 14.506 146.215 14.0115C146.339 13.517 146.504 13.1255 146.73 12.8164C146.854 12.6721 147.019 12.4867 147.184 12.4867C147.534 12.4867 147.843 12.6103 148.131 12.837C148.461 13.1049 148.75 13.4551 149.017 13.8879C149.285 14.3412 149.491 14.8563 149.656 15.4539C149.8 16.0514 149.883 16.6284 149.883 17.2259C149.862 17.5762 149.821 18.0913 149.759 18.7713ZM158.949 29.9806C158.867 29.9806 158.702 29.9806 158.393 29.9188C158.228 29.8982 158.043 29.8157 157.878 29.6715C157.692 29.5273 157.527 29.2594 157.383 28.9091C157.239 28.5382 157.157 27.9819 157.157 27.2813C157.157 26.7249 157.342 26.1892 157.733 25.6329C158.043 25.1796 158.413 24.8087 158.805 24.4996C159.093 24.8911 159.341 25.2826 159.567 25.6535C159.815 26.1068 159.938 26.5807 159.938 27.0752C159.938 28.5176 159.712 29.1564 159.506 29.4242C159.217 29.857 159.011 29.9806 158.949 29.9806Z" fill="#532F03"/>
</g>
<defs>
<clipPath id="clip0_52_2652">
<rect width="166.429" height="32" fill="white"/>
</clipPath>
</defs>
</svg>
